<svg width="56" height="57" viewBox="0 0 56 57" fill="none" xmlns="http://www.w3.org/2000/svg">
<rect x="2" y="2.17188" width="52" height="52" rx="26" fill="#F6F9FD"/>
<path opacity="0.4" d="M36.9099 27.2919C36.9099 32.1819 33.3599 36.7619 28.5099 38.1019C28.1799 38.1919 27.8198 38.1919 27.4898 38.1019C22.6398 36.7619 19.0898 32.1819 19.0898 27.2919V22.9019C19.0898 22.0819 19.7099 21.1519 20.4799 20.8419L26.0498 18.5619C27.2998 18.0519 28.7098 18.0519 29.9598 18.5619L35.5298 20.8419C36.2898 21.1519 36.9199 22.0819 36.9199 22.9019L36.9099 27.2919Z" fill="#0075FF"/>
<path d="M30.5 26.6719C30.5 25.2919 29.38 24.1719 28 24.1719C26.62 24.1719 25.5 25.2919 25.5 26.6719C25.5 27.7919 26.24 28.7219 27.25 29.0419V31.6719C27.25 32.0819 27.59 32.4219 28 32.4219C28.41 32.4219 28.75 32.0819 28.75 31.6719V29.0419C29.76 28.7219 30.5 27.7919 30.5 26.6719Z" fill="#0075FF"/>
<rect x="2" y="2.17188" width="52" height="52" rx="26" stroke="white" stroke-width="4"/>
</svg>
