<svg width="24" height="24" viewBox="0 0 24 24" fill="none" xmlns="http://www.w3.org/2000/svg">
<path opacity="0.4" d="M16.1898 2H7.81978C4.17978 2 2.00977 4.17 2.00977 7.81V16.18C2.00977 19.82 4.17978 21.99 7.81978 21.99H16.1898C19.8298 21.99 21.9998 19.82 21.9998 16.18V7.81C21.9998 4.17 19.8298 2 16.1898 2Z" fill="#3388FF"/>
<path d="M8.1796 16.77C8.1596 16.77 8.12961 16.77 8.10961 16.77C7.13961 16.68 6.22961 16.23 5.54961 15.51C3.94961 13.83 3.94961 11.1 5.54961 9.41998L7.73961 7.11996C8.51961 6.29996 9.56961 5.83997 10.6896 5.83997C11.8096 5.83997 12.8596 6.28996 13.6396 7.11996C15.2396 8.79996 15.2396 11.53 13.6396 13.21L12.5496 14.36C12.2596 14.66 11.7896 14.67 11.4896 14.39C11.1896 14.1 11.1796 13.63 11.4596 13.33L12.5496 12.18C13.6096 11.07 13.6096 9.25997 12.5496 8.15997C11.5596 7.11997 9.81961 7.11997 8.81961 8.15997L6.62961 10.46C5.56961 11.57 5.56961 13.38 6.62961 14.48C7.05961 14.94 7.63961 15.22 8.24961 15.28C8.65961 15.32 8.9596 15.69 8.9196 16.1C8.8896 16.48 8.5596 16.77 8.1796 16.77Z" fill="#3388FF"/>
<path d="M13.3102 18.16C12.1902 18.16 11.1402 17.71 10.3602 16.88C8.76016 15.2 8.76016 12.47 10.3602 10.79L11.4502 9.63997C11.7402 9.33997 12.2102 9.32994 12.5102 9.60994C12.8102 9.89994 12.8201 10.37 12.5401 10.67L11.4502 11.82C10.3902 12.93 10.3902 14.74 11.4502 15.84C12.4402 16.88 14.1801 16.89 15.1801 15.84L17.3702 13.54C18.4302 12.43 18.4302 10.6199 17.3702 9.51995C16.9402 9.05995 16.3602 8.77996 15.7502 8.71996C15.3402 8.67996 15.0402 8.30995 15.0802 7.89995C15.1202 7.48995 15.4801 7.17997 15.9001 7.22997C16.8701 7.32997 17.7802 7.76995 18.4602 8.48995C20.0602 10.1699 20.0602 12.8999 18.4602 14.5799L16.2702 16.88C15.4802 17.71 14.4302 18.16 13.3102 18.16Z" fill="#3388FF"/>
</svg>
