<svg width="24" height="25" viewBox="0 0 24 25" fill="none" xmlns="http://www.w3.org/2000/svg">
<path opacity="0.4" d="M18.6695 2.5H16.7695C14.5895 2.5 13.4395 3.65 13.4395 5.83V7.73C13.4395 9.91 14.5895 11.06 16.7695 11.06H18.6695C20.8495 11.06 21.9995 9.91 21.9995 7.73V5.83C21.9995 3.65 20.8495 2.5 18.6695 2.5Z" fill="#3388FF"/>
<path opacity="0.4" d="M7.24 13.9301H5.34C3.15 13.9301 2 15.0801 2 17.2601V19.1601C2 21.3501 3.15 22.5001 5.33 22.5001H7.23C9.41 22.5001 10.56 21.3501 10.56 19.1701V17.2701C10.57 15.0801 9.42 13.9301 7.24 13.9301Z" fill="#3388FF"/>
<path d="M6.29 11.08C8.6593 11.08 10.58 9.1593 10.58 6.79C10.58 4.4207 8.6593 2.5 6.29 2.5C3.9207 2.5 2 4.4207 2 6.79C2 9.1593 3.9207 11.08 6.29 11.08Z" fill="#3388FF"/>
<path d="M17.7099 22.5C20.0792 22.5 21.9999 20.5793 21.9999 18.21C21.9999 15.8407 20.0792 13.92 17.7099 13.92C15.3406 13.92 13.4199 15.8407 13.4199 18.21C13.4199 20.5793 15.3406 22.5 17.7099 22.5Z" fill="#3388FF"/>
</svg>
