<svg width="25" height="25" viewBox="0 0 25 25" fill="none" xmlns="http://www.w3.org/2000/svg">
<path d="M9.5 8.8808H14.1846C15.2231 8.8808 16.0654 9.81542 16.0654 10.7616C16.0654 11.8 15.2231 12.6423 14.1846 12.6423H9.5V8.8808Z" stroke="#3388FF" stroke-width="1.5" stroke-miterlimit="10" stroke-linecap="round" stroke-linejoin="round"/>
<path d="M9.5 12.6307H14.8539C16.0423 12.6307 17 13.473 17 14.5115C17 15.55 16.0423 16.3923 14.8539 16.3923H9.5V12.6307Z" stroke="#3388FF" stroke-width="1.5" stroke-miterlimit="10" stroke-linecap="round" stroke-linejoin="round"/>
<path d="M12.7773 16.3808V18.2616" stroke="#3388FF" stroke-width="1.5" stroke-miterlimit="10" stroke-linecap="round" stroke-linejoin="round"/>
<path d="M10.4355 16.3808V18.2616" stroke="#3388FF" stroke-width="1.5" stroke-miterlimit="10" stroke-linecap="round" stroke-linejoin="round"/>
<path d="M12.7773 7V8.88077" stroke="#3388FF" stroke-width="1.5" stroke-miterlimit="10" stroke-linecap="round" stroke-linejoin="round"/>
<path d="M10.4355 7V8.88077" stroke="#3388FF" stroke-width="1.5" stroke-miterlimit="10" stroke-linecap="round" stroke-linejoin="round"/>
<path d="M11.2769 8.8808H8" stroke="#3388FF" stroke-width="1.5" stroke-miterlimit="10" stroke-linecap="round" stroke-linejoin="round"/>
<path d="M11.2769 16.3808H8" stroke="#3388FF" stroke-width="1.5" stroke-miterlimit="10" stroke-linecap="round" stroke-linejoin="round"/>
<path d="M12.5 22.5C18.0228 22.5 22.5 18.0228 22.5 12.5C22.5 6.97715 18.0228 2.5 12.5 2.5C6.97715 2.5 2.5 6.97715 2.5 12.5C2.5 18.0228 6.97715 22.5 12.5 22.5Z" stroke="#3388FF" stroke-width="1.5" stroke-miterlimit="10"/>
</svg>
