<svg width="25" height="25" viewBox="0 0 25 25" fill="none" xmlns="http://www.w3.org/2000/svg">
<path d="M24.5 0.5H0.5V24.5H24.5V0.5Z" fill="white"/>
<path opacity="0.4" d="M12.5 22.5C18.0228 22.5 22.5 18.0228 22.5 12.5C22.5 6.97715 18.0228 2.5 12.5 2.5C6.97715 2.5 2.5 6.97715 2.5 12.5C2.5 18.0228 6.97715 22.5 12.5 22.5Z" fill="#3388FF"/>
<path d="M16.9908 12.11C17.3708 11.62 17.6108 11 17.6108 10.33C17.6108 8.78 16.2508 7.41 14.6908 7.41H13.8108V6C13.8108 5.59 13.4708 5.25 13.0608 5.25C12.6508 5.25 12.3108 5.59 12.3108 6V7.42H11.3308H11.1008V6C11.1008 5.59 10.7608 5.25 10.3508 5.25C9.94078 5.25 9.62078 5.59 9.62078 6V7.42H9.28078H7.55078C7.14078 7.42 6.80078 7.76 6.80078 8.17C6.80078 8.58 7.14078 8.92 7.55078 8.92H8.53078V12.5V16.08H7.55078C7.14078 16.08 6.80078 16.42 6.80078 16.83C6.80078 17.24 7.14078 17.58 7.55078 17.58H9.28078H9.61078V19C9.61078 19.41 9.95078 19.75 10.3608 19.75C10.7708 19.75 11.1108 19.41 11.1108 19V17.58H11.3408H12.3208V19C12.3208 19.41 12.6608 19.75 13.0708 19.75C13.4808 19.75 13.8208 19.41 13.8208 19V17.58H15.4708C17.2508 17.58 18.7008 16.27 18.7008 14.66C18.7008 13.56 18.0008 12.6 16.9908 12.11ZM11.3408 8.92H14.7008C15.5008 8.92 16.1208 9.68 16.1208 10.34C16.1208 11.12 15.4808 11.76 14.7008 11.76H10.0308V8.92H11.3408ZM15.4708 16.08H11.3408H10.0308V13.25H14.7008H15.4708C16.4208 13.25 17.2008 13.89 17.2008 14.67C17.2008 15.45 16.4208 16.08 15.4708 16.08Z" fill="#3388FF"/>
</svg>
