<svg width="24" height="25" viewBox="0 0 24 25" fill="none" xmlns="http://www.w3.org/2000/svg">
<path opacity="0.4" d="M16.19 2.5H7.81C4.17 2.5 2 4.67 2 8.31V16.68C2 20.33 4.17 22.5 7.81 22.5H16.18C19.82 22.5 21.99 20.33 21.99 16.69V8.31C22 4.67 19.83 2.5 16.19 2.5Z" fill="#3388FF"/>
<path d="M11.9995 11.1899C11.2795 11.1899 10.6895 11.7799 10.6895 12.4999C10.6895 13.2199 11.2795 13.8099 11.9995 13.8099C12.7195 13.8099 13.3095 13.2199 13.3095 12.4999C13.3095 11.7799 12.7195 11.1899 11.9995 11.1899Z" fill="#3388FF"/>
<path d="M6.99945 11.1899C6.27945 11.1899 5.68945 11.7799 5.68945 12.4999C5.68945 13.2199 6.27945 13.8099 6.99945 13.8099C7.71945 13.8099 8.30945 13.2199 8.30945 12.4999C8.30945 11.7799 7.71945 11.1899 6.99945 11.1899Z" fill="#3388FF"/>
<path d="M16.9995 11.1899C16.2795 11.1899 15.6895 11.7799 15.6895 12.4999C15.6895 13.2199 16.2795 13.8099 16.9995 13.8099C17.7195 13.8099 18.3095 13.2199 18.3095 12.4999C18.3095 11.7799 17.7195 11.1899 16.9995 11.1899Z" fill="#3388FF"/>
</svg>
