<svg width="25" height="25" viewBox="0 0 25 25" fill="none" xmlns="http://www.w3.org/2000/svg">
<path opacity="0.4" d="M16.44 2.5H8.06C4.42 2.5 2.25 4.67 2.25 8.31V16.68C2.25 20.33 4.42 22.5 8.06 22.5H16.43C20.07 22.5 22.24 20.33 22.24 16.69V8.31C22.25 4.67 20.08 2.5 16.44 2.5Z" fill="#3388FF"/>
<path d="M15.8301 19.75C15.4201 19.75 15.0801 19.41 15.0801 19V15.1C15.0801 14.69 15.4201 14.35 15.8301 14.35C16.2401 14.35 16.5801 14.69 16.5801 15.1V19C16.5801 19.41 16.2401 19.75 15.8301 19.75Z" fill="#3388FF"/>
<path d="M15.8301 8.7C15.4201 8.7 15.0801 8.36 15.0801 7.95V6C15.0801 5.59 15.4201 5.25 15.8301 5.25C16.2401 5.25 16.5801 5.59 16.5801 6V7.95C16.5801 8.36 16.2401 8.7 15.8301 8.7Z" fill="#3388FF"/>
<path d="M8.66992 19.75C8.25992 19.75 7.91992 19.41 7.91992 19V17.05C7.91992 16.64 8.25992 16.3 8.66992 16.3C9.07992 16.3 9.41992 16.64 9.41992 17.05V19C9.41992 19.41 9.08992 19.75 8.66992 19.75Z" fill="#3388FF"/>
<path d="M8.66992 10.65C8.25992 10.65 7.91992 10.31 7.91992 9.9V6C7.91992 5.59 8.25992 5.25 8.66992 5.25C9.07992 5.25 9.41992 5.59 9.41992 6V9.9C9.41992 10.31 9.08992 10.65 8.66992 10.65Z" fill="#3388FF"/>
<path d="M15.8296 7.82996C14.3296 7.82996 13.0996 9.04996 13.0996 10.55C13.0996 12.05 14.3196 13.28 15.8296 13.28C17.3296 13.28 18.5496 12.06 18.5496 10.55C18.5496 9.03996 17.3296 7.82996 15.8296 7.82996Z" fill="#3388FF"/>
<path d="M8.66922 11.73C7.16922 11.73 5.94922 12.95 5.94922 14.46C5.94922 15.97 7.16922 17.18 8.66922 17.18C10.1692 17.18 11.3992 15.96 11.3992 14.46C11.3992 12.96 10.1792 11.73 8.66922 11.73Z" fill="#3388FF"/>
</svg>
