<svg width="25" height="25" viewBox="0 0 25 25" fill="none" xmlns="http://www.w3.org/2000/svg">
<path d="M9.75 22.5H15.75C20.75 22.5 22.75 20.5 22.75 15.5V9.5C22.75 4.5 20.75 2.5 15.75 2.5H9.75C4.75 2.5 2.75 4.5 2.75 9.5V15.5C2.75 20.5 4.75 22.5 9.75 22.5Z" stroke="#3388FF" stroke-width="1.5" stroke-linecap="round" stroke-linejoin="round"/>
<path d="M16.3203 19V15.1" stroke="#3388FF" stroke-width="1.5" stroke-miterlimit="10" stroke-linecap="round" stroke-linejoin="round"/>
<path d="M16.3203 7.95V6" stroke="#3388FF" stroke-width="1.5" stroke-miterlimit="10" stroke-linecap="round" stroke-linejoin="round"/>
<path d="M16.3207 13.15C17.7566 13.15 18.9207 11.986 18.9207 10.55C18.9207 9.11407 17.7566 7.95001 16.3207 7.95001C14.8848 7.95001 13.7207 9.11407 13.7207 10.55C13.7207 11.986 14.8848 13.15 16.3207 13.15Z" stroke="#3388FF" stroke-width="1.5" stroke-miterlimit="10" stroke-linecap="round" stroke-linejoin="round"/>
<path d="M9.17969 19V17.05" stroke="#3388FF" stroke-width="1.5" stroke-miterlimit="10" stroke-linecap="round" stroke-linejoin="round"/>
<path d="M9.17969 9.9V6" stroke="#3388FF" stroke-width="1.5" stroke-miterlimit="10" stroke-linecap="round" stroke-linejoin="round"/>
<path d="M9.18008 17.05C10.616 17.05 11.7801 15.8859 11.7801 14.45C11.7801 13.014 10.616 11.85 9.18008 11.85C7.74414 11.85 6.58008 13.014 6.58008 14.45C6.58008 15.8859 7.74414 17.05 9.18008 17.05Z" stroke="#3388FF" stroke-width="1.5" stroke-miterlimit="10" stroke-linecap="round" stroke-linejoin="round"/>
</svg>
