<svg width="25" height="25" viewBox="0 0 25 25" fill="none" xmlns="http://www.w3.org/2000/svg">
<path d="M13.1609 3.01814L13.1309 3.08814L10.2309 9.81814H7.38094C6.70094 9.81814 6.05094 9.95814 5.46094 10.2081L7.21094 6.02814L7.25094 5.92814L7.32094 5.76814C7.34094 5.70814 7.36094 5.64814 7.39094 5.59814C8.70094 2.56814 10.1809 1.87814 13.1609 3.01814Z" stroke="#3388FF" stroke-width="1.5" stroke-linecap="round" stroke-linejoin="round"/>
<path d="M18.5505 10.0181C18.1005 9.87813 17.6205 9.81813 17.1405 9.81813H10.2305L13.1305 3.08813L13.1605 3.01813C13.3105 3.06813 13.4505 3.13813 13.6005 3.19813L15.8105 4.12813C17.0405 4.63813 17.9005 5.16813 18.4205 5.80813C18.5205 5.92813 18.6005 6.03813 18.6705 6.16813C18.7605 6.30813 18.8305 6.44813 18.8705 6.59813C18.9105 6.68813 18.9405 6.77813 18.9605 6.85813C19.2305 7.69813 19.0705 8.72813 18.5505 10.0181Z" stroke="#3388FF" stroke-width="1.5" stroke-linecap="round" stroke-linejoin="round"/>
<path d="M22.0217 14.6984V16.6484C22.0217 16.8484 22.0117 17.0484 22.0017 17.2484C21.8117 20.7384 19.8617 22.4984 16.1617 22.4984H8.36172C8.12172 22.4984 7.88172 22.4784 7.65172 22.4484C4.47172 22.2384 2.77172 20.5384 2.56172 17.3584C2.53172 17.1284 2.51172 16.8884 2.51172 16.6484V14.6984C2.51172 12.6884 3.73172 10.9584 5.47172 10.2084C6.07172 9.95836 6.71172 9.81836 7.39172 9.81836H17.1517C17.6417 9.81836 18.1217 9.88836 18.5617 10.0184C20.5517 10.6284 22.0217 12.4884 22.0217 14.6984Z" stroke="#3388FF" stroke-width="1.5" stroke-linecap="round" stroke-linejoin="round"/>
<path d="M7.21 6.02814L5.46 10.2081C3.72 10.9581 2.5 12.6881 2.5 14.6981V11.7681C2.5 8.92814 4.52 6.55814 7.21 6.02814Z" stroke="#3388FF" stroke-width="1.5" stroke-linecap="round" stroke-linejoin="round"/>
<path d="M22.0186 11.7677V14.6977C22.0186 12.4977 20.5586 10.6277 18.5586 10.0277C19.0786 8.72766 19.2286 7.70766 18.9786 6.85766C18.9586 6.76766 18.9286 6.67766 18.8886 6.59766C20.7486 7.55766 22.0186 9.52766 22.0186 11.7677Z" stroke="#3388FF" stroke-width="1.5" stroke-linecap="round" stroke-linejoin="round"/>
</svg>
