<svg width="25" height="25" viewBox="0 0 25 25" fill="none" xmlns="http://www.w3.org/2000/svg">
<path opacity="0.8" d="M13.3992 3.01997L13.3692 3.08997L10.4692 9.81997H7.61922C6.93922 9.81997 6.29922 9.94997 5.69922 10.21L7.44922 6.02997L7.48922 5.93997L7.54922 5.77997C7.57922 5.70997 7.59922 5.64997 7.62922 5.59997C8.93922 2.56997 10.4192 1.87997 13.3992 3.01997Z" fill="#3388FF"/>
<path d="M18.7907 10.02C18.3407 9.89002 17.8707 9.82002 17.3807 9.82002H10.4707L13.3707 3.09002L13.4007 3.02002C13.5407 3.07002 13.6907 3.14002 13.8407 3.19002L16.0507 4.12002C17.2807 4.63002 18.1407 5.16002 18.6707 5.80002C18.7607 5.92002 18.8407 6.03002 18.9207 6.16002C19.0107 6.30002 19.0807 6.44002 19.1207 6.59002C19.1607 6.68002 19.1907 6.76002 19.2107 6.85002C19.4707 7.70002 19.3107 8.73002 18.7907 10.02Z" fill="#3388FF"/>
<path opacity="0.4" d="M22.2602 14.6999V16.6499C22.2602 16.8499 22.2502 17.0499 22.2402 17.2399C22.0502 20.7399 20.1002 22.4999 16.4002 22.4999H8.60023C8.35023 22.4999 8.12023 22.4799 7.89023 22.4499C4.71023 22.2399 3.01023 20.5399 2.79023 17.3599C2.76023 17.1199 2.74023 16.8899 2.74023 16.6499V14.6999C2.74023 12.6899 3.96023 10.9599 5.70023 10.2099C6.30023 9.94995 6.94023 9.81995 7.62023 9.81995H17.3802C17.8702 9.81995 18.3402 9.88995 18.7902 10.0199C20.7902 10.6299 22.2602 12.4899 22.2602 14.6999Z" fill="#3388FF"/>
<path opacity="0.6" d="M7.45023 6.03003L5.70023 10.21C3.96023 10.96 2.74023 12.69 2.74023 14.7V11.77C2.74023 8.93003 4.76023 6.56003 7.45023 6.03003Z" fill="#3388FF"/>
<path opacity="0.6" d="M22.2591 11.77V14.7C22.2591 12.49 20.7891 10.63 18.7891 10.02C19.3091 8.72997 19.4691 7.69997 19.2091 6.84997C19.1891 6.75997 19.1591 6.67997 19.1191 6.58997C20.9891 7.55997 22.2591 9.52997 22.2591 11.77Z" fill="#3388FF"/>
</svg>
