<svg width="24" height="24" viewBox="0 0 24 24" fill="none" xmlns="http://www.w3.org/2000/svg">
<path opacity="0.4" d="M18.25 22H5.75C3.67875 22 2 20.3212 2 18.25V5.75C2 3.67875 3.67875 2 5.75 2H18.25C20.3212 2 22 3.67875 22 5.75V18.25C22 20.3212 20.3212 22 18.25 22Z" fill="#3388FF"/>
<path d="M17.9175 11.0002H14.415L16.8892 8.5245C16.6942 8.25075 16.479 7.99425 16.242 7.758C16.0057 7.521 15.7492 7.30425 15.477 7.11L12.9998 9.58425V6.0825C12.675 6.03075 12.3428 6 12.0023 6H11.997C11.6573 6 11.3243 6.03075 10.9995 6.0825V9.585L8.5245 7.11075C8.25 7.3035 7.99425 7.521 7.75725 7.758C7.52025 7.99425 7.3035 8.2515 7.10925 8.5245L9.5835 11.0002H6.0825C6.0825 11.0002 6 11.658 6 11.9977V12.0023C6 12.342 6.03075 12.6765 6.0825 12.9998H9.585L7.11 15.4755C7.4985 16.0238 7.97625 16.5007 8.52375 16.8907L11.0002 14.4158V17.9175C11.3242 17.97 11.6565 18 11.9955 18H12.0037C12.3435 18 12.6758 17.97 12.999 17.9175V14.4158L15.4747 16.8907C15.7485 16.7032 16.005 16.485 16.239 16.2457H16.2413C16.4775 16.0132 16.6942 15.7575 16.8892 15.48L14.4142 13.0057H17.9167C17.9692 12.6832 17.9993 12.354 17.9993 12.0157V12C17.9993 11.661 17.9692 11.3288 17.9167 11.0048V11.0002H17.9175ZM13.5 12.0023C13.5 12.4485 13.4175 12.8753 13.2698 13.2698C12.876 13.4183 12.4478 13.5 12.0023 13.5H11.9977C11.5515 13.5 11.1255 13.4175 10.731 13.2698C10.5817 12.8753 10.5 12.4478 10.5 12.0023V11.9977C10.5 11.5515 10.5817 11.1255 10.7303 10.731C11.1248 10.5817 11.5515 10.5 11.9977 10.5H12.0023C12.4485 10.5 12.876 10.5817 13.2698 10.731C13.4183 11.1247 13.5 11.5515 13.5 11.9985V12.0023Z" fill="#3388FF"/>
</svg>
