<svg width="221" height="220" fill="none" xmlns="http://www.w3.org/2000/svg"><rect x=".5" y=".0001" width="220" height="220" rx="25" fill="#3E3C55"/><path d="M147.167 85.9376c6.961 0 12.604-5.6431 12.604-12.6042 0-6.9611-5.643-12.6042-12.604-12.6042-6.961 0-12.605 5.6431-12.605 12.6042 0 6.9611 5.644 12.6042 12.605 12.6042Z" fill="#EA1447"/><path d="M147.164 91.6667c-10.129 0-18.333-8.2041-18.333-18.3333 0-3.3458.962-6.4625 2.566-9.1667H87.5807c-12.65 0-22.9166 10.2209-22.9166 22.825V118.983c0 12.605 10.2666 22.825 22.9166 22.825h6.875c1.2375 0 2.8875.825 3.6667 1.834l6.8746 9.121c3.025 4.033 7.975 4.033 11 0l6.875-9.121c.871-1.146 2.246-1.834 3.667-1.834h6.875c12.65 0 22.917-10.22 22.917-22.825V89.1001c-2.704 1.6041-5.821 2.5666-9.167 2.5666Z" fill="url(#a)"/><path d="M110.497 110c-2.566 0-4.583-2.062-4.583-4.583 0-2.521 2.063-4.584 4.583-4.584 2.521 0 4.584 2.063 4.584 4.584 0 2.521-2.017 4.583-4.584 4.583ZM128.833 110c-2.566 0-4.583-2.062-4.583-4.583 0-2.521 2.062-4.584 4.583-4.584 2.521 0 4.584 2.063 4.584 4.584 0 2.521-2.017 4.583-4.584 4.583Z" fill="#fff"/><path d="M92.1693 110c-2.5667 0-4.5834-2.062-4.5834-4.583 0-2.521 2.0625-4.584 4.5834-4.584 2.5208 0 4.5833 2.063 4.5833 4.584 0 2.521-2.0167 4.583-4.5833 4.583Z" fill="#FFFEFE"/><defs><linearGradient id="a" x1="49.2137" y1="64.4287" x2="171.785" y2="146.143" gradientUnits="userSpaceOnUse"><stop stop-color="#E70161"/><stop offset="1" stop-color="#F8741C"/></linearGradient></defs></svg>