<svg width="24" height="24" fill="none" xmlns="http://www.w3.org/2000/svg"><path d="M12 12c2.7614 0 5-2.2386 5-5s-2.2386-5-5-5-5 2.2386-5 5 2.2386 5 5 5Z" fill="#FE2C3D"/><path opacity=".4" d="M12.0002 14.5c-5.01 0-9.09 3.36-9.09 7.5 0 .28.22.5.5.5h17.18c.28 0 .5-.22.5-.5 0-4.14-4.08-7.5-9.09-7.5Z" fill="#FE2C3D"/><path d="M21.4291 14.74c-.9-.9-1.61-.61-2.22 0l-3.5401 3.5401c-.14.14-.2699.3999-.2999.5899l-.19 1.35c-.07.49.27.83.76.76l1.3499-.19c.19-.03.4601-.16.5901-.3l3.5399-3.54c.62-.6.9101-1.31.0101-2.21Z" fill="#FE2C3D"/></svg>