<svg width="466" height="466" fill="none" xmlns="http://www.w3.org/2000/svg"><g filter="url(#a)" opacity=".6"><path d="M373.633 233c0 18.468-3.637 36.756-10.705 53.818a140.63 140.63 0 0 1-30.485 45.625 140.63 140.63 0 0 1-45.625 30.485A140.6227 140.6227 0 0 1 233 373.633c-18.468 0-36.756-3.637-53.818-10.705a140.63 140.63 0 0 1-45.625-30.485 140.63 140.63 0 0 1-30.485-45.625 140.6304 140.6304 0 0 1 0-107.636 140.63 140.63 0 0 1 30.485-45.625 140.63 140.63 0 0 1 45.625-30.485 140.6304 140.6304 0 0 1 107.636 0 140.63 140.63 0 0 1 45.625 30.485 140.63 140.63 0 0 1 30.485 45.625A140.6227 140.6227 0 0 1 373.633 233Z" stroke="url(#b)" stroke-width="8.7337"/></g><defs><filter id="a" x=".6632" y=".6632" width="464.674" height="464.674" filterUnits="userSpaceOnUse" color-interpolation-filters="sRGB"><feFlood flood-opacity="0" result="BackgroundImageFix"/><feBlend in="SourceGraphic" in2="BackgroundImageFix" result="shape"/><feGaussianBlur stdDeviation="43.6684" result="effect1_foregroundBlur_2866:25350"/></filter><linearGradient id="b" x1="233" y1="88" x2="233" y2="378" gradientUnits="userSpaceOnUse"><stop stop-color="#1F87EF"/><stop offset="1" stop-color="#D614A8"/></linearGradient></defs></svg>