<svg width="290" height="290" fill="none" xmlns="http://www.w3.org/2000/svg"><g opacity=".6" stroke="#FFCCD0" stroke-width="1.7467"><path d="M288.777 154.221c-1.658 18.09-4.888 25.646-10.068 37.759-1.065 2.492-2.213 5.176-3.446 8.185-7.171 17.489-17.679 33.377-30.925 46.759-13.245 13.382-28.968 23.996-46.27 31.236-17.302 7.24-35.844 10.967-54.569 10.967-18.726 0-37.268-3.727-54.57-10.967-17.3017-7.24-33.0247-17.854-46.2703-31.236-13.2456-13.382-23.7542-29.27-30.9244-46.759C4.5642 182.676.8733 163.931.8733 145c0-9.457.9209-15.538 2.72-21.426 1.2962-4.242 3.0433-8.377 5.259-13.621.8854-2.095 1.8458-4.368 2.882-6.896.9068-2.211 1.8645-4.6011 2.8726-7.1162 3.0143-7.5211 6.4784-16.1645 10.3746-24.5272 5.2049-11.172 11.1275-21.7206 17.6773-28.3378 13.2455-13.382 28.9685-23.9954 46.2703-31.2359C106.231 4.5995 124.773.8734 143.499.8734c18.725 0 37.267 3.7261 54.569 10.9665 17.302 7.2405 33.025 17.8539 46.27 31.2359 13.246 13.382 23.754 29.2706 30.925 46.7591 7.213 17.5941 15.7 40.5231 13.514 64.3861Z" stroke-opacity=".2"/><path d="M227.654 263.368c-15.685 11.4-29.637 15.587-48.497 20.586-18.771 4.975-38.18 6.379-57.119 4.135-18.939-2.243-37.0363-8.09-53.2594-17.202-16.2228-9.113-30.2557-21.312-41.3003-35.901-11.0445-14.589-18.8867-31.285-23.0787-49.135-4.192-17.851-4.652-36.511-1.35-54.914 3.3021-18.404 10.302-36.1912 20.604-52.3454 10.3022-16.1544 23.7037-30.3572 39.4406-41.7953 7.003-5.0901 10.6793-11.5667 14.0598-17.522.5279-.93 1.0485-1.8472 1.5735-2.7445 3.8962-6.659 8.0551-12.313 17.1514-14.7238C100.436.5982 106.12.6468 112.442 1.4756c6.311.8273 13.186 2.4213 20.097 4.2503 4.009 1.0609 7.997 2.1916 11.891 3.2956 2.841.8053 5.631 1.5965 8.342 2.3359 6.39 1.7423 12.294 3.1833 17.127 3.7559 4.788.5672 9.681.9021 14.562 1.2284l.504.0337c4.719.3152 9.423.6295 14.046 1.1439 9.577 1.0658 18.719 2.9837 26.731 7.4837 4.127 2.3182 8.575 4.2742 13.1 6.1967.703.299 1.408.5971 2.115.8956 3.848 1.6267 7.727 3.2665 11.536 5.1316 9 4.4072 17.513 10.0303 23.933 19.5042 9.583 14.1422 10.451 25.4319 11.692 41.5663.128 1.6633.26 3.3776.406 5.1526 1.912 23.272-1.046 48.568-4.363 67.052-.328 1.828-.66 3.73-1.002 5.691-1.397 7.998-2.962 16.962-5.094 25.748-2.656 10.946-6.172 21.523-11.274 29.524-5.101 7.999-10.89 13.08-17.394 17.602-2.798 1.946-5.721 3.783-8.787 5.711-.51.32-1.023.642-1.54.968-3.625 2.285-7.436 4.729-11.416 7.622Z" stroke-opacity=".4"/></g></svg>