<svg width="24" height="24" fill="none" xmlns="http://www.w3.org/2000/svg"><path fill-rule="evenodd" clip-rule="evenodd" d="M12 24c6.6274 0 12-5.3726 12-12S18.6274 0 12 0 0 5.3726 0 12s5.3726 12 12 12Zm-2.4115-7.0047v2.2393h1.4354v-2.2393h1.0909v2.2393h1.378v-2.2393c.4019 0 1.378-.0459 2.067-.2296l.0239-.0109c.6373-.2893 1.8048-.8194 1.9282-2.9174.0919-1.5617-.9186-2.1818-1.8373-2.4689.4594-.1722 1.1484-1.0335 1.0909-2.0095-.1249-2.1244-2.1052-2.5455-3.2727-2.6412V4.536h-1.378v2.1818h-1.0909V4.536H9.5885v2.1818H6.9474v1.4928c.1264 0 .2506-.0021.3709-.0042.7537-.0132 1.3515-.0237 1.3515.521 0 .3619.0038.7635.0078 1.1872.0086.9206.0182 1.9449-.0078 2.8893-.0084.3094-.0074.6066-.0064.8818.0033.9557.0058 1.6446-.3955 1.6446H7.1196l-.287 1.665h2.7559Zm1.4354-4.5933v2.9283h1.6077c.4593 0 .9186-.1149 1.1482-.1723h.0001c.2297-.0574 1.0909-.3445 1.0335-1.2057-.0574-.8613-.689-1.2058-1.0335-1.3206-.3445-.1148-1.3206-.2297-1.6077-.2297h-1.1483Zm0-4.0765v2.6985h1.0909c.2871 0 .689-.0574.9187-.1148.2296-.0574 1.2631-.4019 1.2057-1.2057-.0574-.8039-.7464-1.2632-1.4928-1.3206-.5971-.046-1.3971-.0574-1.7225-.0574Z" fill="#EAC225"/></svg>