<svg width="24" height="24" fill="none" xmlns="http://www.w3.org/2000/svg"><path d="M12 12c2.7614 0 5-2.2386 5-5s-2.2386-5-5-5-5 2.2386-5 5 2.2386 5 5 5Z" fill="#292D32"/><path opacity=".4" d="M11.9999 14.5c-5.01 0-9.09 3.36-9.09 7.5 0 .28.22.5.5.5H20.59c.28 0 .5-.22.5-.5 0-4.14-4.0801-7.5-9.0901-7.5Z" fill="#292D32"/><path d="M21.43 14.7403c-.9-.9-1.6099-.61-2.2199 0L15.67 18.2804c-.14.14-.27.3999-.3.5899l-.19 1.35c-.07.49.27.83.76.76l1.35-.19c.19-.03.46-.16.59-.3l3.54-3.54c.62-.6.91-1.31.01-2.21Z" fill="#292D32"/></svg>