<svg width="24" height="24" fill="none" xmlns="http://www.w3.org/2000/svg"><path opacity=".4" d="M21.0802 8.58v6.84c0 1.12-.6 2.16-1.57 2.73l-5.94 3.43c-.97.56-2.17.56-3.15 0l-5.94-3.43c-.97-.56-1.57-1.6-1.57-2.73V8.58c0-1.12.6-2.16 1.57-2.73l5.94-3.43c.97-.56 2.17-.56 3.15 0l5.94 3.43c.97.57 1.57 1.6 1.57 2.73Z" fill="#FE2C3D"/><path d="M12 13.75c-.41 0-.75-.34-.75-.75V7.75c0-.41.34-.75.75-.75s.75.34.75.75V13c0 .41-.34.75-.75.75ZM12 17.2499c-.13 0-.26-.0301-.38-.0801-.13-.05-.23-.1199-.33-.2099-.09-.1-.16-.21-.22-.33-.05-.12-.07-.25-.07-.38 0-.26.1-.5201.29-.7101.1-.09.2-.1599.33-.2099.37-.16.81-.0701 1.09.2099.09.1.16.2001.21.3301.05.12.08.25.08.38s-.03.26-.08.38-.12.23-.21.33c-.19.19-.44.29-.71.29Z" fill="#FE2C3D"/></svg>