<svg width="24" height="24" fill="none" xmlns="http://www.w3.org/2000/svg"><path opacity=".58" d="M24 0H0v24h24V0Z" fill="#fff"/><path opacity=".4" d="M6.94 20.6304c1.49.87 3.2201 1.3701 5.0601 1.3701 5.63 0 10.3099-4.97 9.9799-10.59-.34-5.8-5.61-10.27-11.68-9.27-4.18.69-7.53 4.08-8.18 8.26-.38 2.42.12 4.71 1.21 6.6l-.89 3.3099c-.2.75.49 1.43 1.23 1.22l3.27-.9Z" fill="#292D32"/><path d="M17 15.1705c0 .18-.04.37-.13.55-.09.18-.2.35-.34.51-.25.27-.52.47-.82.59-.3.13-.63.19-.98.19-.51 0-1.06-.12-1.63-.37-.58-.25-1.15-.58-1.72-.99-.58-.42-1.12-.89-1.64-1.4-.52-.52-.98-1.07-1.4-1.64-.41-.57-.74-1.14-.98-1.71-.24-.57-.36-1.12-.36-1.64 0-.34.06-.67.18-.97.12-.31.31-.59.58-.84.32-.32.67-.47 1.04-.47.14 0 .28.03.41.09.13.06.25.15.34.28l1.15 1.65c.09.13.16.24.2.35.05.11.07.21.07.31 0 .12-.04.24-.11.36s-.16.24-.28.36l-.38.4c-.06.06-.08.12-.08.2 0 .04.01.08.02.12.02.04.03.07.04.1.09.17.25.38.47.64.23.26.47.53.73.79.27.27.53.51.8.74.26.22.48.37.65.46.03.01.06.03.09.04.04.02.08.02.13.02.09 0 .15-.03.21-.09l.38-.38c.13-.13.25-.22.36-.28.12-.07.23-.11.36-.11.1 0 .2.02.31.07.11.05.23.11.35.2l1.66 1.18c.13.09.22.2.28.32.01.11.04.23.04.37Z" fill="#292D32"/></svg>