<svg width="56" height="56" viewBox="0 0 56 56" fill="none" xmlns="http://www.w3.org/2000/svg">
<path opacity="0.4" d="M28.0013 41.3466C35.3651 41.3466 41.3346 35.3771 41.3346 28.0133C41.3346 20.6495 35.3651 14.6799 28.0013 14.6799C20.6375 14.6799 14.668 20.6495 14.668 28.0133C14.668 35.3771 20.6375 41.3466 28.0013 41.3466Z" fill="#0075FF"/>
<path d="M28 21.2534C25.24 21.2534 23 23.4934 23 26.2534C23 28.9601 25.12 31.1601 27.9333 31.2401C27.9733 31.2401 28.0267 31.2401 28.0533 31.2401C28.08 31.2401 28.12 31.2401 28.1467 31.2401C28.16 31.2401 28.1733 31.2401 28.1733 31.2401C30.8667 31.1468 32.9867 28.9601 33 26.2534C33 23.4934 30.76 21.2534 28 21.2534Z" fill="#0075FF"/>
<path d="M37.0409 37.8134C34.6676 40.0001 31.4943 41.3467 28.0009 41.3467C24.5076 41.3467 21.3343 40.0001 18.9609 37.8134C19.2809 36.6001 20.1476 35.4934 21.4143 34.6401C25.0543 32.2134 30.9743 32.2134 34.5876 34.6401C35.8676 35.4934 36.7209 36.6001 37.0409 37.8134Z" fill="#0075FF"/>
</svg>
