<svg width="56" height="56" viewBox="0 0 56 56" fill="none" xmlns="http://www.w3.org/2000/svg">
<path opacity="0.4" d="M33.588 14.6666H22.4146C17.5613 14.6666 14.668 17.56 14.668 22.4133V33.5733C14.668 38.44 17.5613 41.3333 22.4146 41.3333H33.5746C38.428 41.3333 41.3213 38.44 41.3213 33.5866V22.4133C41.3346 17.56 38.4413 14.6666 33.588 14.6666Z" fill="#0075FF"/>
<path d="M33.1863 22.8134C31.2129 20.8534 28.0129 20.8534 26.0529 22.8134C24.6796 24.1734 24.2663 26.1467 24.7996 27.8801L21.6663 31.0134C21.4529 31.2401 21.2929 31.6801 21.3463 32.0001L21.5463 33.4534C21.6129 33.9334 22.0663 34.3867 22.5463 34.4534L23.9996 34.6667C24.3196 34.7067 24.7596 34.5734 24.9863 34.3334L25.5329 33.7867C25.6663 33.6667 25.6663 33.4534 25.5329 33.32L24.2396 32.0267C24.0529 31.8401 24.0529 31.52 24.2396 31.32C24.4263 31.1334 24.7463 31.1334 24.9463 31.32L26.2396 32.6134C26.3596 32.7334 26.5729 32.7334 26.7063 32.6134L28.1196 31.2134C29.8396 31.7467 31.8129 31.3334 33.1863 29.9734C35.1596 27.9867 35.1596 24.7867 33.1863 22.8134ZM29.6663 28.0001C28.7463 28.0001 27.9996 27.2534 27.9996 26.3334C27.9996 25.4134 28.7463 24.6667 29.6663 24.6667C30.5863 24.6667 31.3329 25.4134 31.3329 26.3334C31.3329 27.2534 30.5863 28.0001 29.6663 28.0001Z" fill="#0075FF"/>
</svg>
