<svg width="56" height="56" viewBox="0 0 56 56" fill="none" xmlns="http://www.w3.org/2000/svg">
<path opacity="0.4" d="M35.3734 22.36C35.28 22.3466 35.1867 22.3466 35.0934 22.36C33.0267 22.2933 31.3867 20.6 31.3867 18.52C31.3867 16.4 33.1067 14.6666 35.2401 14.6666C37.3601 14.6666 39.0934 16.3866 39.0934 18.52C39.0801 20.6 37.44 22.2933 35.3734 22.36Z" fill="#0075FF"/>
<path opacity="0.4" d="M39.7195 31.6002C38.2261 32.6002 36.1328 32.9735 34.1995 32.7202C34.7061 31.6268 34.9728 30.4135 34.9862 29.1335C34.9862 27.8002 34.6928 26.5335 34.1328 25.4268C36.1061 25.1602 38.1995 25.5335 39.7061 26.5335C41.8128 27.9202 41.8128 30.2002 39.7195 31.6002Z" fill="#0075FF"/>
<path opacity="0.4" d="M20.5872 22.36C20.6805 22.3466 20.7739 22.3466 20.8672 22.36C22.9339 22.2933 24.5739 20.6 24.5739 18.52C24.5739 16.4 22.8539 14.6666 20.7205 14.6666C18.6005 14.6666 16.8672 16.3866 16.8672 18.52C16.8805 20.6 18.5205 22.2933 20.5872 22.36Z" fill="#0075FF"/>
<path opacity="0.4" d="M20.7335 29.1332C20.7335 30.4265 21.0135 31.6532 21.5202 32.7598C19.6402 32.9598 17.6802 32.5598 16.2402 31.6132C14.1335 30.2132 14.1335 27.9331 16.2402 26.5331C17.6668 25.5731 19.6802 25.1865 21.5735 25.3998C21.0268 26.5198 20.7335 27.7865 20.7335 29.1332Z" fill="#0075FF"/>
<path d="M28.1584 33.16C28.0518 33.1467 27.9318 33.1467 27.8118 33.16C25.3584 33.08 23.3984 31.0667 23.3984 28.5867C23.3984 26.0533 25.4384 24 27.9851 24C30.5184 24 32.5718 26.0533 32.5718 28.5867C32.5718 31.0667 30.6251 33.08 28.1584 33.16Z" fill="#0075FF"/>
<path d="M23.8264 35.9199C21.8131 37.2666 21.8131 39.4799 23.8264 40.8132C26.1197 42.3466 29.8797 42.3466 32.1731 40.8132C34.1864 39.4666 34.1864 37.2532 32.1731 35.9199C29.8931 34.3866 26.1331 34.3866 23.8264 35.9199Z" fill="#0075FF"/>
</svg>
