<svg width="56" height="57" viewBox="0 0 56 57" fill="none" xmlns="http://www.w3.org/2000/svg">
<path opacity="0.4" d="M41.3346 24.5V34.4467C41.3346 37.5 38.8546 39.9667 35.8013 39.9667H20.2013C17.148 39.9667 14.668 37.5 14.668 34.4467V24.5H41.3346Z" fill="#0075FF"/>
<path d="M41.3346 22.5534V24.5001H14.668V22.5534C14.668 19.5001 17.148 17.0334 20.2013 17.0334H35.8013C38.8546 17.0334 41.3346 19.5001 41.3346 22.5534Z" fill="#0075FF"/>
<path d="M22.6667 35.5H20C19.4533 35.5 19 35.0467 19 34.5C19 33.9533 19.4533 33.5 20 33.5H22.6667C23.2133 33.5 23.6667 33.9533 23.6667 34.5C23.6667 35.0467 23.2133 35.5 22.6667 35.5Z" fill="#0075FF"/>
<path d="M31.3333 35.5H26C25.4533 35.5 25 35.0467 25 34.5C25 33.9533 25.4533 33.5 26 33.5H31.3333C31.88 33.5 32.3333 33.9533 32.3333 34.5C32.3333 35.0467 31.88 35.5 31.3333 35.5Z" fill="#0075FF"/>
</svg>
