<svg width="477" height="494" fill="none" xmlns="http://www.w3.org/2000/svg"><path d="M224.641 112.355a139.009 139.009 0 0 1 58.827 4.366 138.9919 138.9919 0 0 1 51.718 28.37 139.0035 139.0035 0 0 1 35.297 47.263A139.0129 139.0129 0 0 1 383 250" stroke="url(#a)" stroke-width="10"/><g opacity=".5" filter="url(#b)"><path d="M383 250c0 18.254-3.595 36.329-10.581 53.193a138.9976 138.9976 0 0 1-30.131 45.095 139.0082 139.0082 0 0 1-45.095 30.131A138.9871 138.9871 0 0 1 244 389c-18.254 0-36.329-3.595-53.193-10.581a138.9976 138.9976 0 0 1-45.095-30.131 139.0082 139.0082 0 0 1-30.131-45.095A138.9871 138.9871 0 0 1 105 250c0-18.254 3.595-36.329 10.581-53.193a138.9976 138.9976 0 0 1 30.131-45.095 139.0082 139.0082 0 0 1 45.095-30.131A138.9871 138.9871 0 0 1 244 111c18.254 0 36.329 3.595 53.193 10.581a138.9976 138.9976 0 0 1 45.095 30.131 139.0082 139.0082 0 0 1 30.131 45.095A138.9871 138.9871 0 0 1 383 250Z" stroke="url(#c)" stroke-width="10"/></g><path d="M408.504 260.913c-1.878 21.408-5.54 30.353-11.406 44.682-1.207 2.947-2.506 6.121-3.902 9.678-8.123 20.692-20.026 39.489-35.027 55.318-15 15.828-32.804 28.38-52.393 36.942C286.188 416.095 265.197 420.5 244 420.5c-21.197 0-42.189-4.405-61.777-12.967-19.588-8.562-37.392-21.114-52.393-36.942-15.001-15.829-26.904-34.626-35.0265-55.318-8.1224-20.692-12.3039-42.872-12.3039-65.273 0-11.191 1.0434-18.391 3.0831-25.363 1.4688-5.02 3.4489-9.915 5.9586-16.119 1.0025-2.478 2.0895-5.165 3.2622-8.153 1.0266-2.615 2.111-5.441 3.2523-8.415 3.4132-8.896 7.3372-19.121 11.7502-29.014 5.895-13.216 12.604-25.697 20.024-33.527 15.001-15.828 32.805-28.38 52.393-36.9418C201.811 83.9055 222.803 79.5 244 79.5c21.197 0 42.188 4.4055 61.776 12.9672 19.589 8.5618 37.393 21.1138 52.393 36.9418 15.001 15.829 26.904 34.626 35.027 55.318 8.168 20.808 17.785 47.942 15.308 76.186Z" stroke="#FFCCD0" stroke-opacity=".2" stroke-width="2"/><path d="M335.903 384.697c-17.931 13.301-33.88 18.186-55.442 24.019-21.458 5.804-43.645 7.442-65.296 4.824-21.65-2.617-42.338-9.439-60.884-20.07-18.547-10.632-34.591-24.867-47.22-41.891-12.6281-17.024-21.596-36.509-26.3897-57.342-4.7938-20.833-5.32-42.61-1.5439-64.088 3.7762-21.479 11.7807-42.237 23.5606-61.088 11.78-18.852 27.103-35.424 45.094-48.77 8.005-5.939 12.207-13.493 16.071-20.4408.604-1.0852 1.199-2.1556 1.8-3.2027 4.457-7.7748 9.213-14.3705 19.608-17.1822 5.207-1.4083 11.701-1.352 18.929-.3851 7.213.9651 15.072 2.8248 22.974 4.9589 4.583 1.2378 9.142 2.557 13.593 3.845 3.248.9397 6.439 1.8628 9.539 2.7257 7.305 2.0329 14.056 3.7147 19.583 4.3829 5.475.6619 11.07 1.0528 16.65 1.4335l.576.0393c5.395.3678 10.773.7344 16.057 1.3346 10.948 1.2434 21.398 3.4809 30.556 8.7299 4.719 2.705 9.805 4.988 14.978 7.231.804.349 1.611.697 2.418 1.045 4.4 1.898 8.834 3.811 13.188 5.987 10.288 5.142 20.023 11.703 27.364 22.76 10.96 16.508 11.954 29.689 13.373 48.515.146 1.941.297 3.942.463 6.012 2.187 27.159-1.196 56.678-4.988 78.247-.375 2.132-.754 4.352-1.146 6.639-1.596 9.332-3.386 19.793-5.824 30.046-3.037 12.773-7.057 25.119-12.893 34.458-5.833 9.335-12.453 15.265-19.889 20.541-3.199 2.271-6.541 4.414-10.047 6.664-.582.373-1.168.749-1.759 1.129-4.145 2.666-8.502 5.517-13.053 8.893Z" stroke="#FFCCD0" stroke-opacity=".2" stroke-width="2"/><path d="M172.625 130.725a139.0217 139.0217 0 0 1 41.797-16.542" stroke="#5891E6" stroke-width="10"/><path d="M105.868 234.484a139.0074 139.0074 0 0 1 18.652-55.517 139.0095 139.0095 0 0 1 39.863-42.907" stroke="#A554DA" stroke-width="10"/><path d="M382.622 260.24c-2.618 35.434-18.705 68.52-44.957 92.462-26.252 23.942-60.675 36.923-96.2 36.275" stroke="#64EAF0" stroke-width="10"/><defs><filter id="b" x="0" y="6" width="488" height="488" filterUnits="userSpaceOnUse" color-interpolation-filters="sRGB"><feFlood flood-opacity="0" result="BackgroundImageFix"/><feBlend in="SourceGraphic" in2="BackgroundImageFix" result="shape"/><feGaussianBlur stdDeviation="50" result="effect1_foregroundBlur_123:297"/></filter><linearGradient id="a" x1="107.579" y1="144.118" x2="398.562" y2="157.091" gradientUnits="userSpaceOnUse"><stop stop-color="#E70077"/><stop offset=".974" stop-color="#FC8F0C"/></linearGradient><linearGradient id="c" x1="244" y1="106" x2="244" y2="394" gradientUnits="userSpaceOnUse"><stop stop-color="#1F87EF"/><stop offset="1" stop-color="#D614A8"/></linearGradient></defs></svg>