<svg width="47" height="46" viewBox="0 0 47 46" fill="none" xmlns="http://www.w3.org/2000/svg">
<rect x="3.33203" y="3" width="40" height="40" rx="20" fill="#D1E0FF"/>
<path d="M20.8333 31.3337H25.8333C30 31.3337 31.6667 29.667 31.6667 25.5003V20.5003C31.6667 16.3337 30 14.667 25.8333 14.667H20.8333C16.6667 14.667 15 16.3337 15 20.5003V25.5003C15 29.667 16.6667 31.3337 20.8333 31.3337Z" stroke="#0075FF" stroke-width="1.5" stroke-linecap="round" stroke-linejoin="round"/>
<path d="M26.3086 28.417V25.167" stroke="#0075FF" stroke-width="1.5" stroke-miterlimit="10" stroke-linecap="round" stroke-linejoin="round"/>
<path d="M26.3086 19.208V17.583" stroke="#0075FF" stroke-width="1.5" stroke-miterlimit="10" stroke-linecap="round" stroke-linejoin="round"/>
<path d="M26.3073 23.5413C27.5039 23.5413 28.474 22.5713 28.474 21.3747C28.474 20.1781 27.5039 19.208 26.3073 19.208C25.1107 19.208 24.1406 20.1781 24.1406 21.3747C24.1406 22.5713 25.1107 23.5413 26.3073 23.5413Z" stroke="#0075FF" stroke-width="1.5" stroke-miterlimit="10" stroke-linecap="round" stroke-linejoin="round"/>
<path d="M20.3555 28.417V26.792" stroke="#0075FF" stroke-width="1.5" stroke-miterlimit="10" stroke-linecap="round" stroke-linejoin="round"/>
<path d="M20.3555 20.833V17.583" stroke="#0075FF" stroke-width="1.5" stroke-miterlimit="10" stroke-linecap="round" stroke-linejoin="round"/>
<path d="M20.3581 26.7913C21.5547 26.7913 22.5247 25.8213 22.5247 24.6247C22.5247 23.4281 21.5547 22.458 20.3581 22.458C19.1615 22.458 18.1914 23.4281 18.1914 24.6247C18.1914 25.8213 19.1615 26.7913 20.3581 26.7913Z" stroke="#0075FF" stroke-width="1.5" stroke-miterlimit="10" stroke-linecap="round" stroke-linejoin="round"/>
<rect x="3.33203" y="3" width="40" height="40" rx="20" stroke="#EFF4FF" stroke-width="6"/>
</svg>
