<svg width="47" height="46" viewBox="0 0 47 46" fill="none" xmlns="http://www.w3.org/2000/svg">
<rect x="3.66797" y="3" width="40" height="40" rx="20" fill="#D1E0FF"/>
<path d="M15.3359 20.083H24.5026" stroke="#0075FF" stroke-width="1.5" stroke-miterlimit="10" stroke-linecap="round" stroke-linejoin="round"/>
<path d="M18.668 26.75H20.3346" stroke="#0075FF" stroke-width="1.5" stroke-miterlimit="10" stroke-linecap="round" stroke-linejoin="round"/>
<path d="M22.418 26.75H25.7513" stroke="#0075FF" stroke-width="1.5" stroke-miterlimit="10" stroke-linecap="round" stroke-linejoin="round"/>
<path d="M32.0026 22.442V26.4253C32.0026 29.3503 31.2609 30.0837 28.3026 30.0837H19.0359C16.0776 30.0837 15.3359 29.3503 15.3359 26.4253V19.5753C15.3359 16.6503 16.0776 15.917 19.0359 15.917H24.7359" stroke="#0075FF" stroke-width="1.5" stroke-linecap="round" stroke-linejoin="round"/>
<path d="M27.832 15.709H30.4404C31.0154 15.709 31.482 16.234 31.482 16.7507C31.482 17.3257 31.0154 17.7923 30.4404 17.7923H27.832V15.709Z" stroke="#0075FF" stroke-width="1.5" stroke-miterlimit="10" stroke-linecap="round" stroke-linejoin="round"/>
<path d="M27.832 17.792H30.807C31.4654 17.792 31.9987 18.2587 31.9987 18.8337C31.9987 19.4087 31.4654 19.8753 30.807 19.8753H27.832V17.792Z" stroke="#0075FF" stroke-width="1.5" stroke-miterlimit="10" stroke-linecap="round" stroke-linejoin="round"/>
<path d="M29.3008 19.875V20.9167" stroke="#0075FF" stroke-width="1.5" stroke-miterlimit="10" stroke-linecap="round" stroke-linejoin="round"/>
<path d="M29.3008 14.667V15.7087" stroke="#0075FF" stroke-width="1.5" stroke-miterlimit="10" stroke-linecap="round" stroke-linejoin="round"/>
<path d="M28.825 15.709H27" stroke="#0075FF" stroke-width="1.5" stroke-miterlimit="10" stroke-linecap="round" stroke-linejoin="round"/>
<path d="M28.825 19.875H27" stroke="#0075FF" stroke-width="1.5" stroke-miterlimit="10" stroke-linecap="round" stroke-linejoin="round"/>
<rect x="3.66797" y="3" width="40" height="40" rx="20" stroke="#EFF4FF" stroke-width="6"/>
</svg>
