<svg width="49" height="48" fill="none" xmlns="http://www.w3.org/2000/svg"><rect x=".72" width="48" height="48" rx="24" fill="#F6F9FD"/><path opacity=".4" d="M33.22 22.19h-2.9a4.3 4.3 0 0 1-4.3-4.3V15a1 1 0 0 0-1-1H20.8c-3.08 0-5.57 2-5.57 5.57v8.86C15.22 32 17.7 34 20.79 34h7.86c3.08 0 5.57-2 5.57-5.57v-5.24a1 1 0 0 0-1-1Z" fill="#38F"/><path d="M28.52 14.21c-.41-.41-1.12-.13-1.12.44v3.49a2.73 2.73 0 0 0 2.75 2.67l3.4.01c.57 0 .87-.67.47-1.07l-5.5-5.54ZM24.25 24.47l-2-2-.02-.02a.86.86 0 0 0-.22-.15h-.02c-.08-.03-.16-.04-.24-.05h-.08a.65.65 0 0 0-.26.07.66.66 0 0 0-.22.15l-2 2a.75.75 0 0 0 0 1.06c.29.29.77.29 1.06 0l.72-.72V29c0 .41.34.75.75.75.4 0 .75-.34.75-.75v-4.19l.72.72c.15.15.34.22.53.22s.38-.07.53-.22a.75.75 0 0 0 0-1.06Z" fill="#38F"/></svg>