<svg width="49" height="48" fill="none" xmlns="http://www.w3.org/2000/svg"><rect x=".72" width="48" height="48" rx="24" fill="#F6F9FD"/><path opacity=".4" d="M28.9 14h-8.37c-3.64 0-5.81 2.17-5.81 5.81v8.37c0 3.65 2.17 5.82 5.8 5.82h8.38c3.64 0 5.8-2.17 5.8-5.81v-8.38c.02-3.64-2.15-5.81-5.8-5.81Z" fill="#38F"/><path d="M28.6 20.11a3.8 3.8 0 0 0-6.28 3.8l-2.35 2.35a1 1 0 0 0-.24.74l.15 1.09c.05.36.39.7.75.75l1.09.16c.24.03.57-.07.74-.25l.4-.41c.1-.09.1-.25 0-.35l-.96-.97a.39.39 0 0 1 0-.53.39.39 0 0 1 .53 0l.97.97c.09.09.25.09.35 0l1.06-1.05a3.8 3.8 0 0 0 3.8-.93 3.8 3.8 0 0 0 0-5.37ZM25.98 24a1.25 1.25 0 1 1 0-2.5 1.25 1.25 0 0 1 0 2.5Z" fill="#38F"/></svg>