<svg width="49" height="48" fill="none" xmlns="http://www.w3.org/2000/svg"><rect x=".72" width="48" height="48" rx="24" fill="#F6F9FD"/><path d="M30.99 15.35c-.47-.07-1.01-.1-1.77-.1h-9c-.75 0-1.3.03-1.74.09-3.35.37-4.01 2.36-4.01 5.66v6c0 3.3.66 5.29 3.98 5.65.47.07 1 .1 1.77.1h9c.75 0 1.3-.03 1.74-.09 3.35-.37 4-2.35 4-5.66v-6c0-3.3-.65-5.29-3.97-5.65Z" fill="#38F"/><path d="M29.72 22.75h-3.5a.76.76 0 0 1-.75-.75c0-.41.34-.75.75-.75h3.5c.4 0 .75.34.75.75s-.34.75-.75.75ZM22.82 23a1 1 0 0 1-1-1 1 1 0 0 1 1-1 1 1 0 0 1 1 1 1 1 0 0 1-1 1ZM19.82 23a1 1 0 0 1-1-1 1 1 0 0 1 1-1 1 1 0 0 1 1 1 1 1 0 0 1-1 1ZM29.72 28.25h-9.98a.76.76 0 0 1-.76-.75c0-.41.33-.75.74-.75h10c.4 0 .75.34.75.75s-.34.75-.75.75Z" fill="#F6F9FD"/></svg>