<svg width="281" height="318" fill="none" xmlns="http://www.w3.org/2000/svg"><g style="mix-blend-mode:soft-light" opacity=".3" stroke="#fff"><path d="M-28 366.5c15.17-15.83 57.5-47.2 105.5-46 60 1.5 75.5 27 124.5 28 39.2.8 77.67-34.67 92-52.5"/><path d="M-28 353.5c15.17-15.83 57.5-47.2 105.5-46 60 1.5 75.5 27 124.5 28 39.2.8 77.67-34.67 92-52.5"/><path d="M-28 340.5c15.17-15.83 57.5-47.2 105.5-46 60 1.5 75.5 27 124.5 28 39.2.8 77.67-34.67 92-52.5"/><path d="M-28 327.5c15.17-15.83 57.5-47.2 105.5-46 60 1.5 75.5 27 124.5 28 39.2.8 77.67-34.67 92-52.5"/><path d="M-28 314.5c15.17-15.83 57.5-47.2 105.5-46 60 1.5 75.5 27 124.5 28 39.2.8 77.67-34.67 92-52.5"/><path d="M-28 301.5c15.17-15.83 57.5-47.2 105.5-46 60 1.5 75.5 27 124.5 28 39.2.8 77.67-34.67 92-52.5"/><path d="M-28 288.5c15.17-15.83 57.5-47.2 105.5-46 60 1.5 75.5 27 124.5 28 39.2.8 77.67-34.67 92-52.5"/><path d="M-28 275.5c15.17-15.83 57.5-47.2 105.5-46 60 1.5 75.5 27 124.5 28 39.2.8 77.67-34.67 92-52.5"/><path d="M-28 262.5c15.17-15.83 57.5-47.2 105.5-46 60 1.5 75.5 27 124.5 28 39.2.8 77.67-34.67 92-52.5"/><path d="M-28 249.5c15.17-15.83 57.5-47.2 105.5-46 60 1.5 75.5 27 124.5 28 39.2.8 77.67-34.67 92-52.5"/><path d="M-28 236.5c15.17-15.83 57.5-47.2 105.5-46 60 1.5 75.5 27 124.5 28 39.2.8 77.67-34.67 92-52.5"/><path d="M-28 223.5c15.17-15.83 57.5-47.2 105.5-46 60 1.5 75.5 27 124.5 28 39.2.8 77.67-34.67 92-52.5"/><path d="M-28 210.5c15.17-15.83 57.5-47.2 105.5-46 60 1.5 75.5 27 124.5 28 39.2.8 77.67-34.67 92-52.5"/><path d="M-28 197.5c15.17-15.83 57.5-47.2 105.5-46 60 1.5 75.5 27 124.5 28 39.2.8 77.67-34.67 92-52.5"/><path d="M-28 184.5c15.17-15.83 57.5-47.2 105.5-46 60 1.5 75.5 27 124.5 28 39.2.8 77.67-34.67 92-52.5"/><path d="M-28 171.5c15.17-15.83 57.5-47.2 105.5-46 60 1.5 75.5 27 124.5 28 39.2.8 77.67-34.67 92-52.5"/><path d="M-28 158.5c15.17-15.83 57.5-47.2 105.5-46 60 1.5 75.5 27 124.5 28 39.2.8 77.67-34.67 92-52.5"/><path d="M-28 145.5c15.17-15.83 57.5-47.2 105.5-46 60 1.5 75.5 27 124.5 28 39.2.8 77.67-34.67 92-52.5"/><path d="M-28 132.5c15.17-15.83 57.5-47.2 105.5-46 60 1.5 75.5 27 124.5 28 39.2.8 77.67-34.67 92-52.5"/><path d="M-28 119.5c15.17-15.83 57.5-47.2 105.5-46 60 1.5 75.5 27 124.5 28 39.2.8 77.67-34.67 92-52.5"/><path d="M-28 106.5c15.17-15.83 57.5-47.2 105.5-46 60 1.5 75.5 27 124.5 28 39.2.8 77.67-34.67 92-52.5"/><path d="M-28 93.5c15.17-15.83 57.5-47.2 105.5-46 60 1.5 75.5 27 124.5 28 39.2.8 77.67-34.67 92-52.5"/><path d="M-28 80.5c15.17-15.83 57.5-47.2 105.5-46 60 1.5 75.5 27 124.5 28 39.2.8 77.67-34.67 92-52.5"/><path d="M-28 67.5c15.17-15.83 57.5-47.2 105.5-46 60 1.5 75.5 27 124.5 28 39.2.8 77.67-34.67 92-52.5"/><path d="M-28 54.5c15.17-15.83 57.5-47.2 105.5-46 60 1.5 75.5 27 124.5 28 39.2.8 77.67-34.67 92-52.5"/><path d="M-28 41.5c15.17-15.83 57.5-47.2 105.5-46 60 1.5 75.5 27 124.5 28 39.2.8 77.67-34.67 92-52.5"/><path d="M-28 28.5c15.17-15.83 57.5-47.2 105.5-46 60 1.5 75.5 27 124.5 28 39.2.8 77.67-34.67 92-52.5"/><path d="M-28 15.5c15.17-15.83 57.5-47.2 105.5-46 60 1.5 75.5 27 124.5 28 39.2.8 77.67-34.67 92-52.5"/><path d="M-28 2.5c15.17-15.83 57.5-47.2 105.5-46 60 1.5 75.5 27 124.5 28 39.2.8 77.67-34.67 92-52.5"/></g></svg>