<svg width="57" height="66" fill="none" xmlns="http://www.w3.org/2000/svg"><path d="M37.8841 0H1.7689C1.0684.0008.5008.5689.5 1.2698v48.8406c.0008.701.5684 1.269 1.269 1.2698H37.884c.7005-.0008 1.2681-.5688 1.2689-1.2698V1.2698C39.1522.5688 38.5846.0008 37.8841 0Z" fill="#ECEEF2"/><path d="M2.7906 1.4145c-.4914.0083-.8834.4093-.8764.8967v46.2873c-.007.4873.385.8884.8764.8966h34.0717c.4914-.0082.8834-.4093.8764-.8966V2.3112c.007-.4874-.385-.8884-.8764-.8966H2.7906Z" fill="#fff"/><path d="M4.8582 3.7709c-.3236 0-.5867.29-.5867.6464v6.2492c0 .3564.2632.6464.5867.6464h30.409c.3235 0 .5866-.29.5866-.6464V4.4173c0-.3564-.2631-.6464-.5866-.6464H4.8582ZM4.8582 14.6127c-.3285.0051-.5909.2786-.5867.6115v13.8611c-.0042.3328.2582.6063.5867.6115h30.4089c.3285-.0052.5909-.2787.5867-.6115V15.2242c.0042-.3329-.2582-.6064-.5867-.6115H4.8582Z" fill="#ECEEF2"/><path fill="#fff" d="M8.041 5.1854h24.0403v1.4141H8.041zM8.041 7.9194h24.0403v.4714H8.041zM8.041 9.4282h24.0403v.4714H8.041zM22.1079 29.6972H33.141c.1437 0 .2732-.0886.3281-.2244a.3698.3698 0 0 0-.0769-.3961l-7.0614-7.2263a.3498.3498 0 0 0-.5022 0l-1.756 1.797a.7363.7363 0 0 1-.5267.2233.7364.7364 0 0 1-.5268-.2233l-5.4999-5.6284a.35.35 0 0 0-.5024 0L6.2602 29.0269a.3696.3696 0 0 0-.0769.396c.055.1358.1845.2244.3281.2244h15.6107l-.0142.0499Z"/><circle cx="8.9864" cy="17.9123" r="1.4141" fill="#fff"/><path d="M4.8582 32.5254c-.3285.0051-.5909.2787-.5867.6115V46.998c-.0042.3328.2582.6064.5867.6115h30.4089c.3285-.0051.5909-.2787.5867-.6115V33.1369c.0042-.3328-.2582-.6064-.5867-.6115H4.8582Z" fill="#ECEEF2"/><path d="M22.1079 47.6089H33.141c.1437 0 .2732-.0886.3281-.2244a.3698.3698 0 0 0-.0769-.3961l-7.0614-7.2263a.35.35 0 0 0-.5022 0l-1.756 1.797a.7365.7365 0 0 1-.5268.2234.736.736 0 0 1-.5267-.2234l-5.4999-5.6284a.3502.3502 0 0 0-.5024 0L6.2602 46.9385a.3698.3698 0 0 0-.0769.3961c.055.1359.1845.2244.3281.2245h15.6107l-.0142.0498Z" fill="#fff"/><circle cx="8.9864" cy="35.825" r="1.4141" fill="#fff"/><path d="M14.5958 11.3126c-.4949.0006-.896.3999-.8966.8927v49.5948c.0006.4928.4017.8922.8966.8927h36.8598c.495-.0005.8961-.3999.8966-.8927V12.2053c-.0005-.4928-.4016-.8921-.8966-.8927H14.5958Z" fill="#ECEEF2"/><path d="M15.9898 12.7273c-.4914.0083-.8834.4133-.8764.9054v46.7412c-.007.4921.385.897.8764.9054h34.0717c.4914-.0084.8834-.4133.8764-.9054V13.6327c.007-.4921-.385-.8971-.8764-.9054H15.9898Z" fill="#fff"/><path d="M20.6929 19.3263c-.2175.0002-.3938.1602-.3941.3577v1.6415c.0003.1975.1766.3575.3941.3577H43.945c.2176-.0002.3939-.1602.3941-.3577V19.684c-.0002-.1975-.1765-.3575-.3941-.3577H20.6929Z" fill="#0075FF"/><path d="M20.8669 25.4545c-.0537 0-.0973.046-.0974.1028v.7371c.0001.0567.0437.1028.0974.1028h23.3742c.0537 0 .0973-.046.0973-.1028v-.7371c0-.0568-.0436-.1028-.0973-.1028H20.8669ZM20.8669 27.8118c-.0537 0-.0973.046-.0974.1028v.7371c.0001.0567.0437.1028.0974.1028h23.3742c.0537 0 .0973-.046.0973-.1028v-.7371c0-.0568-.0436-.1028-.0973-.1028H20.8669ZM20.8669 30.1681c-.0537.0001-.0973.0461-.0974.1028v.7371c.0001.0568.0437.1028.0974.1028h23.3742c.0537 0 .0973-.046.0973-.1028v-.7371c0-.0567-.0436-.1028-.0973-.1028H20.8669ZM20.8669 34.4109c-.0537.0001-.0973.0461-.0974.1028v.7371c.0001.0568.0437.1028.0974.1028h23.3742c.0537 0 .0973-.046.0973-.1028v-.7371c0-.0567-.0436-.1028-.0973-.1028H20.8669ZM20.8669 36.7672c-.0537.0001-.0973.0461-.0974.1029v.737c.0001.0568.0437.1028.0974.1029h23.3742c.0537-.0001.0973-.0461.0973-.1029v-.737c0-.0568-.0436-.1028-.0973-.1029H20.8669ZM20.8669 39.1245c-.0537.0001-.0973.0461-.0974.1029v.737c.0001.0568.0437.1028.0974.1029h23.3742c.0537-.0001.0973-.0461.0973-.1029v-.737c0-.0568-.0436-.1029-.0973-.1029H20.8669ZM20.8669 41.4808c-.0537.0001-.0973.0461-.0974.1029v.737c.0001.0568.0437.1028.0974.1029h23.3742c.0537 0 .0973-.0461.0973-.1029v-.737c0-.0568-.0436-.1028-.0973-.1029H20.8669ZM20.8669 43.8381c-.0537.0001-.0973.0461-.0974.1029v.737c.0001.0568.0437.1028.0974.1029h23.3742c.0537 0 .0973-.0461.0973-.1029v-.737c0-.0568-.0436-.1028-.0973-.1029H20.8669ZM20.8669 46.1953c-.0537.0001-.0973.0461-.0974.1029v.737c.0001.0568.0437.1028.0974.1029h23.3742c.0537-.0001.0973-.0461.0973-.1029v-.737c0-.0568-.0436-.1028-.0973-.1029H20.8669ZM20.8669 48.5516c-.0537.0001-.0973.0461-.0974.1029v.737c.0001.0568.0437.1028.0974.1029h23.3742c.0537 0 .0973-.0461.0973-.1029v-.737c0-.0568-.0436-.1028-.0973-.1029H20.8669ZM20.8669 50.9089c-.0537.0001-.0973.0461-.0974.1029v.737c.0001.0568.0437.1028.0974.1029h23.3742c.0537 0 .0973-.0461.0973-.1029v-.737c0-.0568-.0436-.1028-.0973-.1029H20.8669ZM20.8669 53.2662c-.0537.0001-.0973.0461-.0974.1029v.737c.0001.0568.0437.1028.0974.1029h23.3742c.0537 0 .0973-.0461.0973-.1029v-.737c0-.0568-.0436-.1028-.0973-.1029H20.8669Z" fill="#ECEEF2"/><circle cx="49.7117" cy="58.8279" r="6.7878" fill="#0075FF"/><path d="m48.2349 61.8448-2.4829-2.7691 1.4438-.9743 1.1757 1.3112 4.0907-3.79 1.2089 1.2448-5.4362 4.9774Z" fill="#fff"/></svg>