<?xml version="1.0" standalone="no"?>
<!DOCTYPE svg PUBLIC "-//W3C//DTD SVG 20010904//EN"
 "http://www.w3.org/TR/2001/REC-SVG-20010904/DTD/svg10.dtd">
<svg version="1.0" xmlns="http://www.w3.org/2000/svg"
 width="690.000000pt" height="690.000000pt" viewBox="0 0 690.000000 690.000000"
 preserveAspectRatio="xMidYMid meet">
<metadata>
Created by potrace 1.14, written by Peter Selinger 2001-2017
</metadata>
<g transform="translate(0.000000,690.000000) scale(0.100000,-0.100000)"
fill="#000000" stroke="none">
<path d="M1923 6878 c-17 -13 -37 -35 -45 -51 -27 -57 -103 -202 -108 -207 -3
-3 -20 -34 -38 -70 -18 -36 -63 -123 -100 -195 -38 -71 -104 -197 -147 -280
-75 -144 -101 -193 -195 -370 -24 -44 -59 -111 -79 -150 -20 -38 -39 -72 -44
-73 -4 -2 -5 -7 -2 -12 3 -5 0 -14 -7 -22 -7 -7 -31 -50 -53 -95 -22 -46 -43
-83 -47 -83 -5 0 -8 -8 -8 -18 0 -10 -4 -22 -9 -28 -5 -5 -46 -81 -91 -169
-45 -88 -85 -163 -89 -167 -3 -4 -39 13 -79 38 -40 24 -75 44 -78 44 -3 0 -10
5 -17 10 -32 27 -204 132 -213 130 -4 -1 -10 3 -13 8 -3 5 -29 23 -57 41 -71
43 -118 42 -170 -3 l-39 -34 2 -188 c1 -104 5 -243 7 -309 7 -159 15 -387 22
-593 3 -92 7 -219 9 -282 2 -63 7 -187 10 -275 3 -88 7 -216 10 -285 3 -69 7
-204 11 -300 3 -96 7 -218 9 -270 2 -52 6 -176 10 -275 3 -99 7 -236 10 -305
7 -173 16 -441 20 -590 2 -69 4 -125 5 -125 1 0 3 -54 5 -120 2 -66 6 -196 10
-290 3 -93 8 -235 10 -315 6 -171 13 -289 19 -310 8 -34 31 -80 38 -80 4 0 8
-5 8 -11 0 -18 60 -72 106 -96 60 -31 95 -34 467 -37 186 -2 340 -6 343 -8 3
-3 20 -2 39 2 19 4 36 6 38 3 3 -2 202 -6 443 -9 434 -4 657 -7 1669 -19 286
-4 610 -8 720 -9 110 -1 205 -5 212 -9 6 -4 14 -4 17 1 4 7 129 8 161 2 6 -1
12 -2 15 0 12 4 80 5 80 0 0 -3 163 -6 363 -7 199 -1 594 -3 877 -5 l515 -3
45 23 c79 40 120 86 154 172 19 48 18 -2 16 1251 l0 316 -106 149 c-59 82
-112 152 -118 156 -6 5 -7 8 -1 8 6 0 6 3 0 8 -6 4 -22 23 -35 42 -14 19 -32
44 -42 54 -10 11 -18 26 -18 33 0 7 -9 18 -20 25 -11 7 -20 17 -20 22 0 11
-80 120 -92 124 -4 2 -8 8 -8 13 0 10 -34 60 -62 93 -10 11 -20 28 -24 38 -3
10 -10 18 -15 18 -5 0 -13 8 -17 18 -7 18 -19 36 -87 126 -22 30 -47 64 -55
77 -8 12 -30 42 -47 66 -18 24 -33 47 -33 52 0 5 -4 11 -8 13 -8 3 -35 39
-134 183 -23 33 -45 62 -50 63 -4 2 -8 10 -8 17 0 7 -4 15 -8 17 -4 2 -82 107
-172 233 -90 127 -168 232 -172 233 -4 2 -8 8 -8 13 0 11 -81 122 -92 127 -5
2 -8 9 -8 16 0 7 -8 21 -18 32 -10 11 -35 44 -56 74 -20 30 -46 66 -57 80 -25
32 -149 204 -169 235 -8 13 -132 186 -275 385 -143 198 -264 369 -270 378 -5
9 -13 19 -16 22 -5 5 -25 32 -206 288 l-87 123 -41 -5 c-22 -4 -49 -8 -60 -10
-122 -26 -176 -36 -205 -41 -19 -3 -55 -11 -80 -16 -25 -6 -57 -12 -72 -14
-15 -2 -35 -6 -45 -9 -10 -3 -31 -8 -48 -10 -16 -3 -43 -8 -59 -12 -31 -7 -51
11 -156 136 -25 29 -54 62 -65 74 -11 12 -47 53 -80 91 -33 39 -64 75 -70 81
-5 6 -35 40 -65 74 -30 35 -75 86 -100 114 -24 28 -51 59 -60 69 -8 10 -24 29
-35 41 -34 39 -77 88 -145 166 -36 41 -69 80 -75 86 -5 7 -30 35 -55 64 -25
28 -58 66 -75 84 -16 18 -46 53 -66 77 -20 24 -47 56 -60 70 -13 14 -46 52
-74 83 -27 32 -61 70 -75 86 -14 15 -45 51 -70 80 -73 84 -88 100 -100 100 -5
0 -10 4 -10 8 0 19 -76 12 -107 -10z"/>
</g>
</svg>
