<svg width="158" height="48" viewBox="0 0 158 48" fill="none" xmlns="http://www.w3.org/2000/svg">
<rect width="158" height="48" rx="6" fill="white"/>
<g clip-path="url(#clip0_4386_75325)">
<path d="M36.0006 35.7548C42.4922 35.7548 47.7547 30.4923 47.7547 24.0007C47.7547 17.5091 42.4922 12.2466 36.0006 12.2466C29.5089 12.2466 24.2465 17.5091 24.2465 24.0007C24.2465 30.4923 29.5089 35.7548 36.0006 35.7548Z" fill="#005FF7"/>
<path d="M36.0006 12.493C38.2766 12.493 40.5015 13.1679 42.3939 14.4324C44.2863 15.6969 45.7613 17.4941 46.6322 19.5969C47.5032 21.6996 47.7311 24.0134 47.2871 26.2456C46.8431 28.4779 45.7471 30.5283 44.1377 32.1377C42.5283 33.7471 40.4779 34.8431 38.2456 35.2871C36.0134 35.7311 33.6996 35.5032 31.5969 34.6322C29.4941 33.7612 27.6969 32.2863 26.4324 30.3939C25.168 28.5015 24.493 26.2766 24.493 24.0006C24.493 20.9486 25.7054 18.0216 27.8635 15.8635C30.0216 13.7054 32.9486 12.493 36.0006 12.493ZM36.0006 12C33.6271 12 31.3069 12.7038 29.3334 14.0225C27.3599 15.3411 25.8218 17.2154 24.9135 19.4082C24.0052 21.601 23.7675 24.0139 24.2306 26.3418C24.6936 28.6697 25.8366 30.808 27.5149 32.4863C29.1932 34.1646 31.3315 35.3076 33.6594 35.7706C35.9873 36.2337 38.4002 35.996 40.5931 35.0877C42.7859 34.1794 44.6601 32.6413 45.9788 30.6678C47.2974 28.6943 48.0012 26.3741 48.0012 24.0006C47.9973 20.8191 46.7317 17.7689 44.482 15.5192C42.2323 13.2695 39.1822 12.0039 36.0006 12Z" fill="white"/>
<path d="M43.3962 30.7987L43.7549 30.3857L44.476 31.0107L44.1185 31.4236L43.9953 31.3151L44.2221 31.0538L44.0631 30.917L43.8523 31.1635L43.729 31.055L43.9386 30.8085L43.7525 30.6471L43.5269 30.9084L43.3962 30.7987Z" fill="white"/>
<path d="M43.5575 31.6981C43.5041 31.7575 43.4318 31.7966 43.3529 31.809C43.3166 31.8107 43.2804 31.804 43.247 31.7894C43.2137 31.7749 43.1841 31.7529 43.1606 31.7252L42.8204 31.3776L42.919 31.2802L43.0152 31.3246C43.0121 31.2947 43.0121 31.2645 43.0152 31.2346C43.019 31.2068 43.0282 31.18 43.0423 31.1557C43.0608 31.1265 43.0828 31.0996 43.1076 31.0756C43.1359 31.0476 43.17 31.0261 43.2075 31.0127C43.2436 31.0016 43.2823 31.0016 43.3184 31.0127C43.361 31.0272 43.3991 31.0522 43.4293 31.0855C43.4544 31.1076 43.4733 31.1357 43.4843 31.1672C43.4953 31.1987 43.498 31.2325 43.4922 31.2654C43.4687 31.347 43.4236 31.4207 43.3615 31.4787L43.274 31.5699L43.2962 31.5933C43.3063 31.6049 43.3185 31.6144 43.3323 31.6211C43.346 31.6279 43.361 31.6319 43.3763 31.6327C43.4066 31.6298 43.4347 31.6157 43.4552 31.5933C43.4799 31.5684 43.5011 31.5402 43.5181 31.5095C43.5355 31.4781 43.5507 31.4456 43.5637 31.4121L43.7042 31.4614C43.6904 31.5049 43.6709 31.5463 43.6463 31.5847C43.6213 31.6259 43.5915 31.664 43.5575 31.6981ZM43.1976 31.4811L43.2506 31.4257C43.287 31.3935 43.3118 31.3501 43.3209 31.3024C43.3227 31.2865 43.3208 31.2704 43.3152 31.2554C43.3097 31.2404 43.3006 31.2269 43.2888 31.2161C43.2812 31.2066 43.2714 31.1991 43.2602 31.1942C43.2491 31.1892 43.2369 31.187 43.2247 31.1878C43.2002 31.1929 43.1779 31.2054 43.1606 31.2235C43.1321 31.2503 43.1145 31.2868 43.1113 31.3258C43.11 31.3459 43.1133 31.366 43.121 31.3846C43.1287 31.4032 43.1405 31.4198 43.1557 31.4331L43.1976 31.4811Z" fill="white"/>
<path d="M42.8069 32.369C42.7981 32.3769 42.7886 32.3839 42.7786 32.39C42.77 32.3968 42.7609 32.403 42.7514 32.4085L42.643 32.2556L42.6664 32.2421C42.675 32.2361 42.6833 32.2295 42.691 32.2224C42.7104 32.2068 42.7274 32.1885 42.7416 32.1681C42.7559 32.1482 42.766 32.1256 42.7712 32.1016C42.7767 32.0776 42.7767 32.0528 42.7712 32.0288C42.7621 32.0001 42.747 31.9736 42.7268 31.9512L42.4877 31.6677L42.6393 31.5444L43.1101 32.1028L42.9955 32.1989L42.8932 32.1238L42.8858 32.1312C42.8895 32.1598 42.8895 32.1888 42.8858 32.2174C42.8825 32.247 42.8742 32.2758 42.8611 32.3025C42.8483 32.3285 42.8297 32.3512 42.8069 32.369Z" fill="white"/>
<path d="M42.2375 32.7979C42.1838 32.8404 42.116 32.8611 42.0477 32.8559C42.0114 32.8486 41.977 32.8339 41.9467 32.8127C41.9164 32.7914 41.8908 32.7642 41.8715 32.7326L41.5941 32.3456L41.7556 32.2297L42.0021 32.5761C42.0242 32.6115 42.0564 32.6394 42.0946 32.6562C42.1107 32.6612 42.128 32.6621 42.1446 32.6586C42.1612 32.6552 42.1766 32.6476 42.1895 32.6365C42.2115 32.6249 42.2296 32.607 42.2412 32.585C42.2529 32.563 42.2576 32.538 42.2548 32.5132C42.2423 32.4528 42.2157 32.3962 42.1771 32.348L41.9775 32.0695L42.1377 31.9536L42.5629 32.5465L42.4397 32.6352L42.3633 32.5748L42.3546 32.581C42.3563 32.6095 42.3521 32.638 42.3423 32.6648C42.3325 32.6912 42.3183 32.7158 42.3004 32.7375C42.2821 32.7603 42.261 32.7806 42.2375 32.7979Z" fill="white"/>
<path d="M30.1975 32.1272L29.6219 32.8939L29.4617 32.7706L29.9362 32.142L29.6293 31.9078L29.7304 31.7734L30.1975 32.1272Z" fill="white"/>
<path d="M28.8637 32.0076C28.8174 31.9692 28.7818 31.9196 28.7602 31.8634C28.7409 31.8126 28.7375 31.7572 28.7503 31.7044C28.7669 31.6445 28.7978 31.5895 28.8403 31.5442L28.9044 31.4715L29.2544 31.7821C29.2876 31.7463 29.3057 31.699 29.305 31.6502C29.3031 31.6263 29.2963 31.603 29.285 31.5818C29.2738 31.5606 29.2584 31.5419 29.2397 31.5269C29.2078 31.4982 29.1726 31.4734 29.1349 31.453C29.0955 31.4336 29.0542 31.4183 29.0116 31.4074L29.1139 31.2915C29.1526 31.3021 29.1899 31.3174 29.2249 31.3371C29.2658 31.3616 29.3042 31.3901 29.3395 31.4222C29.3921 31.4651 29.4343 31.5195 29.4628 31.5812C29.486 31.6382 29.4915 31.7009 29.4788 31.7611C29.4615 31.8317 29.4258 31.8963 29.3752 31.9485C29.3284 32.0051 29.2689 32.0499 29.2014 32.0791C29.1462 32.1026 29.085 32.1082 29.0264 32.0952C28.9655 32.0807 28.9094 32.0505 28.8637 32.0076ZM28.9574 31.9004C28.9699 31.9129 28.985 31.9226 29.0016 31.9288C29.0182 31.9349 29.0359 31.9374 29.0535 31.9362C29.096 31.9309 29.135 31.9103 29.1632 31.8782L28.9562 31.6933C28.9378 31.7137 28.924 31.7376 28.9155 31.7636C28.9084 31.7869 28.9084 31.8118 28.9155 31.8351C28.9224 31.8606 28.9371 31.8834 28.9574 31.9004Z" fill="white"/>
<path d="M28.2277 31.3965C28.1683 31.3424 28.1299 31.269 28.1193 31.1894C28.1181 31.1531 28.1253 31.1171 28.1405 31.0841C28.1557 31.0512 28.1784 31.0222 28.2068 30.9996L28.5581 30.6631L28.653 30.7629L28.6086 30.8591C28.6385 30.8553 28.6687 30.8553 28.6986 30.8591C28.7261 30.8631 28.7526 30.8728 28.7762 30.8874C28.806 30.9057 28.8329 30.9281 28.8564 30.954C28.884 30.9823 28.9051 31.0164 28.918 31.0538C28.9291 31.09 28.9291 31.1286 28.918 31.1647C28.904 31.2078 28.8784 31.2462 28.844 31.2757C28.8218 31.3005 28.7936 31.3191 28.762 31.3296C28.7305 31.3402 28.6967 31.3424 28.6641 31.3361C28.5828 31.3109 28.5096 31.2645 28.4521 31.2017L28.3621 31.113L28.3387 31.1352C28.3266 31.1449 28.3168 31.1571 28.3098 31.1709C28.3027 31.1847 28.2987 31.1998 28.298 31.2153C28.3006 31.2454 28.3142 31.2735 28.3362 31.2942C28.3607 31.3192 28.3884 31.3408 28.4188 31.3583C28.45 31.3763 28.4826 31.392 28.5162 31.4051L28.4644 31.5456C28.421 31.5307 28.3795 31.5104 28.3411 31.4852C28.3002 31.4599 28.2621 31.4302 28.2277 31.3965ZM28.4496 31.039L28.5038 31.092C28.5337 31.1286 28.5749 31.1541 28.6209 31.1647C28.6369 31.1668 28.6531 31.165 28.6683 31.1597C28.6835 31.1543 28.6973 31.1455 28.7085 31.1339C28.718 31.1264 28.7256 31.1166 28.7306 31.1054C28.7355 31.0942 28.7376 31.082 28.7368 31.0698C28.7329 31.0455 28.7207 31.0234 28.7023 31.007C28.6762 30.9778 28.6402 30.9593 28.6012 30.9552C28.5812 30.9536 28.561 30.9566 28.5422 30.9638C28.5234 30.9711 28.5065 30.9825 28.4927 30.9971L28.4496 31.039Z" fill="white"/>
<path d="M27.5659 30.6353L27.545 30.607C27.5387 30.5983 27.533 30.5892 27.5277 30.5799L27.6818 30.4726C27.6851 30.4814 27.6897 30.4897 27.6953 30.4973C27.7009 30.5059 27.7071 30.5142 27.7138 30.5219C27.7294 30.5413 27.7477 30.5583 27.7681 30.5725C27.7878 30.5866 27.8099 30.5971 27.8334 30.6033C27.8577 30.6094 27.8831 30.6094 27.9073 30.6033C27.9358 30.5947 27.9622 30.5805 27.985 30.5614L28.271 30.3247L28.3942 30.4776L27.8297 30.9422L27.7348 30.8264L27.8112 30.7253V30.7179C27.7822 30.7222 27.7527 30.7222 27.7237 30.7179C27.694 30.7152 27.6652 30.7068 27.6386 30.6933C27.6103 30.6797 27.5855 30.6599 27.5659 30.6353Z" fill="white"/>
<path d="M27.1444 30.0587C27.1201 30.0315 27.1024 29.9991 27.0927 29.9639C27.0831 29.9288 27.0816 29.8919 27.0885 29.8561C27.0955 29.8203 27.1105 29.7866 27.1326 29.7576C27.1547 29.7286 27.1832 29.7051 27.2159 29.6889L27.6066 29.4165L27.72 29.5792L27.3712 29.8257C27.3354 29.8471 27.307 29.8789 27.2899 29.9169C27.2845 29.933 27.2834 29.9502 27.2867 29.9668C27.2899 29.9834 27.2974 29.999 27.3083 30.0119C27.3203 30.0336 27.3383 30.0514 27.3602 30.0633C27.3821 30.0751 27.4068 30.0803 27.4316 30.0784C27.4917 30.0665 27.5483 30.0407 27.5968 30.0032L27.879 29.806L27.9924 29.9687L27.3934 30.3866L27.3071 30.2633L27.3687 30.1881L27.3613 30.1795C27.3333 30.1811 27.3051 30.1769 27.2788 30.1672C27.2522 30.1571 27.2276 30.1425 27.206 30.124C27.183 30.1047 27.1624 30.0828 27.1444 30.0587Z" fill="white"/>
<path d="M26.6131 18.2924C26.6493 18.2295 26.696 18.1732 26.7512 18.126C26.7926 18.0916 26.8441 18.0717 26.8979 18.0693C26.9542 18.0697 27.0091 18.0869 27.0556 18.1186C27.0897 18.1381 27.1185 18.1656 27.1395 18.1988C27.1587 18.2286 27.1714 18.2622 27.1764 18.2974C27.1813 18.3317 27.1813 18.3666 27.1764 18.4009L27.6769 18.38L27.5598 18.571H27.1259L27.0704 18.6622L27.3823 18.8545L27.2775 19.0258L26.464 18.5328L26.6131 18.2924ZM26.7475 18.3911L26.7154 18.4428L26.9348 18.5784L26.9694 18.5229C26.9993 18.4822 27.0153 18.433 27.015 18.3824C27.0121 18.3639 27.0051 18.3463 26.9944 18.3309C26.9837 18.3156 26.9697 18.3028 26.9533 18.2937C26.9383 18.2825 26.9204 18.2756 26.9017 18.2739C26.883 18.2721 26.8642 18.2756 26.8473 18.2838C26.8047 18.3095 26.7701 18.3467 26.7475 18.3911Z" fill="white"/>
<path d="M27.3441 17.5835C27.3784 17.5342 27.4246 17.4943 27.4784 17.4676C27.5274 17.4439 27.5824 17.4357 27.6362 17.4442C27.6974 17.4552 27.7549 17.481 27.8038 17.5194L27.8815 17.5773L27.6029 17.9471C27.642 17.9768 27.6909 17.9905 27.7397 17.9853C27.7632 17.9811 27.7856 17.9722 27.8055 17.9591C27.8255 17.9459 27.8425 17.9288 27.8556 17.9089C27.8819 17.875 27.9035 17.8377 27.9197 17.798C27.9366 17.7584 27.949 17.717 27.9567 17.6747L28.0799 17.7659C28.0729 17.8055 28.0609 17.844 28.0442 17.8805C28.0241 17.9242 27.9993 17.9656 27.9702 18.0038C27.9317 18.0585 27.8811 18.1037 27.8223 18.1357C27.7679 18.1647 27.7059 18.1759 27.6448 18.1677C27.5727 18.1575 27.5046 18.1281 27.4476 18.0827C27.3875 18.0405 27.3378 17.9853 27.3021 17.9212C27.2746 17.8677 27.2639 17.8071 27.2713 17.7474C27.2818 17.6876 27.3067 17.6313 27.3441 17.5835ZM27.4587 17.6673C27.4474 17.6808 27.4391 17.6966 27.4344 17.7137C27.4297 17.7307 27.4288 17.7485 27.4316 17.7659C27.4403 17.8081 27.4645 17.8454 27.4994 17.8707L27.6645 17.6476C27.6428 17.6314 27.6181 17.6197 27.5918 17.6131C27.5684 17.6069 27.5437 17.6069 27.5203 17.6131C27.4947 17.6244 27.4732 17.6433 27.4587 17.6673Z" fill="white"/>
<path d="M28.6567 17.1645L28.4312 17.0413L28.3708 17.0068L28.2845 16.9587L28.1994 16.9106L28.1415 16.8786L28.1797 16.9316L28.2352 17.0117L28.2919 17.0943L28.3325 17.151L28.4817 17.363L28.3387 17.5208L27.6595 17.1843L27.7914 17.0376L28.0873 17.1929C28.1082 17.204 28.1316 17.2175 28.1588 17.2348C28.1859 17.2521 28.2105 17.2681 28.2339 17.2853L28.2919 17.3248L28.2574 17.2878C28.2434 17.2714 28.2298 17.2541 28.2167 17.236C28.2019 17.2188 28.1896 17.2028 28.1785 17.188L28.1563 17.1584L27.9566 16.8564L28.1033 16.6949L28.4201 16.8662L28.4731 16.8983L28.5446 16.9451C28.5634 16.9576 28.5816 16.9712 28.5988 16.9858L28.5557 16.9353L28.499 16.8613C28.4809 16.84 28.4644 16.8173 28.4496 16.7935L28.2709 16.5002L28.4016 16.356L28.8022 17.0006L28.6567 17.1645Z" fill="white"/>
<path d="M28.7825 15.9983C28.8381 15.9406 28.9123 15.9044 28.992 15.896C29.0283 15.8958 29.0641 15.904 29.0967 15.92C29.1292 15.9361 29.1575 15.9595 29.1794 15.9884L29.506 16.3496L29.4025 16.4421L29.3076 16.394C29.3121 16.4238 29.3121 16.4541 29.3076 16.484C29.3026 16.5116 29.2921 16.5381 29.2768 16.5616C29.2582 16.5904 29.2353 16.6161 29.209 16.638C29.1802 16.6658 29.1451 16.6861 29.1067 16.6972C29.0706 16.7089 29.0318 16.7089 28.9957 16.6972C28.9533 16.6814 28.9159 16.6546 28.8873 16.6195C28.8633 16.5966 28.8457 16.5679 28.8362 16.5361C28.8266 16.5044 28.8256 16.4707 28.833 16.4383C28.859 16.3572 28.9073 16.2851 28.9723 16.23L29.0635 16.1425L29.0426 16.1191C29.0334 16.1066 29.0216 16.0962 29.0079 16.0888C28.9943 16.0813 28.9792 16.0769 28.9637 16.076C28.9335 16.0776 28.905 16.0904 28.8836 16.1117C28.8578 16.1352 28.8354 16.1622 28.817 16.1918C28.7984 16.2227 28.7819 16.2548 28.7677 16.288L28.6284 16.2325C28.6446 16.1889 28.6661 16.1475 28.6925 16.1092C28.7183 16.0691 28.7485 16.0319 28.7825 15.9983ZM29.1326 16.23L29.0783 16.283C29.041 16.3119 29.0142 16.3521 29.0019 16.3977C28.9996 16.4136 29.0009 16.43 29.0058 16.4453C29.0107 16.4607 29.0191 16.4748 29.0302 16.4864C29.0376 16.496 29.0471 16.5038 29.0581 16.5089C29.069 16.5141 29.081 16.5165 29.0931 16.516C29.1178 16.5129 29.1408 16.5016 29.1584 16.484C29.188 16.4583 29.2073 16.4229 29.2127 16.3841C29.2147 16.364 29.2122 16.3438 29.2053 16.3248C29.1985 16.3058 29.1875 16.2886 29.1732 16.2744L29.1326 16.23Z" fill="white"/>
<path d="M29.5638 15.3575L29.5922 15.3378L29.6205 15.3218L29.7228 15.4783C29.714 15.4817 29.7057 15.4862 29.6982 15.4919C29.6871 15.4919 29.6797 15.5042 29.6723 15.5091C29.6525 15.5246 29.6347 15.5424 29.6193 15.5621C29.6048 15.5814 29.5939 15.6031 29.5872 15.6262C29.5811 15.6505 29.5811 15.6759 29.5872 15.7002C29.5948 15.7289 29.6082 15.7558 29.6267 15.7791L29.8547 16.0737L29.6982 16.1969L29.2507 15.6188L29.374 15.5276L29.4714 15.6065L29.48 15.6003C29.4763 15.5717 29.4763 15.5427 29.48 15.5141C29.4846 15.4843 29.4942 15.4556 29.5083 15.429C29.5214 15.4014 29.5403 15.377 29.5638 15.3575Z" fill="white"/>
<path d="M30.4095 15.689C30.3782 15.7107 30.3422 15.7245 30.3045 15.7295C30.2667 15.7344 30.2284 15.7302 30.1926 15.7174C30.1035 15.6736 30.0278 15.6067 29.9733 15.5236C29.9189 15.4406 29.8878 15.3445 29.8832 15.2453C29.8859 15.2063 29.8978 15.1686 29.918 15.1352C29.9381 15.1018 29.9659 15.0736 29.999 15.053C30.0256 15.038 30.0543 15.0272 30.0841 15.0209C30.1102 15.0167 30.1369 15.0167 30.163 15.0209C30.1872 15.0233 30.211 15.0296 30.2332 15.0394H30.2394L30.1975 14.9926C30.179 14.9717 30.1621 14.9495 30.147 14.926L30.0237 14.7301L30.1901 14.6216L30.7472 15.4708L30.624 15.5547L30.5402 15.4967H30.5328C30.533 15.5209 30.5297 15.545 30.5229 15.5682C30.5157 15.5931 30.504 15.6165 30.4884 15.6372C30.4657 15.6594 30.4389 15.677 30.4095 15.689ZM30.3812 15.5189C30.4003 15.5087 30.4166 15.4939 30.4286 15.4758C30.4407 15.4577 30.4481 15.437 30.4502 15.4154C30.4473 15.3639 30.4297 15.3143 30.3996 15.2724L30.3873 15.2551C30.36 15.2043 30.3196 15.1618 30.2702 15.1319C30.2488 15.122 30.2249 15.1185 30.2016 15.1218C30.1782 15.1251 30.1562 15.135 30.1383 15.1504C30.1214 15.1618 30.1076 15.1772 30.0982 15.1953C30.0887 15.2134 30.0839 15.2335 30.0841 15.2539C30.0915 15.3098 30.1115 15.3633 30.1424 15.4105C30.1734 15.4576 30.2145 15.4972 30.2628 15.5263C30.282 15.5344 30.3029 15.5375 30.3236 15.5354C30.3443 15.5332 30.3641 15.5259 30.3812 15.514V15.5189Z" fill="white"/>
<path d="M41.1935 14.5505C41.1631 14.5329 41.1288 14.5227 41.0937 14.5209C41.0599 14.5205 41.0265 14.5281 40.9963 14.5431C40.9629 14.5603 40.9329 14.5832 40.9076 14.6109C40.8769 14.6448 40.8508 14.6825 40.8299 14.7231C40.8004 14.7738 40.78 14.8293 40.7695 14.887C40.7607 14.9316 40.7663 14.9778 40.7855 15.0189C40.8081 15.0615 40.8434 15.096 40.8866 15.1175C40.9211 15.1357 40.9575 15.1501 40.9951 15.1607C41.0376 15.1725 41.0808 15.1815 41.1245 15.1878L41.0431 15.3382C41.0012 15.3335 40.9599 15.3244 40.9199 15.311C40.8773 15.2966 40.836 15.2785 40.7966 15.2568C40.7207 15.219 40.657 15.1605 40.613 15.0879C40.5771 15.0216 40.5629 14.9458 40.5723 14.871C40.5825 14.7842 40.6102 14.7003 40.6536 14.6245C40.6861 14.5646 40.7277 14.5101 40.7769 14.463C40.8198 14.4215 40.8705 14.3888 40.926 14.3669C40.9806 14.346 41.0392 14.338 41.0974 14.3434C41.1622 14.351 41.225 14.3711 41.2823 14.4026C41.3265 14.4256 41.3679 14.4538 41.4055 14.4864C41.4411 14.5193 41.4733 14.5556 41.5017 14.5949L41.3661 14.7083C41.3427 14.6763 41.318 14.6467 41.2934 14.6183C41.2649 14.5893 41.231 14.5663 41.1935 14.5505Z" fill="white"/>
<path d="M41.97 15.5412C41.9411 15.5885 41.9039 15.6302 41.8603 15.6644C41.8243 15.6936 41.7822 15.7142 41.737 15.7248C41.6934 15.7359 41.6476 15.7359 41.6039 15.7248C41.5551 15.7136 41.5087 15.6935 41.4671 15.6657C41.4266 15.6397 41.3915 15.6062 41.3636 15.567C41.3368 15.5305 41.3187 15.4883 41.3106 15.4438C41.3008 15.3979 41.3008 15.3504 41.3106 15.3045C41.3248 15.251 41.3477 15.2002 41.3784 15.1541C41.4153 15.0934 41.4665 15.0426 41.5275 15.0062C41.5796 14.9757 41.6399 14.9619 41.7001 14.9668C41.7651 14.9736 41.8273 14.9964 41.8813 15.0333C41.9332 15.0678 41.9756 15.1149 42.0045 15.1702C42.033 15.2238 42.0446 15.2848 42.0378 15.3452C42.032 15.4152 42.0087 15.4825 41.97 15.5412ZM41.5472 15.2675C41.5241 15.3012 41.5062 15.3382 41.4942 15.3772C41.4844 15.406 41.4844 15.4372 41.4942 15.466C41.505 15.4947 41.5255 15.5187 41.5522 15.5338C41.5768 15.5517 41.6067 15.5612 41.6372 15.5609C41.6673 15.5575 41.6957 15.545 41.7186 15.5251C41.7788 15.4704 41.8242 15.4013 41.8504 15.3242C41.8598 15.2958 41.8598 15.2651 41.8504 15.2367C41.8384 15.2084 41.8177 15.1847 41.7913 15.1689C41.7741 15.1554 41.7536 15.1466 41.732 15.1436C41.7103 15.1406 41.6882 15.1433 41.668 15.1517C41.6175 15.1779 41.5756 15.2181 41.5472 15.2675Z" fill="white"/>
<path d="M42.7132 15.6372C42.7685 15.677 42.8071 15.7358 42.8217 15.8023C42.8253 15.8395 42.8209 15.877 42.8088 15.9123C42.7966 15.9476 42.7771 15.9798 42.7515 16.007L42.4593 16.3767L42.3028 16.2535L42.5653 15.917C42.593 15.8861 42.6103 15.8473 42.6146 15.806C42.6148 15.7892 42.6108 15.7725 42.6028 15.7576C42.5948 15.7428 42.5832 15.7302 42.569 15.721C42.5517 15.7034 42.5296 15.6915 42.5054 15.6866C42.4812 15.6818 42.4562 15.6843 42.4334 15.6939C42.3788 15.7232 42.3323 15.7656 42.2979 15.8171L42.0871 16.0883L41.9305 15.965L42.3792 15.3882L42.5025 15.4819L42.4667 15.5718H42.4754C42.5022 15.5623 42.5307 15.5581 42.5592 15.5595C42.5876 15.5613 42.6156 15.5679 42.6418 15.5792C42.6675 15.596 42.6915 15.6154 42.7132 15.6372Z" fill="white"/>
<path d="M42.9672 16.6482C42.9824 16.663 42.9994 16.6758 43.0177 16.6864L43.0732 16.716L42.9734 16.8257C42.9473 16.8164 42.9225 16.804 42.8994 16.7887C42.8699 16.771 42.8422 16.7504 42.8168 16.7271C42.7872 16.7003 42.7629 16.6681 42.7453 16.6322C42.7303 16.5976 42.7269 16.5591 42.7355 16.5225C42.7515 16.4759 42.778 16.4337 42.8131 16.3992L43.0522 16.1404L42.982 16.0763L43.0387 16.0146L43.1619 16.0393L43.3086 15.9653L43.4023 16.0504L43.2963 16.165L43.4467 16.3031L43.3444 16.4128L43.1952 16.2747L42.9573 16.5336C42.9488 16.5416 42.9421 16.5514 42.9376 16.5622C42.9332 16.573 42.9311 16.5847 42.9314 16.5964C42.9369 16.6173 42.9496 16.6357 42.9672 16.6482Z" fill="white"/>
<path d="M43.9139 16.7542L43.9361 16.7801C43.9447 16.79 43.9509 16.7998 43.9558 16.806L43.8104 16.9293C43.8061 16.9211 43.8007 16.9137 43.7943 16.9071L43.7746 16.8836C43.7574 16.8653 43.7379 16.8492 43.7167 16.8356C43.6957 16.8234 43.6728 16.8151 43.6489 16.8109C43.6244 16.8073 43.5994 16.8099 43.5762 16.8183C43.5482 16.8292 43.5226 16.8455 43.501 16.8664L43.2335 17.1166L43.0955 16.9736L43.623 16.4683L43.7278 16.5767L43.6588 16.6827L43.6649 16.6901C43.6935 16.6829 43.723 16.68 43.7524 16.6815C43.782 16.6828 43.8112 16.689 43.8387 16.7C43.8674 16.7124 43.893 16.7309 43.9139 16.7542Z" fill="white"/>
<path d="M44.222 17.1263L43.6673 17.6021L43.5441 17.4517L44.0975 16.9759L44.222 17.1263ZM44.3748 16.865C44.3925 16.8852 44.4041 16.91 44.4081 16.9365C44.4072 16.9507 44.4034 16.9646 44.3971 16.9773C44.3907 16.99 44.3819 17.0014 44.3711 17.0107C44.3603 17.02 44.3478 17.027 44.3343 17.0314C44.3207 17.0358 44.3064 17.0375 44.2923 17.0363C44.2662 17.0291 44.2432 17.0135 44.2269 16.9919C44.2085 16.9721 44.1965 16.9472 44.1924 16.9205C44.1923 16.9059 44.1956 16.8916 44.2023 16.8787C44.209 16.8658 44.2187 16.8548 44.2306 16.8465C44.2407 16.8361 44.2531 16.8283 44.2669 16.8238C44.2806 16.8193 44.2952 16.8182 44.3095 16.8206C44.3355 16.8306 44.3581 16.8477 44.3748 16.8699V16.865Z" fill="white"/>
<path d="M44.7621 17.3419L44.5735 17.4861C44.5513 17.5033 44.5291 17.5181 44.5057 17.5342C44.4889 17.5461 44.4711 17.5568 44.4527 17.5662V17.5736C44.4896 17.5707 44.5267 17.5762 44.5612 17.5896C44.6022 17.6073 44.6373 17.6364 44.6623 17.6734C44.6861 17.7034 44.7023 17.7386 44.7096 17.7762C44.7169 17.8137 44.715 17.8525 44.7042 17.8892C44.6719 17.9838 44.6084 18.0646 44.5242 18.1184C44.4685 18.1632 44.4044 18.1963 44.3356 18.2158C44.2834 18.2319 44.2276 18.2319 44.1754 18.2158C44.1257 18.1993 44.0825 18.1673 44.0521 18.1246C44.0227 18.0897 44.0047 18.0467 44.0004 18.0013C43.9967 17.9683 43.9988 17.935 44.0065 17.9027L43.9991 17.8928L43.9141 17.9138L43.8241 17.7905L44.6376 17.1816L44.7621 17.3419ZM44.502 17.7117C44.486 17.6874 44.4627 17.6688 44.4355 17.6587C44.41 17.6494 44.3821 17.6494 44.3566 17.6587C44.3221 17.6716 44.2898 17.6895 44.2604 17.7117L44.2432 17.7252C44.1963 17.7565 44.1578 17.7988 44.131 17.8485C44.1235 17.8692 44.1217 17.8916 44.1259 17.9133C44.13 17.935 44.1399 17.9552 44.1544 17.9717C44.166 17.9879 44.1817 18.0006 44.2 18.0084C44.2182 18.0162 44.2383 18.0189 44.258 18.0161C44.3142 18.0072 44.367 17.9834 44.4108 17.9471C44.4573 17.9167 44.4944 17.874 44.5181 17.8238C44.5253 17.8062 44.528 17.787 44.5258 17.768C44.5236 17.749 44.5167 17.7309 44.5057 17.7154L44.502 17.7117Z" fill="white"/>
<path d="M45.3215 18.6893L44.7052 19.0726L44.6251 18.9493L44.6904 18.8778V18.8692C44.662 18.8692 44.6339 18.8633 44.6079 18.852C44.5821 18.8397 44.5584 18.8235 44.5376 18.8039C44.5162 18.7834 44.4975 18.7602 44.4821 18.7349C44.4567 18.6959 44.4407 18.6516 44.4353 18.6054C44.4303 18.5626 44.4394 18.5194 44.4612 18.4822C44.4895 18.4376 44.5285 18.4008 44.5746 18.3749L44.9801 18.1284L45.0836 18.2973L44.72 18.5216C44.6832 18.5406 44.6534 18.5708 44.635 18.6079C44.6286 18.6236 44.6264 18.6407 44.6285 18.6576C44.6307 18.6744 44.6371 18.6904 44.6473 18.704C44.6634 18.7342 44.6895 18.7578 44.7213 18.7706C44.752 18.781 44.7854 18.781 44.8162 18.7706C44.8595 18.757 44.9009 18.738 44.9394 18.7139L45.2328 18.5339L45.3215 18.6893Z" fill="white"/>
<path d="M45.0861 19.4953C45.0962 19.5143 45.1077 19.5324 45.1206 19.5495C45.1342 19.5655 45.149 19.5816 45.1638 19.5964L45.0319 19.6642C45.0107 19.6463 44.9914 19.6265 44.9739 19.605C44.9529 19.5775 44.9344 19.5482 44.9185 19.5175C44.8999 19.4822 44.8882 19.4437 44.884 19.4041C44.8818 19.3666 44.8917 19.3295 44.9123 19.2981C44.9433 19.2579 44.9834 19.2258 45.0294 19.2044L45.3425 19.0429L45.2993 18.9591L45.3733 18.9209L45.483 18.9875L45.6457 18.9677L45.7049 19.0799L45.5656 19.1514L45.6593 19.3313L45.5261 19.4004L45.4337 19.2192L45.1218 19.3807C45.1114 19.3853 45.1021 19.3921 45.0944 19.4006C45.0868 19.4091 45.081 19.4191 45.0775 19.43C45.0726 19.4521 45.0756 19.4752 45.0861 19.4953Z" fill="white"/>
<path d="M45.8982 19.8282C45.9236 19.8829 45.9347 19.9431 45.9303 20.0032C45.927 20.0576 45.9062 20.1095 45.8711 20.1512C45.8305 20.1986 45.7788 20.2354 45.7207 20.2584L45.632 20.2966L45.4483 19.8652C45.4031 19.8841 45.3666 19.9193 45.346 19.9638C45.3375 19.9863 45.3338 20.0102 45.3351 20.0342C45.3364 20.0582 45.3426 20.0816 45.3534 20.1031C45.3697 20.1428 45.3912 20.1801 45.4175 20.214C45.4426 20.2481 45.4715 20.2791 45.5038 20.3065L45.362 20.3681C45.3318 20.3416 45.3045 20.3118 45.2807 20.2793C45.2545 20.2406 45.2322 20.1993 45.2141 20.1561C45.1867 20.0953 45.1732 20.0292 45.1747 19.9626C45.1777 19.9014 45.1992 19.8425 45.2363 19.7937C45.2826 19.7382 45.3425 19.6958 45.4101 19.6704C45.4767 19.6392 45.5498 19.6245 45.6233 19.6273C45.6834 19.6295 45.7412 19.6506 45.7885 19.6877C45.8363 19.7246 45.874 19.7729 45.8982 19.8282ZM45.7688 19.8861C45.7624 19.8697 45.7528 19.8546 45.7405 19.8419C45.7283 19.8292 45.7136 19.8191 45.6973 19.8122C45.6575 19.7976 45.6138 19.7976 45.574 19.8122L45.6837 20.0686C45.7087 20.0579 45.7313 20.0424 45.7503 20.023C45.7671 20.0052 45.7782 19.9829 45.7823 19.9589C45.7854 19.9338 45.7806 19.9084 45.7688 19.8861Z" fill="white"/>
<path d="M36.0005 33.3723C41.1762 33.3723 45.372 29.1766 45.372 24.0009C45.372 18.8251 41.1762 14.6294 36.0005 14.6294C30.8248 14.6294 26.629 18.8251 26.629 24.0009C26.629 29.1766 30.8248 33.3723 36.0005 33.3723Z" fill="#004DE5"/>
<path d="M36.0005 31.3693C40.07 31.3693 43.369 28.0703 43.369 24.0008C43.369 19.9313 40.07 16.6323 36.0005 16.6323C31.9309 16.6323 28.632 19.9313 28.632 24.0008C28.632 28.0703 31.9309 31.3693 36.0005 31.3693Z" fill="#005FF7"/>
<path d="M36.0005 24.0006C41.2132 22.8518 38.6137 16.5914 33.5427 18.73C34.9406 18.0781 36.5401 18.0082 37.9895 18.5358C38.7071 18.7969 39.3663 19.1969 39.9294 19.7129C40.4925 20.2288 40.9484 20.8506 41.2711 21.5428C41.5939 22.2349 41.7772 22.9838 41.8105 23.7468C41.8438 24.5098 41.7265 25.2719 41.4654 25.9895C41.2042 26.7072 40.8042 27.3663 40.2882 27.9294C39.7723 28.4925 39.1505 28.9484 38.4583 29.2712C33.2235 31.3604 30.7768 25.1518 36.0005 24.0006Z" fill="#004DE5"/>
<path d="M33.5428 18.7298C38.6137 16.5912 41.2132 22.8516 36.0006 24.0004C30.7879 25.1492 33.2235 31.3603 38.4584 29.271C37.0605 29.9229 35.461 29.9927 34.0116 29.4652C32.5623 28.9377 31.3818 27.8561 30.73 26.4582C30.0781 25.0604 30.0083 23.4608 30.5358 22.0115C31.0633 20.5621 32.1449 19.3817 33.5428 18.7298Z" fill="white"/>
<path d="M36.0486 27.8784C36.4665 27.8784 36.8054 27.5395 36.8054 27.1216C36.8054 26.7036 36.4665 26.3647 36.0486 26.3647C35.6306 26.3647 35.2917 26.7036 35.2917 27.1216C35.2917 27.5395 35.6306 27.8784 36.0486 27.8784Z" fill="white"/>
<path d="M35.9933 21.7548C36.4112 21.7548 36.7501 21.416 36.7501 20.998C36.7501 20.58 36.4112 20.2412 35.9933 20.2412C35.5753 20.2412 35.2365 20.58 35.2365 20.998C35.2365 21.416 35.5753 21.7548 35.9933 21.7548Z" fill="#004DE5"/>
<path d="M36.0007 15.064L36.1892 15.4461L36.6108 15.5077L36.3063 15.806L36.3778 16.2263L36.0007 16.0279L35.6222 16.2263L35.695 15.806L35.3893 15.5077L35.8121 15.4461L36.0007 15.064Z" fill="white"/>
<path d="M41.2526 16.77L41.1811 17.1916L41.4855 17.4886L41.064 17.5503L40.8754 17.9324L40.6868 17.5503L40.264 17.4886L40.5697 17.1916L40.497 16.77L40.8754 16.9697L41.2526 16.77Z" fill="white"/>
<path d="M44.4995 21.2382L44.1938 21.5365L44.2653 21.9568L43.8881 21.7583L43.5109 21.9568L43.5824 21.5365L43.2767 21.2382L43.6995 21.1778L43.8881 20.7944L44.0767 21.1778L44.4995 21.2382Z" fill="white"/>
<path d="M44.4995 26.7616L44.0767 26.8232L43.8881 27.2053L43.6995 26.8232L43.2767 26.7616L43.5824 26.4633L43.5109 26.043L43.8881 26.2414L44.2653 26.043L44.1938 26.4633L44.4995 26.7616Z" fill="white"/>
<path d="M41.2526 31.2297L40.8754 31.0313L40.497 31.2297L40.5697 30.8094L40.264 30.5111L40.6868 30.4507L40.8754 30.0674L41.064 30.4507L41.4855 30.5111L41.1811 30.8094L41.2526 31.2297Z" fill="white"/>
<path d="M36.0007 32.9355L35.8121 32.5534L35.3893 32.4918L35.695 32.1947L35.6222 31.7744L36.0007 31.9729L36.3778 31.7744L36.3063 32.1947L36.6108 32.4918L36.1892 32.5534L36.0007 32.9355Z" fill="white"/>
<path d="M30.7472 31.2297L30.82 30.8094L30.5143 30.5111L30.9371 30.4507L31.1257 30.0674L31.3142 30.4507L31.737 30.5111L31.4313 30.8094L31.5028 31.2297L31.1257 31.0313L30.7472 31.2297Z" fill="white"/>
<path d="M27.5018 26.7616L27.8075 26.4633L27.7348 26.043L28.1132 26.2414L28.4904 26.043L28.4177 26.4633L28.7233 26.7616L28.3018 26.8232L28.1132 27.2053L27.9234 26.8232L27.5018 26.7616Z" fill="white"/>
<path d="M27.5018 21.2382L27.9234 21.1778L28.1132 20.7944L28.3018 21.1778L28.7233 21.2382L28.4177 21.5365L28.4904 21.9568L28.1132 21.7583L27.7348 21.9568L27.8075 21.5365L27.5018 21.2382Z" fill="white"/>
<path d="M30.7472 16.77L31.1257 16.9697L31.5028 16.77L31.4313 17.1916L31.737 17.4886L31.3142 17.5503L31.1257 17.9324L30.9371 17.5503L30.5143 17.4886L30.82 17.1916L30.7472 16.77Z" fill="white"/>
<path d="M36.0007 15.064L36.1892 15.4461L36.6108 15.5077L36.3063 15.806L36.3778 16.2263L36.0007 16.0279L35.6222 16.2263L35.695 15.806L35.3893 15.5077L35.8121 15.4461L36.0007 15.064Z" fill="white"/>
<g style="mix-blend-mode:overlay" opacity="0.2">
<path d="M47.2507 21.5799C45.8373 23.1666 44.1042 24.4364 42.1653 25.3058C40.2265 26.1753 38.1256 26.6248 36.0007 26.6248C33.8758 26.6248 31.7749 26.1753 29.836 25.3058C27.8972 24.4364 26.1641 23.1666 24.7507 21.5799C25.3044 19.0074 26.723 16.7023 28.7702 15.0489C30.8173 13.3955 33.3692 12.4937 36.0007 12.4937C38.6321 12.4937 41.1841 13.3955 43.2312 15.0489C45.2783 16.7023 46.697 19.0074 47.2507 21.5799Z" fill="white"/>
</g>
<path d="M63.0058 20.3802C64.0044 20.3802 64.7568 20.6374 65.2631 21.1516C65.7693 21.6659 66.025 22.4882 66.03 23.6186V29.3762H63.6259V24.2192C63.6259 23.5871 63.5186 23.1108 63.3039 22.7903C63.194 22.63 63.0442 22.5011 62.8692 22.4165C62.6942 22.3319 62.5002 22.2945 62.3063 22.3079C61.6723 22.3079 61.2229 22.5356 60.9583 22.991C60.6937 23.4463 60.5599 24.0954 60.5569 24.9381V29.3688H58.1603V24.2192C58.1691 23.8614 58.121 23.5045 58.018 23.1617C57.9456 22.9078 57.7946 22.6834 57.5867 22.5206C57.3668 22.3702 57.1039 22.2955 56.8377 22.3079C56.4587 22.286 56.0851 22.4056 55.7892 22.6435C55.5116 22.9091 55.3223 23.2537 55.247 23.6305C55.1298 24.1529 55.0755 24.6875 55.0853 25.2227V29.3762H52.6887V20.539H54.5191L54.8411 21.6684H54.9744C55.1409 21.3728 55.3699 21.1173 55.6455 20.9195C55.9187 20.7294 56.2227 20.588 56.5442 20.5015C56.866 20.412 57.1986 20.3667 57.5327 20.3667C58.0955 20.351 58.6548 20.4588 59.1714 20.6828C59.6131 20.8879 59.9756 21.2319 60.2034 21.6624H60.4191C60.6701 21.2194 61.061 20.8723 61.5305 20.6753C61.9971 20.4776 62.4991 20.3772 63.0058 20.3802Z" fill="#333333"/>
<path d="M67.6179 20.5469H70.2406L71.8987 25.5152C71.9512 25.665 71.9946 25.8342 72.0321 25.9975C72.0695 26.1608 72.0994 26.3285 72.1264 26.5023C72.1534 26.676 72.1729 26.8573 72.1893 27.0475H72.2358C72.2646 26.7792 72.3081 26.5127 72.3661 26.2491C72.421 26.0006 72.4905 25.7555 72.5743 25.5152L74.1994 20.5469H76.7682L73.0536 30.506C72.8572 31.0659 72.5585 31.5844 72.1728 32.0353C71.8303 32.4293 71.4054 32.7433 70.9281 32.955C70.441 33.1642 69.9155 33.2693 69.3854 33.2635C69.149 33.2656 68.9127 33.2511 68.6784 33.2201C68.4792 33.1901 68.3084 33.1602 68.1676 33.1287V31.2175C68.305 31.2487 68.444 31.2722 68.584 31.2879C68.7584 31.3098 68.934 31.3208 69.1098 31.3208C69.4119 31.329 69.7106 31.2549 69.974 31.1066C70.2137 30.9627 70.4184 30.7673 70.5732 30.5345C70.7369 30.2912 70.8665 30.0266 70.9581 29.7481L71.0989 29.3137L67.6179 20.5469Z" fill="#333333"/>
<path d="M85.8256 29.376H77.7942V27.679L80.6805 24.7552C81.2637 24.156 81.7315 23.6568 82.084 23.2573C82.3884 22.926 82.6469 22.5552 82.8524 22.1549C83.0128 21.8225 83.0948 21.4576 83.092 21.0885C83.092 20.6391 82.9662 20.2871 82.7116 20.058C82.4283 19.8188 82.0648 19.6962 81.6945 19.7149C81.2445 19.7155 80.8009 19.8212 80.3989 20.0235C79.9284 20.2626 79.4879 20.5567 79.0868 20.8997L77.7672 19.3285C78.1009 19.04 78.451 18.7709 78.8157 18.5227C79.2126 18.2563 79.6467 18.0498 80.1038 17.91C80.6762 17.7428 81.2707 17.664 81.8668 17.6764C82.5393 17.6581 83.2065 17.7992 83.814 18.0883C84.3279 18.3366 84.7622 18.7236 85.0677 19.2057C85.3629 19.6864 85.5151 20.2413 85.5065 20.8054C85.5126 21.4031 85.3852 21.9946 85.1336 22.5369C84.8492 23.1105 84.4795 23.6377 84.0372 24.1006C83.5579 24.6179 82.9807 25.189 82.3057 25.8141L80.8288 27.2131V27.3225H85.8316L85.8256 29.376Z" fill="#333333"/>
<path d="M91.5606 29.5352C90.792 29.5577 90.0294 29.3938 89.3379 29.0574C88.7199 28.7333 88.228 28.2119 87.9404 27.5761C87.6218 26.908 87.4621 26.0522 87.4611 25.0088C87.4611 23.9303 87.6428 23.0501 88.0063 22.3681C88.3394 21.7198 88.8711 21.195 89.5236 20.8702C90.2249 20.5372 90.9941 20.3721 91.7703 20.3879C92.3014 20.3774 92.8316 20.4358 93.3476 20.5617C93.747 20.6639 94.1353 20.8053 94.5069 20.9841L93.7999 22.8489C93.4225 22.6961 93.073 22.5708 92.7514 22.4729C92.436 22.3755 92.108 22.325 91.7778 22.3231C91.4061 22.2982 91.0373 22.4025 90.7337 22.6184C90.4301 22.8344 90.2106 23.1486 90.1122 23.5079C89.9637 23.9883 89.8949 24.4897 89.9085 24.9923C89.894 25.4859 89.9686 25.9781 90.1287 26.4452C90.2451 26.7908 90.468 27.0907 90.7653 27.3019C91.0665 27.496 91.4197 27.5937 91.7778 27.582C92.2283 27.5899 92.6769 27.522 93.1049 27.3813C93.5042 27.2415 93.8841 27.0518 94.2358 26.8166V28.8777C93.8812 29.1046 93.493 29.2739 93.0855 29.3794C92.5855 29.494 92.0734 29.5463 91.5606 29.5352Z" fill="#333333"/>
<path d="M100.274 20.3805C101.001 20.3611 101.721 20.5228 102.371 20.8508C102.951 21.1575 103.424 21.6327 103.729 22.2138C104.068 22.8891 104.232 23.6382 104.208 24.3932V25.563H98.545C98.572 26.241 98.7752 26.7737 99.1546 27.1612C99.5341 27.5486 100.061 27.7423 100.736 27.7423C101.255 27.747 101.772 27.6887 102.276 27.5686C102.771 27.4426 103.253 27.268 103.714 27.0473V28.9106C103.282 29.1264 102.824 29.286 102.351 29.3855C101.783 29.4934 101.205 29.5436 100.627 29.5352C99.8211 29.5509 99.0222 29.3835 98.2904 29.0455C97.6166 28.7231 97.0593 28.1998 96.6952 27.5476C96.3098 26.8796 96.1175 26.0373 96.1185 25.0208C96.1185 23.9883 96.2928 23.1285 96.6413 22.4415C96.9568 21.7889 97.4649 21.2488 98.0972 20.8942C98.7667 20.5396 99.5161 20.3627 100.274 20.3805ZM100.289 22.0955C100.075 22.0888 99.8628 22.1252 99.6639 22.2024C99.465 22.2796 99.2836 22.396 99.1307 22.5448C98.8231 22.8444 98.6464 23.3157 98.6004 23.9588H101.963C101.963 23.6305 101.898 23.3056 101.77 23.0032C101.655 22.7334 101.464 22.5028 101.22 22.3396C100.941 22.1673 100.616 22.0823 100.289 22.0955Z" fill="#333333"/>
<path d="M111.531 20.3804C112.468 20.3804 113.222 20.6376 113.793 21.1518C114.364 21.6661 114.65 22.4884 114.65 23.6188V29.3765H112.253V24.2194C112.253 23.5873 112.14 23.111 111.912 22.7905C111.684 22.4699 111.327 22.3092 110.839 22.3082C110.107 22.3082 109.608 22.5578 109.342 23.0571C109.075 23.5564 108.941 24.2778 108.94 25.2215V29.375H106.544V20.5377H108.374L108.696 21.6671H108.829C109.007 21.3701 109.247 21.1147 109.532 20.9182C109.817 20.7269 110.133 20.5856 110.466 20.5003C110.815 20.4149 111.173 20.3746 111.531 20.3804Z" fill="#333333"/>
<path d="M121.202 27.6166C121.459 27.6168 121.715 27.5902 121.967 27.5372C122.22 27.4845 122.47 27.4185 122.716 27.3395V29.1369C122.41 29.2682 122.09 29.3646 121.762 29.4245C121.352 29.5039 120.935 29.5425 120.517 29.5398C120.034 29.5478 119.555 29.4602 119.106 29.2822C118.684 29.106 118.337 28.7882 118.125 28.3835C117.887 27.9591 117.768 27.3679 117.767 26.61V22.3592H116.62V21.3391L117.936 20.5318L118.628 18.667H120.161V20.5468H122.618V22.3592H120.158V26.613C120.147 26.7512 120.167 26.8901 120.217 27.0196C120.266 27.149 120.344 27.266 120.444 27.362C120.656 27.5377 120.926 27.6284 121.202 27.6166Z" fill="#333333"/>
<path d="M130.997 26.7547C131.015 27.2924 130.869 27.8227 130.578 28.2751C130.268 28.7111 129.83 29.0395 129.324 29.2142C128.659 29.4462 127.956 29.5548 127.251 29.5347C126.724 29.5417 126.196 29.5021 125.676 29.4164C125.222 29.3321 124.779 29.1995 124.353 29.021V27.0304C124.848 27.2534 125.362 27.4319 125.888 27.5636C126.358 27.6923 126.842 27.7627 127.329 27.7733C127.795 27.7733 128.129 27.7034 128.331 27.5636C128.424 27.5053 128.5 27.4244 128.552 27.3284C128.605 27.2325 128.632 27.1247 128.631 27.0154C128.632 26.8728 128.59 26.7332 128.509 26.6155C128.365 26.4472 128.187 26.3105 127.987 26.214C127.579 25.9958 127.159 25.7993 126.73 25.6254C126.257 25.434 125.803 25.1983 125.375 24.9214C125.046 24.7121 124.776 24.423 124.59 24.0811C124.405 23.696 124.318 23.272 124.334 22.8454C124.334 22.0286 124.649 21.4135 125.28 21.0001C125.911 20.5867 126.759 20.3799 127.822 20.3799C128.346 20.3777 128.869 20.4335 129.381 20.5462C129.908 20.6679 130.42 20.8452 130.909 21.0749L130.187 22.8124C129.786 22.636 129.375 22.4805 128.957 22.3466C128.577 22.227 128.181 22.1659 127.783 22.1654C127.511 22.1501 127.24 22.1988 126.991 22.3077C126.908 22.3458 126.839 22.4073 126.791 22.4846C126.744 22.5618 126.72 22.6513 126.723 22.742C126.722 22.8808 126.771 23.0152 126.86 23.121C127.014 23.2762 127.195 23.4007 127.395 23.488C127.659 23.6228 128.048 23.795 128.56 24.0062C129.009 24.1869 129.442 24.4017 129.858 24.6488C130.203 24.8534 130.493 25.138 130.705 25.4786C130.917 25.8694 131.018 26.3107 130.997 26.7547Z" fill="#333333"/>
</g>
<defs>
<clipPath id="clip0_4386_75325">
<rect width="110" height="24" fill="white" transform="translate(24 12)"/>
</clipPath>
</defs>
</svg>
