<svg width="24" height="24" fill="none" xmlns="http://www.w3.org/2000/svg"><path d="M14.5 10.75h-6c-.41 0-.75-.34-.75-.75s.34-.75.75-.75h6c.41 0 .75.34.75.75s-.34.75-.75.75ZM11.5 13.75h-3c-.41 0-.75-.34-.75-.75s.34-.75.75-.75h3c.41 0 .75.34.75.75s-.34.75-.75.75Z" fill="#fff"/><path opacity=".4" d="M11.5 21c5.2467 0 9.5-4.2533 9.5-9.5S16.7467 2 11.5 2 2 6.2533 2 11.5 6.2533 21 11.5 21Z" fill="#8B8A99"/><path d="M21.2986 22.0001c-.18 0-.36-.07-.49-.2l-1.86-1.86c-.27-.27-.27-.71 0-.99.27-.27.71-.27.99 0l1.86 1.86c.27.27.27.71 0 .99-.14.13-.32.2-.5.2Z" fill="#8B8A99"/></svg>