<svg width="25" height="24" viewBox="0 0 25 24" fill="none" xmlns="http://www.w3.org/2000/svg"><path fill-rule="evenodd" clip-rule="evenodd" d="M12.487 2.267a9.977 9.977 0 0 0-3.151 19.447c.499.091.682-.216.682-.482v-1.663c-2.777.599-3.326-1.339-3.326-1.339a2.669 2.669 0 0 0-1.106-1.463c-.906-.615.067-.607.067-.607a2.12 2.12 0 0 1 1.53 1.031 2.127 2.127 0 0 0 2.901.832c.046-.507.27-.982.632-1.34-2.211-.248-4.548-1.105-4.548-4.93A3.85 3.85 0 0 1 7.2 9.078a3.558 3.558 0 0 1 .05-2.653s.832-.274 2.744 1.023a9.295 9.295 0 0 1 4.988 0c1.912-1.314 2.744-1.023 2.744-1.023.37.834.405 1.777.1 2.636a3.85 3.85 0 0 1 1.022 2.677c0 3.833-2.328 4.68-4.548 4.922a2.395 2.395 0 0 1 .682 1.837v2.736c0 .332.175.573.682.482a9.977 9.977 0 0 0-3.176-19.447Z" fill="#fff"/></svg>