<svg width="25" height="24" viewBox="0 0 25 24" fill="none" xmlns="http://www.w3.org/2000/svg"><path d="M12.7 5.87c-.07 0-.14 0-.2.01V2.01c.07-.01.13-.01.2-.01 2.26 0 4.2.69 5.79 1.86.5.36.54 1.09.1 1.52L17.2 6.74c-.34.33-.86.39-1.25.12-.75-.52-1.82-.99-3.25-.99ZM22.3 12.22c0 3.05-1.09 5.61-2.98 7.36C17.67 21.11 15.4 22 12.7 22c-.07 0-.13 0-.2-.01v-3.87c.07.01.13.01.2.01 1.49 0 2.62-.41 3.47-1 1.33-.93 1.93-2.32 2.04-3.24H13.7c-.55 0-1-.45-1-1v-1.71c0-.55.45-1 1-1h7.55c.51 0 .94.38.99.89.04.35.06.72.06 1.15Z" fill="#fff"/><path opacity=".4" d="M7 10.02c-.2.62-.32 1.29-.32 1.98s.12 1.35.33 1.98c.78 2.35 2.94 4.06 5.49 4.14v3.87a9.956 9.956 0 0 1-8.72-5.5h-.01C3.09 15.13 2.7 13.61 2.7 12c0-1.61.39-3.13 1.07-4.49a9.96 9.96 0 0 1 8.73-5.5v3.87c-2.36.07-4.37 1.53-5.29 3.6-.08.18-.15.36-.21.54Z" fill="#fff"/></svg>