<svg width="651" height="674" fill="none" xmlns="http://www.w3.org/2000/svg"><path d="M621.259 103.782.068 64.675" stroke="url(#a)" stroke-width="1.082" stroke-dasharray="2.16 2.16"/><path d="M628.513 186.062 7.322 146.956" stroke="url(#b)" stroke-width="1.082" stroke-dasharray="2.16 2.16"/><path d="M635.766 268.342 14.575 229.236" stroke="url(#c)" stroke-width="1.082" stroke-dasharray="2.16 2.16"/><path d="M643.02 350.623 21.829 311.516" stroke="url(#d)" stroke-width="1.082" stroke-dasharray="2.16 2.16"/><path d="m650.272 432.903-621.19-39.107" stroke="url(#e)" stroke-width="1.082" stroke-dasharray="2.16 2.16"/><path d="m650.272 515.182-621.19-39.106" stroke="url(#f)" stroke-width="1.082" stroke-dasharray="2.16 2.16"/><path d="m650.272 597.462-621.19-39.107" stroke="url(#g)" stroke-width="1.082" stroke-dasharray="2.16 2.16"/><path d="M99.918 0v673.834" stroke="url(#h)" stroke-width="1.082" stroke-dasharray="2.16 2.16"/><path d="M204.745 0v673.834" stroke="url(#i)" stroke-width="1.082" stroke-dasharray="2.16 2.16"/><path d="M309.573 0v673.834" stroke="url(#j)" stroke-width="1.082" stroke-dasharray="2.16 2.16"/><path d="M414.4 0v673.834" stroke="url(#k)" stroke-width="1.082" stroke-dasharray="2.16 2.16"/><path d="M519.227 0v673.835" stroke="url(#l)" stroke-width="1.082" stroke-dasharray="2.16 2.16"/><g clip-path="url(#m)"><path d="m198.413 282.838 1.307-40.465h-52.188v40.465h50.881Z" fill="#F3815A"/><path d="m188.375 282.356 1.307-40.43h-45.174v40.43h43.867Z" fill="#FFB47F"/><path d="M381.824 470.684v49.541h-99.183V472.3l99.183-1.616Z" fill="#362417"/><path d="M307.357 471.887v21.797h44.59v-22.519l-44.59.722Z" fill="#7C4239"/><path d="M337.1 478.866v49.54h-99.184v-47.924l99.184-1.616Z" fill="#19100A"/><path d="M332.318 478.866v49.54h-99.183v-47.924l99.183-1.616Z" fill="#362417"/><path d="M102.219 367.032h-46.55v45.346h46.55v-45.346Z" fill="#2E1E13"/><path d="M90.049 374.767H65.777v23.653H90.05v-23.653Z" fill="#7D4239"/><path d="M88.88 253.856H27.823v78.074H88.88v-78.074Z" fill="#FF6754"/><path d="M51.684 298.721 340.88 271.63v207.1l-123.352 2.028v-63.911L53.712 349.292l-2.028-50.571Z" fill="#FF5F4D"/><path d="M77.981 296.28v23.481l170.658 5.672 10.211-46.102L77.981 296.28Z" fill="#F0493B"/><path d="m80.253 360.259-13.82 23.618 17.774 10.451 14.783-26.369-18.737-7.7Z" fill="#FF6754"/><path d="M340.877 271.63h81.891l-1.203 196.786h-80.688V271.63Z" fill="#FFF5EC"/><path d="M466.845 279.125v178.771l-10.142 2.372-35.136 8.148 1.238-196.786 44.04 7.495Z" fill="#D7AEA5"/><path d="M466.844 428.88v29.016l-10.142 2.372-22.621-47.649 10.314-32.764 22.449 49.025Z" fill="#A17A70"/><path d="M449.103 354.448s-12.892 18.256-12.17 19.115c.722.86 32.453 19.39 32.453 19.39l4.091-36.682-24.374-1.823Z" fill="#42201A"/><path d="M257.854 480.07v21.796h44.59v-22.484l-44.59.688Z" fill="#7C4239"/><path d="m248.642 325.433-38.298 88.457-97.19-40.464 23.481-51.706 112.007 3.713Z" fill="#B3352A"/><path d="M125.287 233.813h30.941v3.748h45.002v12.032h-13.649v-5.26h-10.52v17.087h-15.883v6.188H147.53v11.723h-6.773v-17.189h-9.282v-14.165h-7.082v-5.775h-4.745v-8.389h5.639Z" fill="#7C4239"/><path d="M214.467 258.6h-32.041v18.084h32.041V258.6Z" fill="#7C4239"/><path d="M214.467 258.6h-11.723v18.084h11.723V258.6Z" fill="#562C28"/><path d="M226.43 237.044h22.209v4.882h4.056v37.405l-26.265 3.025v-45.312Z" fill="#F3E7E4"/><path d="M144.508 282.356h62.604v1.822l-62.604 5.845v-7.667Z" stroke="#000" stroke-width="3.438" stroke-miterlimit="10"/><path d="m485.684 225.734 11.517 19.424-31.766 274.62-12.308-16.571 32.557-277.473Z" fill="#2A1B11"/><path d="m447.144 281.944-10.314 32.763 67.039 141.057 3.954-41.564-60.679-132.256Z" fill="#2A1B11"/><path d="M479.598 343.551h-1.306l-8.732 30.941 13.992 19.561 1.959-1.237-5.913-49.265Z" fill="#924F44"/><path d="m479.598 343.551-7.288 30.769 13.201 18.496 5.604-29.876-11.517-19.389Z" fill="#42201A"/><path d="m473.375 356.133-36.545 17.293 12.273-18.978 24.272 1.685Z" fill="#924F44"/><path d="M217.525 427.779h123.352v50.95l-123.352 2.028v-52.978Z" fill="#FF6C58"/></g><g clip-path="url(#n)"><path d="m419.792 498.239-29.667 26.914 41.534 24.199-11.867-51.113Z" fill="#38FFFF"/><path d="M390.125 525.152v14.621l41.534 9.578-41.534-24.199Z" fill="#094039"/></g><g clip-path="url(#o)"><path d="m417.687 171.244-34.12 28.7 42.59 8-8.47-36.7Z" fill="#D9493D"/><path d="m417.688 171.244 29.649 12.94-21.179 23.76-8.47-36.7Z" fill="#FF7160"/><path d="m417.688 171.244 16.06-7.18-12.09-9.09-22.68 1.15 10.86 4.14 7.85 10.98Z" fill="#FFB199"/><path d="m398.977 156.124-15.41 16.29 34.12-1.17-7.85-10.98-10.86-4.14Z" fill="#FF8471"/><path d="m447.337 184.184-13.589-20.12-16.06 7.18 29.649 12.94Z" fill="#FF9F8A"/><path d="m426.157 207.944 18.41-3 2.77-20.76-21.18 23.76Z" fill="#FF6354"/><path d="m426.157 207.944-2.06 12.65 20.47-15.65-18.41 3Z" fill="#7F231A"/><path d="m426.157 207.944-30.53 14.09 18.35 3.71 10.12-5.15 2.06-12.65Z" fill="#792119"/><path d="m383.567 199.944-9.82 12.03 21.88 10.06 30.53-14.09-42.59-8Z" fill="#89261D"/><path d="m369.427 191.414 14.14 8.53-9.82 12.03-7.59-9.35 3.27-11.21Z" fill="#9F2E24"/><path d="m383.567 172.414-14.14 19 14.14 8.53v-27.53Z" fill="#B9372B"/><path d="m364.747 182.324 18.82-9.91 15.41-16.29-34.23 26.2Z" fill="#FF5E4E"/><path d="m364.747 182.324 4.68 9.09 14.14-19-18.82 9.91Z" fill="#CE3F32"/><path d="m364.747 182.324 1.41 20.3 3.27-11.21-4.68-9.09Z" fill="#B5362B"/><path d="M383.567 199.944v-27.53l34.12-1.17-34.12 28.7Z" fill="#FD5849"/></g><g clip-path="url(#p)"><path d="m576.898 502.154-30.984 36.909 38.676 10.289-7.692-47.198Z" fill="#D9493D"/><path d="m576.898 502.154 26.926 16.641-19.234 30.557-7.692-47.198Z" fill="#FF7160"/><path d="m576.898 502.154 14.584-9.234-10.979-11.69-20.596 1.479 9.862 5.324 7.129 14.121Z" fill="#FFB199"/><path d="m559.908 482.709-13.994 20.95 30.984-1.505-7.128-14.121-9.862-5.324Z" fill="#FF8471"/><path d="m603.824 518.795-12.341-25.875-14.585 9.234 26.926 16.641Z" fill="#FF9F8A"/><path d="m584.59 549.352 16.718-3.858 2.515-26.698-19.233 30.556Z" fill="#FF6354"/><path d="m584.589 549.352-1.87 16.268 18.589-20.126-16.719 3.858Z" fill="#7F231A"/><path d="m584.59 549.352-27.725 18.12 16.664 4.771 9.19-6.623 1.871-16.268Z" fill="#792119"/><path d="m545.914 539.063-8.918 15.472 19.869 12.937 27.725-18.12-38.676-10.289Z" fill="#89261D"/><path d="m533.073 528.094 12.841 10.969-8.918 15.471-6.892-12.024 2.969-14.416Z" fill="#9F2E24"/><path d="m545.914 503.659-12.841 24.435 12.841 10.969v-35.404Z" fill="#B9372B"/><path d="m528.823 516.403 17.091-12.744 13.994-20.95-31.085 33.694Z" fill="#FF5E4E"/><path d="m528.823 516.403 4.25 11.691 12.841-24.435-17.091 12.744Z" fill="#CE3F32"/><path d="m528.823 516.403 1.281 26.107 2.969-14.416-4.25-11.691Z" fill="#B5362B"/><path d="M545.914 539.063v-35.404l30.984-1.505-30.984 36.909Z" fill="#FD5849"/><circle cx="547.493" cy="544.121" r="5.23" fill="#fff"/></g><g clip-path="url(#q)"><path d="m134.15 141.55 24.211 4.056 20.858-2.845-45.069-1.211Z" fill="#FBF2DB"/><path d="m158.361 145.606-24.211-4.056v31.329l24.925 4.273-.714-31.546Z" fill="#EECAAC"/><path d="m159.076 177.152 20.143-4.709v-29.682l-20.858 2.845.715 31.546Z" fill="#E2B99A"/></g><g clip-path="url(#r)"><path d="m103.407 177.699 6.271 20.519 20.083-1.719-5.424-20.93-20.93 2.13Z" fill="#FFE3C5"/><path d="m103.407 177.699-14.526 4.564 5.835 20.361 14.962-4.406-6.271-20.519Z" fill="#EFCBAD"/><path d="M94.716 202.624h17.093l17.952-6.125-20.083 1.719-14.962 4.406Z" fill="#DABB9D"/></g><g clip-path="url(#s)"><path d="m168.185 109.776 17.94 35.675 44.197-9.394-16.428-34.827-45.709 8.546Z" fill="#FFFFF1"/><path d="m168.184 109.776-4.914 21.148 19.223 34.186 3.631-19.659-17.94-35.675Z" fill="#CEAC8E"/><path d="m230.322 136.057-5.956 19.429-41.873 9.624 3.632-19.659 44.197-9.394Z" fill="#BC9A7B"/></g><g clip-path="url(#t)"><path d="m567.577 297.009 6.933 30.945 32.896-19.135-39.829-11.81Z" fill="#38FFFF"/><path d="m574.51 327.954 10.065 5.715 22.831-24.85-32.896 19.135Z" fill="#094039"/></g><g clip-path="url(#u)"><path d="m138.565 530.797-47.162 49.811 35.823-8.517 11.339-41.294Z" fill="#094039"/><path d="m80.064 525.945 11.34 54.663 47.16-49.811-58.5-4.852Z" fill="#38FFFF"/></g><g clip-path="url(#v)"><path d="m541.405 196.165 66.881 18.658-77.338 78.07 10.457-96.728Z" fill="#2AE2DA"/><path d="m608.286 214.823 14.007 57.355-91.345 20.715 77.338-78.07Z" fill="#0D4D45"/></g><circle opacity=".1" cx="564.103" cy="218.826" r="50.361" fill="#fff"/><circle opacity=".1" cx="564.104" cy="218.826" r="30.367" fill="#fff"/><circle opacity=".1" cx="564.104" cy="218.826" r="10.636" fill="#fff"/><circle cx="563.904" cy="219.166" r="3.044" fill="#fff" stroke="#fff"/><path d="m546.7 545.951-41.725 71.279H457.32M563.904 219.166l-48.551-110.739h-68.421" stroke="#fff"/><rect x="265.932" y="83.307" width="207" height="50" rx="16" fill="#58586C"/><path d="M292.192 109.635c-.72 1.008-1.872 1.674-3.222 1.674-2.25 0-3.942-1.854-3.942-4.176 0-2.304 1.692-4.194 3.942-4.194 1.314 0 2.43.648 3.15 1.584l1.836-1.314c-1.08-1.512-2.88-2.448-4.986-2.448-3.528 0-6.246 2.862-6.246 6.372 0 3.492 2.718 6.354 6.246 6.354 2.16 0 3.96-.99 5.04-2.52l-1.818-1.332Zm9.588 3.672h2.196v-8.406h-2.196v1.044c-.63-.918-1.836-1.224-2.61-1.224-2.214 0-4.284 1.692-4.284 4.374 0 2.682 2.07 4.374 4.284 4.374.81 0 2.088-.378 2.61-1.242v1.08Zm-4.626-4.212c0-1.368 1.098-2.268 2.322-2.268 1.152 0 2.304.828 2.304 2.268s-1.098 2.268-2.304 2.268c-1.224 0-2.322-.9-2.322-2.268Zm11.944-7.398h-2.178v3.204h-1.53v1.764h1.53v6.642h2.178v-6.642h1.782v-1.764h-1.782v-3.204Zm2.538 7.38c0 2.646 2.124 4.41 4.536 4.41 1.44 0 2.718-.594 3.51-1.656l-1.764-1.296c-.414.558-1.044.846-1.746.846-1.224 0-2.358-.936-2.358-2.304 0-1.368 1.134-2.232 2.358-2.232.702 0 1.332.27 1.746.828l1.746-1.314c-.792-1.062-2.07-1.638-3.492-1.638-2.412 0-4.536 1.692-4.536 4.356Zm11.841-.252c0-1.458 1.098-1.962 2.016-1.962.9 0 1.782.666 1.782 1.872v4.572h2.196v-4.68c0-2.466-1.206-3.906-3.384-3.906-.828 0-2.232.468-2.61 1.476v-5.868h-2.196v12.978h2.196v-4.482Zm15.22-7.128h-2.178v3.204h-1.53v1.764h1.53v6.642h2.178v-6.642h1.782v-1.764h-1.782v-3.204Zm5.38 7.128c0-1.458 1.098-1.962 2.016-1.962.9 0 1.782.666 1.782 1.872v4.572h2.196v-4.68c0-2.466-1.206-3.906-3.384-3.906-.828 0-2.232.468-2.61 1.476v-5.868h-2.196v12.978h2.196v-4.482Zm16.222.252c0-2.664-1.89-4.356-4.266-4.356-2.394 0-4.356 1.692-4.356 4.356 0 2.646 1.962 4.41 4.356 4.41 1.548 0 3.15-.594 3.924-2.034a70.625 70.625 0 0 1-1.674-.9c-.414.72-1.26 1.08-2.106 1.08-1.242 0-2.178-.666-2.322-1.8h6.408c.018-.198.036-.54.036-.756Zm-6.462-.738c.162-1.152 1.062-1.782 2.214-1.782 1.08 0 1.944.63 2.106 1.782h-4.32Zm21.013-4.068c0-2.088-1.386-3.366-3.564-3.366h-4.86v12.402h5.238c2.412 0 3.852-1.71 3.852-3.726 0-1.098-.774-2.52-2.304-2.898 1.242-.486 1.638-1.494 1.638-2.412Zm-6.12 1.62v-2.934h2.322c.918 0 1.404.558 1.404 1.44 0 .846-.486 1.494-1.332 1.494h-2.394Zm2.754 1.926c1.062 0 1.62.918 1.62 1.728 0 .864-.558 1.71-1.566 1.71h-2.808v-3.438h2.754Zm5.798 5.49h2.196v-12.978h-2.196v12.978Zm9.955-3.924c0 1.458-.9 1.962-1.818 1.962-.774 0-1.602-.504-1.602-1.872v-4.572h-2.214v4.968c0 2.376 1.314 3.618 3.312 3.618.846 0 1.854-.468 2.322-1.368v1.188h2.196v-8.406h-2.196v4.482Zm12.54-.306c0-2.664-1.89-4.356-4.266-4.356-2.394 0-4.356 1.692-4.356 4.356 0 2.646 1.962 4.41 4.356 4.41 1.548 0 3.15-.594 3.924-2.034a70.625 70.625 0 0 1-1.674-.9c-.414.72-1.26 1.08-2.106 1.08-1.242 0-2.178-.666-2.322-1.8h6.408c.018-.198.036-.54.036-.756Zm-6.462-.738c.162-1.152 1.062-1.782 2.214-1.782 1.08 0 1.944.63 2.106 1.782h-4.32Zm21.013-4.068c0-2.088-1.386-3.366-3.564-3.366h-4.86v12.402h5.238c2.412 0 3.852-1.71 3.852-3.726 0-1.098-.774-2.52-2.304-2.898 1.242-.486 1.638-1.494 1.638-2.412Zm-6.12 1.62v-2.934h2.322c.918 0 1.404.558 1.404 1.44 0 .846-.486 1.494-1.332 1.494h-2.394Zm2.754 1.926c1.062 0 1.62.918 1.62 1.728 0 .864-.558 1.71-1.566 1.71h-2.808v-3.438h2.754Zm5.798 5.49h2.196v-12.978h-2.196v12.978Zm8.281-1.98c-1.224 0-2.196-.882-2.196-2.25 0-1.35.972-2.196 2.196-2.196 1.224 0 2.196.846 2.196 2.196 0 1.368-.972 2.25-2.196 2.25Zm0 2.142c2.376 0 4.374-1.746 4.374-4.392 0-2.664-1.998-4.356-4.374-4.356-2.376 0-4.374 1.692-4.374 4.356 0 2.646 1.998 4.392 4.374 4.392Zm5.557-4.392c0 2.646 2.124 4.41 4.536 4.41 1.44 0 2.718-.594 3.51-1.656l-1.764-1.296c-.414.558-1.044.846-1.746.846-1.224 0-2.358-.936-2.358-2.304 0-1.368 1.134-2.232 2.358-2.232.702 0 1.332.27 1.746.828l1.746-1.314c-.792-1.062-2.07-1.638-3.492-1.638-2.412 0-4.536 1.692-4.536 4.356Zm14.991 4.23h2.754l-4.284-4.716 3.528-3.69h-2.844l-2.322 2.52v-7.092h-2.178v12.978h2.178v-3.6l3.168 3.6Zm6.681-3.222c.63.144.936.36.918.792 0 .486-.468.828-1.098.846-.81.054-1.494-.468-1.548-1.062h-2.052c.054 1.8 1.728 2.826 3.384 2.826 1.746 0 3.438-.864 3.438-2.592 0-.684-.252-1.98-2.196-2.52l-1.404-.342c-.486-.126-.882-.36-.882-.702 0-.63.504-.828 1.062-.828.504 0 1.08.234 1.134.864h2.088c-.09-1.926-1.674-2.646-3.276-2.646-1.656 0-3.096 1.134-3.096 2.502 0 .972.198 1.998 2.376 2.574l1.152.288Z" fill="#fff"/><rect x="273.671" y="592.23" width="189" height="50" rx="16" fill="#58586C"/><path d="M299.013 622.23h2.43l-4.644-12.402h-2.484l-4.644 12.402h2.448l1.134-3.006h4.626l1.134 3.006Zm-3.456-9.756 1.566 4.734h-3.096l1.53-4.734Zm8.895 9.756h1.944l3.546-8.406h-2.358l-2.16 5.598-2.16-5.598h-2.34l3.528 8.406Zm10.298-1.98c-1.224 0-2.196-.882-2.196-2.25 0-1.35.972-2.196 2.196-2.196 1.224 0 2.196.846 2.196 2.196 0 1.368-.972 2.25-2.196 2.25Zm0 2.142c2.376 0 4.374-1.746 4.374-4.392 0-2.664-1.998-4.356-4.374-4.356-2.376 0-4.374 1.692-4.374 4.356 0 2.646 1.998 4.392 4.374 4.392Zm8.275-8.568h-2.178v8.406h2.178v-8.406Zm-2.502-3.258c0 .774.648 1.332 1.422 1.332.774 0 1.386-.558 1.386-1.332 0-.738-.612-1.314-1.386-1.314-.774 0-1.422.576-1.422 1.314Zm10.982 11.664h2.178v-12.978h-2.178v5.688c-.486-.846-1.512-1.296-2.646-1.296-2.214 0-4.122 1.71-4.122 4.392 0 2.664 1.908 4.374 4.122 4.374 1.098 0 2.16-.468 2.646-1.314v1.134Zm-.036-4.23c0 1.404-1.044 2.304-2.25 2.304-1.224 0-2.214-.918-2.214-2.304 0-1.368.99-2.268 2.214-2.268 1.152 0 2.25.828 2.25 2.268Zm11.557-7.38h-2.178v3.204h-1.53v1.764h1.53v6.642h2.178v-6.642h1.782v-1.764h-1.782v-3.204Zm5.38 7.128c0-1.458 1.098-1.962 2.016-1.962.9 0 1.782.666 1.782 1.872v4.572h2.196v-4.68c0-2.466-1.206-3.906-3.384-3.906-.828 0-2.232.468-2.61 1.476v-5.868h-2.196v12.978h2.196v-4.482Zm16.222.252c0-2.664-1.89-4.356-4.266-4.356-2.394 0-4.356 1.692-4.356 4.356 0 2.646 1.962 4.41 4.356 4.41 1.548 0 3.15-.594 3.924-2.034a70.625 70.625 0 0 1-1.674-.9c-.414.72-1.26 1.08-2.106 1.08-1.242 0-2.178-.666-2.322-1.8h6.408c.018-.198.036-.54.036-.756Zm-6.462-.738c.162-1.152 1.062-1.782 2.214-1.782 1.08 0 1.944.63 2.106 1.782h-4.32Zm17.449-5.382c1.152 0 1.674 1.062 1.674 1.962 0 .918-.522 1.926-1.746 1.926h-2.484v-3.888h2.556Zm.918 5.85c2.214-.342 3.15-2.124 3.15-3.888 0-2.016-1.224-4.014-3.96-4.014h-4.968v12.402h2.304v-4.41h.954l2.916 4.41h2.772l-3.168-4.5Zm12.773.27c0-2.664-1.89-4.356-4.266-4.356-2.394 0-4.356 1.692-4.356 4.356 0 2.646 1.962 4.41 4.356 4.41 1.548 0 3.15-.594 3.924-2.034a70.625 70.625 0 0 1-1.674-.9c-.414.72-1.26 1.08-2.106 1.08-1.242 0-2.178-.666-2.322-1.8h6.408c.018-.198.036-.54.036-.756Zm-6.462-.738c.162-1.152 1.062-1.782 2.214-1.782 1.08 0 1.944.63 2.106 1.782h-4.32Zm14.311 4.968h2.178v-12.978h-2.178v5.688c-.486-.846-1.512-1.296-2.646-1.296-2.214 0-4.122 1.71-4.122 4.392 0 2.664 1.908 4.374 4.122 4.374 1.098 0 2.16-.468 2.646-1.314v1.134Zm-.036-4.23c0 1.404-1.044 2.304-2.25 2.304-1.224 0-2.214-.918-2.214-2.304 0-1.368.99-2.268 2.214-2.268 1.152 0 2.25.828 2.25 2.268Zm10.514-1.944c0-2.25 1.746-4.104 3.996-4.104 2.214 0 3.996 1.854 3.996 4.104 0 2.268-1.782 4.086-3.996 4.086-2.25 0-3.996-1.818-3.996-4.086Zm-2.286 0c0 3.492 2.754 6.354 6.282 6.354s6.3-2.862 6.3-6.354c0-3.51-2.772-6.372-6.3-6.372s-6.282 2.862-6.282 6.372Zm16.479 1.692c0-1.458.828-1.962 1.836-1.962.954 0 1.602.648 1.602 1.872v4.572h2.196v-4.968c0-2.394-1.17-3.618-3.132-3.618-.99 0-2.016.504-2.502 1.422v-1.242h-2.196v8.406h2.196v-4.482Zm15.871.252c0-2.664-1.89-4.356-4.266-4.356-2.394 0-4.356 1.692-4.356 4.356 0 2.646 1.962 4.41 4.356 4.41 1.548 0 3.15-.594 3.924-2.034a70.625 70.625 0 0 1-1.674-.9c-.414.72-1.26 1.08-2.106 1.08-1.242 0-2.178-.666-2.322-1.8h6.408c.018-.198.036-.54.036-.756Zm-6.462-.738c.162-1.152 1.062-1.782 2.214-1.782 1.08 0 1.944.63 2.106 1.782h-4.32Zm11.25 1.746c.63.144.936.36.918.792 0 .486-.468.828-1.098.846-.81.054-1.494-.468-1.548-1.062h-2.052c.054 1.8 1.728 2.826 3.384 2.826 1.746 0 3.438-.864 3.438-2.592 0-.684-.252-1.98-2.196-2.52l-1.404-.342c-.486-.126-.882-.36-.882-.702 0-.63.504-.828 1.062-.828.504 0 1.08.234 1.134.864h2.088c-.09-1.926-1.674-2.646-3.276-2.646-1.656 0-3.096 1.134-3.096 2.502 0 .972.198 1.998 2.376 2.574l1.152.288Z" fill="#fff"/><defs><linearGradient id="a" x1="310.663" y1="64.675" x2="310.663" y2="103.782" gradientUnits="userSpaceOnUse"><stop stop-color="#fff" stop-opacity="0"/><stop offset=".505" stop-color="#fff"/><stop offset="1" stop-color="#fff" stop-opacity="0"/></linearGradient><linearGradient id="b" x1="317.917" y1="146.956" x2="317.917" y2="186.062" gradientUnits="userSpaceOnUse"><stop stop-color="#fff" stop-opacity="0"/><stop offset=".505" stop-color="#fff"/><stop offset="1" stop-color="#fff" stop-opacity="0"/></linearGradient><linearGradient id="c" x1="325.17" y1="229.236" x2="325.17" y2="268.342" gradientUnits="userSpaceOnUse"><stop stop-color="#fff" stop-opacity="0"/><stop offset=".505" stop-color="#fff"/><stop offset="1" stop-color="#fff" stop-opacity="0"/></linearGradient><linearGradient id="d" x1="332.424" y1="311.516" x2="332.424" y2="350.623" gradientUnits="userSpaceOnUse"><stop stop-color="#fff" stop-opacity="0"/><stop offset=".505" stop-color="#fff"/><stop offset="1" stop-color="#fff" stop-opacity="0"/></linearGradient><linearGradient id="e" x1="339.677" y1="393.796" x2="339.677" y2="432.903" gradientUnits="userSpaceOnUse"><stop stop-color="#fff" stop-opacity="0"/><stop offset=".505" stop-color="#fff"/><stop offset="1" stop-color="#fff" stop-opacity="0"/></linearGradient><linearGradient id="f" x1="339.677" y1="476.076" x2="339.677" y2="515.182" gradientUnits="userSpaceOnUse"><stop stop-color="#fff" stop-opacity="0"/><stop offset=".505" stop-color="#fff"/><stop offset="1" stop-color="#fff" stop-opacity="0"/></linearGradient><linearGradient id="g" x1="339.677" y1="558.355" x2="339.677" y2="597.462" gradientUnits="userSpaceOnUse"><stop stop-color="#fff" stop-opacity="0"/><stop offset=".505" stop-color="#fff"/><stop offset="1" stop-color="#fff" stop-opacity="0"/></linearGradient><linearGradient id="h" x1="99.418" y1="0" x2="99.418" y2="673.834" gradientUnits="userSpaceOnUse"><stop stop-color="#fff" stop-opacity="0"/><stop offset=".505" stop-color="#fff"/><stop offset="1" stop-color="#fff" stop-opacity="0"/></linearGradient><linearGradient id="i" x1="204.245" y1="0" x2="204.245" y2="673.834" gradientUnits="userSpaceOnUse"><stop stop-color="#fff" stop-opacity="0"/><stop offset=".505" stop-color="#fff"/><stop offset="1" stop-color="#fff" stop-opacity="0"/></linearGradient><linearGradient id="j" x1="309.073" y1="0" x2="309.073" y2="673.834" gradientUnits="userSpaceOnUse"><stop stop-color="#fff" stop-opacity="0"/><stop offset=".505" stop-color="#fff"/><stop offset="1" stop-color="#fff" stop-opacity="0"/></linearGradient><linearGradient id="k" x1="413.9" y1="0" x2="413.9" y2="673.834" gradientUnits="userSpaceOnUse"><stop stop-color="#fff" stop-opacity="0"/><stop offset=".505" stop-color="#fff"/><stop offset="1" stop-color="#fff" stop-opacity="0"/></linearGradient><linearGradient id="l" x1="518.727" y1="0" x2="518.727" y2="673.835" gradientUnits="userSpaceOnUse"><stop stop-color="#fff" stop-opacity="0"/><stop offset=".505" stop-color="#fff"/><stop offset="1" stop-color="#fff" stop-opacity="0"/></linearGradient><clipPath id="m"><path fill="#fff" transform="translate(27.823 225.734)" d="M0 0h480v302.673H0z"/></clipPath><clipPath id="n"><path fill="#fff" transform="translate(390.125 498.239)" d="M0 0h41.534v51.113H0z"/></clipPath><clipPath id="o"><path fill="#fff" transform="translate(364.747 154.974)" d="M0 0h82.59v70.76H0z"/></clipPath><clipPath id="p"><path fill="#fff" transform="translate(528.823 481.23)" d="M0 0h75v91H0z"/></clipPath><clipPath id="q"><path fill="#fff" transform="translate(134.15 141.55)" d="M0 0h45.081v35.602H0z"/></clipPath><clipPath id="r"><path fill="#fff" transform="translate(88.88 175.568)" d="M0 0h40.868v27.055H0z"/></clipPath><clipPath id="s"><path fill="#fff" transform="translate(163.269 101.23)" d="M0 0h67.052v63.868H0z"/></clipPath><clipPath id="t"><path fill="#fff" transform="rotate(-60.413 550.621 -318.792)" d="M0 0h32.883v40.466H0z"/></clipPath><clipPath id="u"><path fill="#fff" transform="translate(80.064 525.945)" d="M0 0h58.5v54.646H0z"/></clipPath><clipPath id="v"><path fill="#fff" transform="translate(530.948 196.165)" d="M0 0h91.345v96.728H0z"/></clipPath></defs></svg>