<svg width="801" height="948" fill="none" xmlns="http://www.w3.org/2000/svg"><path d="m134.014 377.792 621.19-39.107" stroke="url(#a)" stroke-width="1.082" stroke-dasharray="2.16 2.16"/><path d="m126.76 460.072 621.191-39.106" stroke="url(#b)" stroke-width="1.082" stroke-dasharray="2.16 2.16"/><path d="m119.507 542.352 621.191-39.107" stroke="url(#c)" stroke-width="1.082" stroke-dasharray="2.16 2.16"/><path d="m112.253 624.633 621.191-39.107" stroke="url(#d)" stroke-width="1.082" stroke-dasharray="2.16 2.16"/><path d="m105 706.913 621.191-39.107" stroke="url(#e)" stroke-width="1.082" stroke-dasharray="2.16 2.16"/><path d="m105 789.192 621.191-39.106" stroke="url(#f)" stroke-width="1.082" stroke-dasharray="2.16 2.16"/><path d="m105 871.472 621.191-39.107" stroke="url(#g)" stroke-width="1.082" stroke-dasharray="2.16 2.16"/><path d="M655.354 274.01v673.834" stroke="url(#h)" stroke-width="1.082" stroke-dasharray="2.16 2.16"/><path d="M550.527 274.01v673.834" stroke="url(#i)" stroke-width="1.082" stroke-dasharray="2.16 2.16"/><path d="M445.699 274.01v673.834" stroke="url(#j)" stroke-width="1.082" stroke-dasharray="2.16 2.16"/><path d="M340.872 274.01v673.834" stroke="url(#k)" stroke-width="1.082" stroke-dasharray="2.16 2.16"/><path d="M236.046 274.01v673.834" stroke="url(#l)" stroke-width="1.082" stroke-dasharray="2.16 2.16"/><g clip-path="url(#m)"><path d="m548.985 669.91-.15 53.107L345.32 841.293l.151-53.107L548.985 669.91Z" fill="#37354F"/><path d="m345.47 788.185-.151 53.107-211.128-121.894.151-53.107L345.47 788.185Z" fill="#212132"/><path d="M548.985 669.91 345.471 788.185 134.343 666.292l203.514-118.276L548.985 669.91Z" fill="#21212C"/><path d="m541.709 620.327-.15 52.052-199.746 116.07.151-52.032 199.745-116.09Z" fill="#B7175D"/><path d="m341.963 736.417-.15 52.032L135.17 669.138l.151-52.033 206.642 119.312Z" fill="#7F1041"/><path d="M541.709 620.327 341.964 736.416 135.321 617.105l199.727-116.09 206.661 119.312Z" fill="#CC1A68"/><path d="m530.855 572.328-.151 53.747-164.937 95.849.15-53.747 164.938-95.849Z" fill="#B81D5B"/><path d="m365.917 668.176-.151 53.748-205.417-118.596.15-53.748 205.418 118.596Z" fill="#80143F"/><path d="m530.855 572.327-164.937 95.849L160.5 549.58l164.937-95.849 205.418 118.596Z" fill="#CD2066"/><path d="m534.604 506.989-.188 67.373-165.013 95.887.208-67.373 164.993-95.887Z" fill="#BA3451"/><path d="m369.611 602.876-.207 67.373L182.04 562.056l.188-67.355 187.383 108.175Z" fill="#812438"/><path d="M534.604 506.989 369.61 602.876 182.228 494.702l164.993-95.887 187.383 108.174Z" fill="#D03B5A"/><path d="m514.646 468.713-.151 51.336-144.772 84.146.132-51.355 144.791-84.127Z" fill="#BD5842"/><path d="m369.856 552.841-.132 51.354-100.391-57.969.151-51.336 100.372 57.951Z" fill="#833D2E"/><path d="M514.648 468.713 369.856 552.84l-100.372-57.95 144.773-84.127 100.391 57.95Z" fill="#D36249"/><path d="m514.477 417.492-.151 51.335-97.658 56.745.151-51.336 97.658-56.744Z" fill="#BE643D"/><path d="m416.819 474.235-.151 51.336-90.402-52.203.15-51.335 90.403 52.202Z" fill="#84452A"/><path d="m514.478 417.491-97.658 56.745-90.403-52.203 97.639-56.744 90.422 52.202Z" fill="#D46F44"/><path d="m514.629 366.213-.151 51.335-59.666 34.676.151-51.354 59.666-34.657Z" fill="#BF6C39"/><path d="m454.963 400.869-.15 51.354-90.384-52.202.15-51.336 90.384 52.184Z" fill="#854B28"/><path d="m514.629 366.212-59.665 34.657-90.384-52.183 59.647-34.676 90.402 52.202Z" fill="#D67940"/><path d="m484.381 297.426-.15 51.335-59.647 34.677.132-51.336 59.665-34.676Z" fill="#C07834"/><path d="m424.716 332.102-.132 51.336-60.062-34.677.151-51.335 60.043 34.676Z" fill="#865324"/><path d="m484.381 297.426-59.665 34.676-60.042-34.676 59.646-34.658 60.061 34.658Z" fill="#D7863B"/><path d="m445.994 224.116-.151 51.335-59.647 34.657.151-51.335 59.647-34.657Z" fill="#C2882E"/><path d="m386.346 258.773-.151 51.336-21.634-12.495.15-51.335 21.635 12.494Z" fill="#875E20"/><path d="m445.993 224.116-59.646 34.657-21.635-12.495 59.646-34.657 21.635 12.495Z" fill="#D89833"/><circle cx="493.49" cy="577.505" r="4.97" fill="#fff"/></g><circle cx="388.398" cy="241.901" r="4.97" fill="#fff"/><path d="m388.398 241.901-112.579 72.412" stroke="#fff"/><g filter="url(#n)"><rect x="72" y="289.01" width="204" height="50" rx="16" fill="#5D5A76"/><path d="M98.26 315.338c-.72 1.008-1.872 1.674-3.222 1.674-2.25 0-3.942-1.854-3.942-4.176 0-2.304 1.692-4.194 3.942-4.194 1.314 0 2.43.648 3.15 1.584l1.836-1.314c-1.08-1.512-2.88-2.448-4.986-2.448-3.528 0-6.246 2.862-6.246 6.372 0 3.492 2.718 6.354 6.246 6.354 2.16 0 3.96-.99 5.04-2.52l-1.818-1.332Zm7.068 1.692c-1.224 0-2.196-.882-2.196-2.25 0-1.35.972-2.196 2.196-2.196 1.224 0 2.196.846 2.196 2.196 0 1.368-.972 2.25-2.196 2.25Zm0 2.142c2.376 0 4.374-1.746 4.374-4.392 0-2.664-1.998-4.356-4.374-4.356-2.376 0-4.374 1.692-4.374 4.356 0 2.646 1.998 4.392 4.374 4.392Zm15.511-6.606c.918 0 1.584.648 1.584 1.872v4.572h2.178v-4.806c0-2.466-1.206-3.78-3.24-3.78-.648 0-1.872.18-2.646 1.584-.486-1.026-1.332-1.494-2.682-1.566-.81 0-1.926.378-2.412 1.404v-1.242h-2.196v8.406h2.196v-4.482c0-1.44.864-1.962 1.764-1.962.864 0 1.53.648 1.548 1.818v4.626h2.196v-4.482c0-1.296.702-1.962 1.71-1.962Zm8.092-1.962h-2.196v12.492h2.196v-5.202c.45.846 1.53 1.296 2.628 1.296 2.196 0 4.104-1.71 4.104-4.392 0-2.646-1.908-4.374-4.104-4.374-1.098 0-2.178.468-2.628 1.314v-1.134Zm.036 4.23c0-1.404 1.026-2.304 2.232-2.304 1.206 0 2.214.918 2.214 2.304 0 1.368-1.008 2.268-2.214 2.268-1.152 0-2.232-.828-2.232-2.268Zm16.52-.054c0-2.664-1.89-4.356-4.266-4.356-2.394 0-4.356 1.692-4.356 4.356 0 2.646 1.962 4.41 4.356 4.41 1.548 0 3.15-.594 3.924-2.034a70.625 70.625 0 0 1-1.674-.9c-.414.72-1.26 1.08-2.106 1.08-1.242 0-2.178-.666-2.322-1.8h6.408c.018-.198.036-.54.036-.756Zm-6.462-.738c.162-1.152 1.062-1.782 2.214-1.782 1.08 0 1.944.63 2.106 1.782h-4.32Zm10.944-6.642h-2.178v3.204h-1.53v1.764h1.53v6.642h2.178v-6.642h1.782v-1.764h-1.782V307.4Zm11.179 7.38c0-2.664-1.89-4.356-4.266-4.356-2.394 0-4.356 1.692-4.356 4.356 0 2.646 1.962 4.41 4.356 4.41 1.548 0 3.15-.594 3.924-2.034a70.625 70.625 0 0 1-1.674-.9c-.414.72-1.26 1.08-2.106 1.08-1.242 0-2.178-.666-2.322-1.8h6.408c.018-.198.036-.54.036-.756Zm-6.462-.738c.162-1.152 1.062-1.782 2.214-1.782 1.08 0 1.944.63 2.106 1.782h-4.32Zm15.163-6.642h-2.178v3.204h-1.53v1.764h1.53v6.642h2.178v-6.642h1.782v-1.764h-1.782V307.4Zm6.93 9.63c-1.224 0-2.196-.882-2.196-2.25 0-1.35.972-2.196 2.196-2.196 1.224 0 2.196.846 2.196 2.196 0 1.368-.972 2.25-2.196 2.25Zm0 2.142c2.376 0 4.374-1.746 4.374-4.392 0-2.664-1.998-4.356-4.374-4.356-2.376 0-4.374 1.692-4.374 4.356 0 2.646 1.998 4.392 4.374 4.392Zm10.621-.162h7.848v-2.052h-5.562v-3.042h4.716v-2.034h-4.716v-3.222h5.382v-2.052H187.4v12.402Zm15.909 0h2.196v-8.406h-2.196v1.044c-.63-.918-1.836-1.224-2.61-1.224-2.214 0-4.284 1.692-4.284 4.374 0 2.682 2.07 4.374 4.284 4.374.81 0 2.088-.378 2.61-1.242v1.08Zm-4.626-4.212c0-1.368 1.098-2.268 2.322-2.268 1.152 0 2.304.828 2.304 2.268s-1.098 2.268-2.304 2.268c-1.224 0-2.322-.9-2.322-2.268Zm11.261 1.242c0-2.232.612-3.564 2.106-3.564.216 0 .756 0 1.278.234l.378-1.98c-.342-.198-.792-.306-1.386-.306-.954 0-1.944.63-2.376 2.16v-1.98h-2.196v8.406h2.196v-2.97Zm7.153-1.512c0-1.458.828-1.962 1.836-1.962.954 0 1.602.648 1.602 1.872v4.572h2.196v-4.968c0-2.394-1.17-3.618-3.132-3.618-.99 0-2.016.504-2.502 1.422v-1.242h-2.196v8.406h2.196v-4.482Zm20.719-4.554c0-2.088-1.386-3.366-3.564-3.366h-4.86v12.402h5.238c2.412 0 3.852-1.71 3.852-3.726 0-1.098-.774-2.52-2.304-2.898 1.242-.486 1.638-1.494 1.638-2.412Zm-6.12 1.62v-2.934h2.322c.918 0 1.404.558 1.404 1.44 0 .846-.486 1.494-1.332 1.494h-2.394Zm2.754 1.926c1.062 0 1.62.918 1.62 1.728 0 .864-.558 1.71-1.566 1.71h-2.808v-3.438h2.754Zm5.384 1.872c0 2.124 1.8 3.816 4.446 3.816 2.25 0 4.266-1.278 4.356-3.51.09-1.458-.594-3.006-3.384-3.78l-1.53-.45c-1.332-.324-1.476-1.062-1.476-1.422 0-.882.828-1.458 1.854-1.458 1.152 0 1.854.63 1.854 1.62h2.304c0-2.304-1.782-3.744-4.122-3.744-2.286 0-4.176 1.458-4.176 3.636 0 1.08.432 2.682 3.132 3.456l1.53.396c1.188.324 1.764.882 1.71 1.692-.054.846-.81 1.494-2.052 1.494-1.332 0-2.088-.828-2.142-1.746h-2.304Zm9.48-8.784 3.78 12.402h2.07l3.762-12.402h-2.394l-2.412 8.64-2.412-8.64h-2.394Z" fill="#fff"/></g><path d="m494.893 577.202 62.771-60.809" stroke="#fff"/><g filter="url(#o)"><rect x="557.5" y="491.097" width="163" height="50" rx="16" fill="#5D5A76"/><path d="M574.328 517.479c0 2.124 1.8 3.816 4.446 3.816 2.25 0 4.266-1.278 4.356-3.51.09-1.458-.594-3.006-3.384-3.78l-1.53-.45c-1.332-.324-1.476-1.062-1.476-1.422 0-.882.828-1.458 1.854-1.458 1.152 0 1.854.63 1.854 1.62h2.304c0-2.304-1.782-3.744-4.122-3.744-2.286 0-4.176 1.458-4.176 3.636 0 1.08.432 2.682 3.132 3.456l1.53.396c1.188.324 1.764.882 1.71 1.692-.054.846-.81 1.494-2.052 1.494-1.332 0-2.088-.828-2.142-1.746h-2.304Zm13.348-7.992h-2.178v3.204h-1.53v1.764h1.53v6.642h2.178v-6.642h1.782v-1.764h-1.782v-3.204Zm9.451 11.61h2.196v-8.406h-2.196v1.044c-.63-.918-1.836-1.224-2.61-1.224-2.214 0-4.284 1.692-4.284 4.374 0 2.682 2.07 4.374 4.284 4.374.81 0 2.088-.378 2.61-1.242v1.08Zm-4.626-4.212c0-1.368 1.098-2.268 2.322-2.268 1.152 0 2.304.828 2.304 2.268s-1.098 2.268-2.304 2.268c-1.224 0-2.322-.9-2.322-2.268Zm8.524-.018c0 2.646 2.124 4.41 4.536 4.41 1.44 0 2.718-.594 3.51-1.656l-1.764-1.296c-.414.558-1.044.846-1.746.846-1.224 0-2.358-.936-2.358-2.304 0-1.368 1.134-2.232 2.358-2.232.702 0 1.332.27 1.746.828l1.746-1.314c-.792-1.062-2.07-1.638-3.492-1.638-2.412 0-4.536 1.692-4.536 4.356Zm14.991 4.23h2.754l-4.284-4.716 3.528-3.69h-2.844l-2.322 2.52v-7.092h-2.178v12.978h2.178v-3.6l3.168 3.6Zm10.839-11.61h-2.178v3.204h-1.53v1.764h1.53v6.642h2.178v-6.642h1.782v-1.764h-1.782v-3.204Zm5.38 7.128c0-1.458 1.098-1.962 2.016-1.962.9 0 1.782.666 1.782 1.872v4.572h2.196v-4.68c0-2.466-1.206-3.906-3.384-3.906-.828 0-2.232.468-2.61 1.476v-5.868h-2.196v12.978h2.196v-4.482Zm16.222.252c0-2.664-1.89-4.356-4.266-4.356-2.394 0-4.356 1.692-4.356 4.356 0 2.646 1.962 4.41 4.356 4.41 1.548 0 3.15-.594 3.924-2.034a70.625 70.625 0 0 1-1.674-.9c-.414.72-1.26 1.08-2.106 1.08-1.242 0-2.178-.666-2.322-1.8h6.408c.018-.198.036-.54.036-.756Zm-6.462-.738c.162-1.152 1.062-1.782 2.214-1.782 1.08 0 1.944.63 2.106 1.782h-4.32Zm14.515.738c0-1.44 1.098-2.268 2.232-2.268 1.224 0 2.214.9 2.214 2.268 0 1.386-.99 2.304-2.214 2.304-1.206 0-2.232-.9-2.232-2.304Zm-.036 4.23v-1.134c.45.846 1.53 1.314 2.628 1.314 2.214 0 4.122-1.71 4.122-4.374 0-2.682-1.908-4.392-4.122-4.392-1.134 0-2.178.45-2.628 1.296v-5.688h-2.196v12.978h2.196Zm8.474 0h2.196v-12.978h-2.196v12.978Zm8.281-1.98c-1.224 0-2.196-.882-2.196-2.25 0-1.35.972-2.196 2.196-2.196 1.224 0 2.196.846 2.196 2.196 0 1.368-.972 2.25-2.196 2.25Zm0 2.142c2.376 0 4.374-1.746 4.374-4.392 0-2.664-1.998-4.356-4.374-4.356-2.376 0-4.374 1.692-4.374 4.356 0 2.646 1.998 4.392 4.374 4.392Zm5.557-4.392c0 2.646 2.124 4.41 4.536 4.41 1.44 0 2.718-.594 3.51-1.656l-1.764-1.296c-.414.558-1.044.846-1.746.846-1.224 0-2.358-.936-2.358-2.304 0-1.368 1.134-2.232 2.358-2.232.702 0 1.332.27 1.746.828l1.746-1.314c-.792-1.062-2.07-1.638-3.492-1.638-2.412 0-4.536 1.692-4.536 4.356Zm14.991 4.23h2.754l-4.284-4.716 3.528-3.69h-2.844l-2.322 2.52v-7.092h-2.178v12.978h2.178v-3.6l3.168 3.6Zm6.681-3.222c.63.144.936.36.918.792 0 .486-.468.828-1.098.846-.81.054-1.494-.468-1.548-1.062h-2.052c.054 1.8 1.728 2.826 3.384 2.826 1.746 0 3.438-.864 3.438-2.592 0-.684-.252-1.98-2.196-2.52l-1.404-.342c-.486-.126-.882-.36-.882-.702 0-.63.504-.828 1.062-.828.504 0 1.08.234 1.134.864h2.088c-.09-1.926-1.674-2.646-3.276-2.646-1.656 0-3.096 1.134-3.096 2.502 0 .972.198 1.998 2.376 2.574l1.152.288Z" fill="#fff"/></g><g clip-path="url(#p)"><path d="m750.39 685.976-13.862 30.379-210.643 21.305 13.861-30.358 210.644-21.326Z" fill="#A22E47"/><path d="m539.747 707.302-13.862 30.358-27.911-38.951 13.882-30.379 27.891 38.972Z" fill="#85263A"/><path d="m750.39 685.976-210.644 21.326-27.891-38.972 210.644-21.304 27.891 38.95Z" fill="#E34063"/></g><g clip-path="url(#q)"><path d="m591.756 795.229-.085 27.238-121.314 18.825.069-27.22 121.33-18.843Z" fill="#B65F3A"/><path d="m470.427 814.071-.069 27.221-10.344-22.091.068-27.238 10.345 22.108Z" fill="#7B4128"/><path d="m581.395 773.121 10.362 22.108-121.33 18.842-10.345-22.108 121.313-18.842Z" fill="#D46F44"/></g><defs><linearGradient id="a" x1="444.609" y1="338.685" x2="444.609" y2="377.792" gradientUnits="userSpaceOnUse"><stop stop-color="#fff" stop-opacity="0"/><stop offset=".505" stop-color="#fff"/><stop offset="1" stop-color="#fff" stop-opacity="0"/></linearGradient><linearGradient id="b" x1="437.355" y1="420.966" x2="437.355" y2="460.072" gradientUnits="userSpaceOnUse"><stop stop-color="#fff" stop-opacity="0"/><stop offset=".505" stop-color="#fff"/><stop offset="1" stop-color="#fff" stop-opacity="0"/></linearGradient><linearGradient id="c" x1="430.102" y1="503.245" x2="430.102" y2="542.352" gradientUnits="userSpaceOnUse"><stop stop-color="#fff" stop-opacity="0"/><stop offset=".505" stop-color="#fff"/><stop offset="1" stop-color="#fff" stop-opacity="0"/></linearGradient><linearGradient id="d" x1="422.848" y1="585.526" x2="422.848" y2="624.633" gradientUnits="userSpaceOnUse"><stop stop-color="#fff" stop-opacity="0"/><stop offset=".505" stop-color="#fff"/><stop offset="1" stop-color="#fff" stop-opacity="0"/></linearGradient><linearGradient id="e" x1="415.595" y1="667.806" x2="415.595" y2="706.913" gradientUnits="userSpaceOnUse"><stop stop-color="#fff" stop-opacity="0"/><stop offset=".505" stop-color="#fff"/><stop offset="1" stop-color="#fff" stop-opacity="0"/></linearGradient><linearGradient id="f" x1="415.595" y1="750.086" x2="415.595" y2="789.192" gradientUnits="userSpaceOnUse"><stop stop-color="#fff" stop-opacity="0"/><stop offset=".505" stop-color="#fff"/><stop offset="1" stop-color="#fff" stop-opacity="0"/></linearGradient><linearGradient id="g" x1="415.595" y1="832.365" x2="415.595" y2="871.472" gradientUnits="userSpaceOnUse"><stop stop-color="#fff" stop-opacity="0"/><stop offset=".505" stop-color="#fff"/><stop offset="1" stop-color="#fff" stop-opacity="0"/></linearGradient><linearGradient id="h" x1="655.854" y1="274.01" x2="655.854" y2="947.844" gradientUnits="userSpaceOnUse"><stop stop-color="#fff" stop-opacity="0"/><stop offset=".505" stop-color="#fff"/><stop offset="1" stop-color="#fff" stop-opacity="0"/></linearGradient><linearGradient id="i" x1="551.027" y1="274.01" x2="551.027" y2="947.844" gradientUnits="userSpaceOnUse"><stop stop-color="#fff" stop-opacity="0"/><stop offset=".505" stop-color="#fff"/><stop offset="1" stop-color="#fff" stop-opacity="0"/></linearGradient><linearGradient id="j" x1="446.199" y1="274.01" x2="446.199" y2="947.844" gradientUnits="userSpaceOnUse"><stop stop-color="#fff" stop-opacity="0"/><stop offset=".505" stop-color="#fff"/><stop offset="1" stop-color="#fff" stop-opacity="0"/></linearGradient><linearGradient id="k" x1="341.372" y1="274.01" x2="341.372" y2="947.844" gradientUnits="userSpaceOnUse"><stop stop-color="#fff" stop-opacity="0"/><stop offset=".505" stop-color="#fff"/><stop offset="1" stop-color="#fff" stop-opacity="0"/></linearGradient><linearGradient id="l" x1="236.546" y1="274.01" x2="236.546" y2="947.844" gradientUnits="userSpaceOnUse"><stop stop-color="#fff" stop-opacity="0"/><stop offset=".505" stop-color="#fff"/><stop offset="1" stop-color="#fff" stop-opacity="0"/></linearGradient><clipPath id="m"><path fill="#fff" transform="translate(134.191 211.621)" d="M0 0h414.793v629.671H0z"/></clipPath><clipPath id="p"><path fill="#fff" transform="translate(497.974 647.026)" d="M0 0h252.417v90.655H0z"/></clipPath><clipPath id="q"><path fill="#fff" transform="translate(460.014 773.121)" d="M0 0h131.743v68.171H0z"/></clipPath><filter id="n" x="68" y="285.01" width="212" height="58" filterUnits="userSpaceOnUse" color-interpolation-filters="sRGB"><feFlood flood-opacity="0" result="BackgroundImageFix"/><feGaussianBlur in="BackgroundImage" stdDeviation="2"/><feComposite in2="SourceAlpha" operator="in" result="effect1_backgroundBlur"/><feBlend in="SourceGraphic" in2="effect1_backgroundBlur" result="shape"/></filter><filter id="o" x="553.5" y="487.097" width="171" height="58" filterUnits="userSpaceOnUse" color-interpolation-filters="sRGB"><feFlood flood-opacity="0" result="BackgroundImageFix"/><feGaussianBlur in="BackgroundImage" stdDeviation="2"/><feComposite in2="SourceAlpha" operator="in" result="effect1_backgroundBlur"/><feBlend in="SourceGraphic" in2="effect1_backgroundBlur" result="shape"/></filter></defs></svg>