<svg width="32" height="33" viewBox="0 0 32 33" fill="none" xmlns="http://www.w3.org/2000/svg">
<path opacity="0.4" d="M29.3346 10.5534V22.4468C29.3346 25.5001 26.8546 27.9667 23.8013 27.9667H8.2013C5.14797 27.9667 2.66797 25.5001 2.66797 22.4468V10.5534C2.66797 7.50005 5.14797 5.03345 8.2013 5.03345H23.8013C26.8546 5.03345 29.3346 7.50005 29.3346 10.5534Z" fill="#0075FF"/>
<path d="M12.3333 17.5H7C6.45333 17.5 6 17.0467 6 16.5C6 15.9533 6.45333 15.5 7 15.5H12.3333C12.88 15.5 13.3333 15.9533 13.3333 16.5C13.3333 17.0467 12.88 17.5 12.3333 17.5Z" fill="#0075FF"/>
<path d="M24.8533 16.06C25.04 15.6866 25.16 15.2733 25.16 14.8333C25.16 13.4067 23.92 12.1667 22.4933 12.1667H21.68V11.5C21.68 10.9533 21.2267 10.5 20.68 10.5C20.1333 10.5 19.68 10.9533 19.68 11.5V12.1667H18.3333H17C16.4533 12.1667 16 12.62 16 13.1667C16 13.7133 16.4533 14.1667 17 14.1667H17.3333V16.5V18.8333H17C16.4533 18.8333 16 19.2867 16 19.8333C16 20.38 16.4533 20.8333 17 20.8333H18.3333H19.68V21.5C19.68 22.0467 20.1333 22.5 20.68 22.5C21.2267 22.5 21.68 22.0467 21.68 21.5V20.8333H23.0933C24.6933 20.8333 26 19.6333 26 18.1667C26 17.3 25.5467 16.5533 24.8533 16.06ZM19.92 14.1667H22.5067C22.8533 14.1667 23.1733 14.54 23.1733 14.8333C23.1733 15.2067 22.88 15.5 22.5067 15.5H19.3333V14.1667H19.92ZM23.0933 18.8333H19.92H19.3333V17.5H22.5067H23.1067C23.6 17.5 24.0133 17.8067 24.0133 18.1667C24.0133 18.5267 23.5867 18.8333 23.0933 18.8333Z" fill="#0075FF"/>
</svg>
