<svg width="25" height="24" viewBox="0 0 25 24" fill="none" xmlns="http://www.w3.org/2000/svg">
<path opacity="0.4" d="M17.1961 13.38H14.5921C12.4561 13.38 10.7161 11.652 10.7161 9.504V6.9C10.7161 6.408 10.3201 6 9.81609 6H6.01209C3.24009 6 0.996094 7.8 0.996094 11.016V18.984C0.996094 22.2 3.24009 24 6.01209 24H13.0801C15.8521 24 18.0961 22.2 18.0961 18.984V14.28C18.0961 13.776 17.6881 13.38 17.1961 13.38Z" fill="#666F99"/>
<path d="M19.9822 0H12.9142C10.2022 0 8.00616 1.728 7.91016 4.812C7.98216 4.812 8.04216 4.8 8.11416 4.8H15.1822C17.9542 4.8 20.1982 6.6 20.1982 9.816V17.796C20.1982 17.868 20.1862 17.928 20.1862 17.988C22.8622 17.904 24.9982 16.128 24.9982 12.996V5.016C24.9982 1.8 22.7542 0 19.9822 0Z" fill="#666F99"/>
<path d="M12.9728 6.18029C12.6008 5.80829 11.9648 6.06029 11.9648 6.57629V9.72029C11.9648 11.0403 13.0808 12.1203 14.4488 12.1203C15.3008 12.1323 16.4888 12.1323 17.5088 12.1323C18.0248 12.1323 18.2888 11.5323 17.9288 11.1723C16.6208 9.86429 14.2928 7.52429 12.9728 6.18029V6.18029Z" fill="#666F99"/>
</svg>
