<svg width="24" height="25" viewBox="0 0 24 25" fill="none" xmlns="http://www.w3.org/2000/svg">
<path opacity="0.4" d="M20.5 10.4849H17.61C15.24 10.4849 13.31 8.55492 13.31 6.18492V3.29492C13.31 2.74492 12.86 2.29492 12.31 2.29492H8.07C4.99 2.29492 2.5 4.29492 2.5 7.86492V16.7249C2.5 20.2949 4.99 22.2949 8.07 22.2949H15.93C19.01 22.2949 21.5 20.2949 21.5 16.7249V11.4849C21.5 10.9349 21.05 10.4849 20.5 10.4849Z" fill="#0075FF"/>
<path d="M15.7997 2.50491C15.3897 2.09491 14.6797 2.37492 14.6797 2.94491V6.43491C14.6797 7.89491 15.9197 9.10492 17.4297 9.10492C18.3797 9.11492 19.6997 9.11491 20.8297 9.11491C21.3997 9.11491 21.6997 8.44491 21.2997 8.04491C19.8597 6.59491 17.2797 3.98491 15.7997 2.50491Z" fill="#0075FF"/>
<path d="M11.5314 12.7649L9.53141 10.7649C9.52141 10.7549 9.51141 10.7549 9.51141 10.7449C9.45141 10.6849 9.37141 10.6349 9.29141 10.5949C9.28141 10.5949 9.28141 10.5949 9.27141 10.5949C9.19141 10.5649 9.11141 10.5549 9.03141 10.5449C9.00141 10.5449 8.98141 10.5449 8.95141 10.5449C8.89141 10.5449 8.82141 10.5649 8.76141 10.5849C8.73141 10.5949 8.71141 10.6049 8.69141 10.6149C8.61141 10.6549 8.53141 10.6949 8.47141 10.7649L6.47141 12.7649C6.18141 13.0549 6.18141 13.5349 6.47141 13.8249C6.76141 14.1149 7.24141 14.1149 7.53141 13.8249L8.25141 13.1049V17.2949C8.25141 17.7049 8.59141 18.0449 9.00141 18.0449C9.41141 18.0449 9.75141 17.7049 9.75141 17.2949V13.1049L10.4714 13.8249C10.6214 13.9749 10.8114 14.0449 11.0014 14.0449C11.1914 14.0449 11.3814 13.9749 11.5314 13.8249C11.8214 13.5349 11.8214 13.0549 11.5314 12.7649Z" fill="#0075FF"/>
</svg>
