<svg width="24" height="25" viewBox="0 0 24 25" fill="none" xmlns="http://www.w3.org/2000/svg">
<path opacity="0.4" d="M16.24 2.29492H7.76C5 2.29492 4 3.29492 4 6.10492V18.4849C4 21.2949 5 22.2949 7.76 22.2949H16.23C19 22.2949 20 21.2949 20 18.4849V6.10492C20 3.29492 19 2.29492 16.24 2.29492Z" fill="white"/>
<path d="M14 6.54492H10C9.59 6.54492 9.25 6.20492 9.25 5.79492C9.25 5.38492 9.59 5.04492 10 5.04492H14C14.41 5.04492 14.75 5.38492 14.75 5.79492C14.75 6.20492 14.41 6.54492 14 6.54492Z" fill="white"/>
<path d="M12 19.5947C12.9665 19.5947 13.75 18.8112 13.75 17.8447C13.75 16.8782 12.9665 16.0947 12 16.0947C11.0335 16.0947 10.25 16.8782 10.25 17.8447C10.25 18.8112 11.0335 19.5947 12 19.5947Z" fill="white"/>
</svg>
