<svg width="32" height="32" viewBox="0 0 32 32" fill="none" xmlns="http://www.w3.org/2000/svg">
<path opacity="0.4" d="M22.668 10.3334C22.4146 10.3334 22.1613 10.2401 21.9613 10.0401C21.5746 9.65341 21.5746 9.01342 21.9613 8.62675L24.6946 5.89341C22.348 3.89341 19.3213 2.66675 16.0013 2.66675C8.6413 2.66675 2.66797 8.64008 2.66797 16.0001C2.66797 23.3601 8.6413 29.3334 16.0013 29.3334C23.3613 29.3334 29.3346 23.3601 29.3346 16.0001C29.3346 12.6801 28.108 9.65342 26.108 7.30675L23.3746 10.0401C23.1746 10.2401 22.9213 10.3334 22.668 10.3334Z" fill="#0075FF"/>
<path d="M18.3346 15.76L17.0013 15.2933V12.3333H17.108C17.788 12.3333 18.3346 12.9333 18.3346 13.6667C18.3346 14.2133 18.788 14.6667 19.3346 14.6667C19.8813 14.6667 20.3346 14.2133 20.3346 13.6667C20.3346 11.8267 18.8946 10.3333 17.108 10.3333H17.0013V10C17.0013 9.45333 16.548 9 16.0013 9C15.4546 9 15.0013 9.45333 15.0013 10V10.3333H14.6013C12.988 10.3333 11.668 11.6933 11.668 13.3733C11.668 15.32 12.8013 15.9467 13.668 16.2533L15.0013 16.72V19.68H14.8947C14.2147 19.68 13.668 19.08 13.668 18.3467C13.668 17.8 13.2146 17.3467 12.668 17.3467C12.1213 17.3467 11.668 17.8 11.668 18.3467C11.668 20.1867 13.108 21.68 14.8947 21.68H15.0013V22.0133C15.0013 22.56 15.4546 23.0133 16.0013 23.0133C16.548 23.0133 17.0013 22.56 17.0013 22.0133V21.68H17.4013C19.0146 21.68 20.3346 20.32 20.3346 18.64C20.3346 16.68 19.2013 16.0533 18.3346 15.76ZM14.3213 14.3467C13.868 14.1867 13.668 14.0933 13.668 13.36C13.668 12.7867 14.0947 12.32 14.6013 12.32H15.0013V14.5733L14.3213 14.3467ZM17.4013 19.6667H17.0013V17.4133L17.6813 17.6533C18.1346 17.8133 18.3346 17.9067 18.3346 18.64C18.3346 19.2 17.908 19.6667 17.4013 19.6667Z" fill="#0075FF"/>
<path d="M30.255 2.27999C30.1483 2.03999 29.9616 1.83999 29.7083 1.73333C29.5883 1.67999 29.4549 1.65332 29.3216 1.65332H23.9883C23.4416 1.65332 22.9883 2.10665 22.9883 2.65332C22.9883 3.19999 23.4416 3.65332 23.9883 3.65332H26.9083L24.6816 5.87999C25.1883 6.31999 25.655 6.78666 26.095 7.29332L28.3216 5.06666V7.99999C28.3216 8.54666 28.7749 8.99999 29.3216 8.99999C29.8683 8.99999 30.3216 8.54666 30.3216 7.99999V2.66666C30.3349 2.53332 30.3083 2.41332 30.255 2.27999Z" fill="#0075FF"/>
</svg>
