<svg xmlns="http://www.w3.org/2000/svg" xmlns:xlink="http://www.w3.org/1999/xlink" width="325.71" height="344.91"><defs><linearGradient id="linear-gradient" x1="311.06" y1="113.2" x2="256.5" y2="122.31" gradientTransform="rotate(46.57 130.41 220.54)" gradientUnits="userSpaceOnUse"><stop offset="0" stop-color="#00baff"/><stop offset="1" stop-color="#b13e96"/></linearGradient><linearGradient id="linear-gradient-2" x1="397.28" y1="104.26" x2="-35.35" y2="176.5" xlink:href="#linear-gradient"/><linearGradient id="linear-gradient-3" x1="4195.31" y1="739.88" x2="5239.98" y2="592.56" gradientTransform="rotate(-133.43 2400.29 1412.24)" gradientUnits="userSpaceOnUse"><stop offset="0" stop-color="#0a42b9"/><stop offset=".08" stop-color="#1e52bf"/><stop offset=".54" stop-color="#96aee1"/><stop offset=".85" stop-color="#e1e8f7"/><stop offset="1" stop-color="#fff"/></linearGradient><linearGradient id="linear-gradient-4" x1="309.55" y1="118.26" x2="286.95" y2="122.03" xlink:href="#linear-gradient"/><linearGradient id="linear-gradient-5" x1="4627.29" y1="688.44" x2="4683.63" y2="680.5" xlink:href="#linear-gradient-3"/><linearGradient id="linear-gradient-6" x1="4197.69" y1="715.74" x2="5228.23" y2="570.41" xlink:href="#linear-gradient-3"/><linearGradient id="linear-gradient-7" x1="401.18" y1="127.62" x2="-31.45" y2="199.87" xlink:href="#linear-gradient"/><linearGradient id="linear-gradient-9" x1="310.45" y1="120.28" x2="293.73" y2="123.07" xlink:href="#linear-gradient"/><linearGradient id="linear-gradient-10" x1="4631.47" y1="685.73" x2="4673.24" y2="679.84" xlink:href="#linear-gradient-3"/><linearGradient id="linear-gradient-11" x1="4631.7" y1="685.7" x2="4672.9" y2="679.89" xlink:href="#linear-gradient-3"/><linearGradient id="linear-gradient-12" x1="400.12" y1="121.27" x2="-32.51" y2="193.51" xlink:href="#linear-gradient"/><linearGradient id="linear-gradient-13" x1="4193.23" y1="726.95" x2="5237.9" y2="579.62" xlink:href="#linear-gradient-3"/><linearGradient id="linear-gradient-14" x1="4198.89" y1="726.15" x2="5229.44" y2="580.81" xlink:href="#linear-gradient-3"/><linearGradient id="linear-gradient-15" x1="4431.99" y1="697.48" x2="5018.59" y2="724.69" xlink:href="#linear-gradient-3"/><linearGradient id="linear-gradient-16" x1="4644.82" y1="693.83" x2="4690.71" y2="695.96" xlink:href="#linear-gradient-3"/><linearGradient id="linear-gradient-17" x1="4654.42" y1="694.69" x2="4689.38" y2="694.04" xlink:href="#linear-gradient-3"/><linearGradient id="linear-gradient-18" x1="4423.67" y1="688.44" x2="5032.49" y2="716.67" xlink:href="#linear-gradient-3"/><linearGradient id="linear-gradient-19" x1="4546.82" y1="709.82" x2="5036.63" y2="700.68" xlink:href="#linear-gradient-3"/><linearGradient id="linear-gradient-20" x1="309.41" y1="122.63" x2="309.5" y2="122.54" gradientTransform="rotate(46.57 130.41 220.54)" gradientUnits="userSpaceOnUse"><stop offset="0" stop-color="#c800a6"/><stop offset=".39" stop-color="#ff0053"/><stop offset=".4" stop-color="#ff0451"/><stop offset=".67" stop-color="#fd5429"/><stop offset=".89" stop-color="#fc900c"/><stop offset="1" stop-color="#fba700"/></linearGradient><linearGradient id="linear-gradient-21" x1="298.79" y1="111.38" x2="293.65" y2="112.24" xlink:href="#linear-gradient"/><linearGradient id="linear-gradient-22" x1="4.16" y1="349.83" x2="277.96" y2="63.43" xlink:href="#linear-gradient-20"/><linearGradient id="linear-gradient-23" x1="-16.51" y1="330.07" x2="257.29" y2="43.67" xlink:href="#linear-gradient-20"/><linearGradient id="linear-gradient-24" x1="-16.52" y1="330.08" x2="257.35" y2="43.62" xlink:href="#linear-gradient-20"/><linearGradient id="linear-gradient-25" x1="-19.69" y1="327.04" x2="254.17" y2="40.58" xlink:href="#linear-gradient-20"/><linearGradient id="linear-gradient-28" x1="-74.5" y1="244.81" x2="83.72" y2="79.31" xlink:href="#linear-gradient-20"/><linearGradient id="linear-gradient-29" x1="-74.51" y1="244.82" x2="83.75" y2="79.28" xlink:href="#linear-gradient-20"/><linearGradient id="linear-gradient-30" x1="-85.5" y1="264.12" x2="188.3" y2="-22.28" xlink:href="#linear-gradient-20"/><linearGradient id="linear-gradient-31" x1="-86.38" y1="263.27" x2="187.42" y2="-23.12" xlink:href="#linear-gradient-20"/><linearGradient id="linear-gradient-32" x1="-86.39" y1="263.28" x2="187.47" y2="-23.18" xlink:href="#linear-gradient-20"/><linearGradient id="linear-gradient-33" x1="-87.88" y1="261.85" x2="185.98" y2="-24.61" xlink:href="#linear-gradient-20"/><linearGradient id="linear-gradient-34" x1="-86.98" y1="262.7" x2="186.82" y2="-23.7" xlink:href="#linear-gradient-20"/><linearGradient id="linear-gradient-35" x1="-86.98" y1="262.71" x2="186.88" y2="-23.75" xlink:href="#linear-gradient-20"/><linearGradient id="linear-gradient-36" x1="392.17" y1="73.66" x2="-40.46" y2="145.91" xlink:href="#linear-gradient"/><linearGradient id="linear-gradient-37" x1="389.83" y1="59.63" x2="-42.8" y2="131.88" xlink:href="#linear-gradient"/><linearGradient id="linear-gradient-38" x1="385.08" y1="31.22" x2="-47.55" y2="103.46" xlink:href="#linear-gradient"/><linearGradient id="linear-gradient-39" x1="384.33" y1="26.7" x2="-48.3" y2="98.94" xlink:href="#linear-gradient"/><radialGradient id="radial-gradient" cx="4654.86" cy="687.42" r="12.03" gradientTransform="rotate(-133.43 2400.29 1412.24)" gradientUnits="userSpaceOnUse"><stop offset="0" stop-color="#fff"/><stop offset="1"/></radialGradient><radialGradient id="radial-gradient-2" cx="4660.88" cy="656.99" r="43.4" xlink:href="#radial-gradient"/><radialGradient id="radial-gradient-3" cx="4822.07" cy="728.16" r="244.74" xlink:href="#radial-gradient"/><radialGradient id="radial-gradient-4" cx="4822.32" cy="728.16" r="244.42" xlink:href="#radial-gradient"/><radialGradient id="radial-gradient-5" cx="4996.77" cy="635.77" r="57.08" xlink:href="#radial-gradient"/><radialGradient id="radial-gradient-6" cx="6.07" cy="104.17" r="10.96" xlink:href="#radial-gradient"/><radialGradient id="radial-gradient-8" cx="4796.63" cy="581.9" r="214.13" xlink:href="#radial-gradient"/><radialGradient id="radial-gradient-9" cx="90.11" cy="26.21" r="16.49" gradientTransform="matrix(1.01 0 0 1.01 -1.02 -1.67)" xlink:href="#radial-gradient"/><style>.cls-16,.cls-8{mix-blend-mode:multiply}.cls-8{fill:url(#linear-gradient-6)}.cls-30{mix-blend-mode:screen}.cls-27{fill:url(#linear-gradient-23)}.cls-28{fill:url(#linear-gradient-24)}.cls-30{fill:url(#radial-gradient-3)}.cls-48{fill:#fff}</style></defs><g style="isolation:isolate"><g id="Layer_2" data-name="Layer 2"><g id="Layer_1-2" data-name="Layer 1"><path d="M324.72 281.72v.41m0-15.99v.65" fill="none"/><path d="M324.72 267.62v8.73" fill="url(#linear-gradient)"/><path d="m55.66 58.43-12.7 24.25 281.76 196.83v-3.16L55.66 58.43z" fill="url(#linear-gradient-2)"/><path style="mix-blend-mode:multiply" d="m55.66 58.43-12.7 24.25 281.76 196.83v-3.16L55.66 58.43z" fill="url(#linear-gradient-3)"/><path d="M324.72 276.35v3.16" fill="url(#linear-gradient-4)"/><path style="mix-blend-mode:multiply" d="M324.72 276.35v3.16" fill="url(#linear-gradient-5)"/><path class="cls-8" d="m42.96 82.68-9.58 18.29 9.58-18.29z"/><path d="m42.96 82.68-9.58 18.29 9.58-18.29z" fill="url(#linear-gradient-7)"/><path class="cls-8" d="m42.96 82.68-9.58 18.29 9.58-18.29z"/><path d="M324.72 279.51v2.21" fill="url(#linear-gradient-9)"/><path style="mix-blend-mode:multiply" d="M324.72 279.51v2.21" fill="url(#linear-gradient-10)"/><path style="mix-blend-mode:multiply" d="M324.72 279.51v2.21" fill="url(#linear-gradient-11)"/><path d="m42.96 82.68-9.58 18.29 291.34 180.75v-2.21L42.96 82.68z" fill="url(#linear-gradient-12)"/><path style="mix-blend-mode:multiply" d="m42.96 83.09-9.58 18.29 291.34 180.75v-2.21L42.96 83.09z" fill="url(#linear-gradient-13)"/><path style="mix-blend-mode:multiply" d="m42.96 83.09-9.58 18.29 291.34 180.75v-2.21L42.96 83.09z" fill="url(#linear-gradient-14)"/><path d="m179.71 76.59 145.01 184.97v-4.96L193.9 73.75" class="cls-16" fill="url(#linear-gradient-15)"/><path style="mix-blend-mode:multiply" d="M324.72 261.56v5.23" fill="url(#linear-gradient-16)"/><path style="mix-blend-mode:multiply" d="M324.72 261.56v5.23" fill="url(#linear-gradient-17)"/><path style="mix-blend-mode:multiply" d="M179.71 76.59 162 80.12l162.72 186.67v-5.23L179.71 76.59z" fill="url(#linear-gradient-18)"/><path style="mix-blend-mode:multiply" d="M179.71 76.59 162 80.12l162.72 186.67v-5.23L179.71 76.59z" fill="url(#linear-gradient-19)"/><path d="M324.72 282.13v2.17" fill="url(#linear-gradient-20)"/><path style="mix-blend-mode:screen" d="M324.72 282.13v2.17" fill="url(#radial-gradient)"/><path d="M324.72 266.79v.83" fill="url(#linear-gradient-21)"/><path style="mix-blend-mode:screen" d="M324.72 266.79v.83" fill="url(#radial-gradient-2)"/><path d="M6.42 98.35A6.47 6.47 0 0 1 0 92.58l8.2 234.59a14.79 14.79 0 0 0 14.6 14.27l287 3.47a14.79 14.79 0 0 0 15-14.79v-45.8L11.24 96.14a6.44 6.44 0 0 1-4.82 2.21Z" fill="url(#linear-gradient-22)"/><path class="cls-27" d="M11.24 96.14 324.72 284.3 11.24 96.14z"/><path class="cls-28" d="M11.24 96.14 324.72 284.3 11.24 96.14z"/><path d="M11.13 87.34A6.52 6.52 0 0 1 13 91.82a6.46 6.46 0 0 1-1.71 4.32L324.72 284.3v-2.17Z" fill="url(#linear-gradient-25)"/><path class="cls-30" d="M11.13 87.34A6.52 6.52 0 0 1 13 91.82a6.46 6.46 0 0 1-1.71 4.32L324.72 284.3v-2.17Z"/><path class="cls-27" d="M11.24 96.14 324.72 284.3 11.24 96.14z"/><path class="cls-28" d="M11.24 96.14 324.72 284.3 11.24 96.14z"/><path style="mix-blend-mode:screen" d="M11.24 96.14 324.72 284.3 11.24 96.14z" fill="url(#radial-gradient-4)"/><path d="M.38 89.4a6.37 6.37 0 0 1 1.06-1.65" fill="url(#linear-gradient-28)"/><path d="M.38 89.4a6.37 6.37 0 0 1 1.06-1.65" fill="url(#linear-gradient-29)"/><path d="M.38 89.4a6.37 6.37 0 0 1 1.06-1.65" style="mix-blend-mode:screen" fill="url(#radial-gradient-5)"/><path d="m8.51 85.72 2.62 1.62" fill="url(#radial-gradient-6)"/><path d="M6.42 98.35a6.44 6.44 0 0 0 4.82-2.21L.34 89.6A6.67 6.67 0 0 0 0 91.29v1.29a6.47 6.47 0 0 0 6.42 5.77Z" fill="url(#linear-gradient-30)"/><path d="M.38 89.4v.2l10.9 6.54L.94 90a2.13 2.13 0 0 1-.56-.6Z" fill="url(#linear-gradient-31)"/><path d="M.38 89.4v.2l10.9 6.54L.94 90a2.13 2.13 0 0 1-.56-.6Z" fill="url(#linear-gradient-32)"/><path d="M1.44 87.75a14.75 14.75 0 0 0 5.36 5.73l4.44 2.66A6.46 6.46 0 0 0 13 91.82a6.52 6.52 0 0 0-1.82-4.48l-2.67-1.62a6.38 6.38 0 0 0-2.09-.43 6.43 6.43 0 0 0-4.98 2.46Z" fill="url(#linear-gradient-33)"/><path d="M1.44 87.75A6.37 6.37 0 0 0 .38 89.4a2.13 2.13 0 0 0 .56.6l10.3 6.18-4.44-2.7a14.75 14.75 0 0 1-5.36-5.73Z" fill="url(#linear-gradient-34)"/><path d="M1.44 87.75A6.37 6.37 0 0 0 .38 89.4a2.13 2.13 0 0 0 .56.6l10.3 6.18-4.44-2.7a14.75 14.75 0 0 1-5.36-5.73Z" fill="url(#linear-gradient-35)"/><path class="cls-30" d="M1.44 87.75A6.37 6.37 0 0 0 .38 89.4a2.13 2.13 0 0 0 .56.6l10.3 6.18-4.44-2.7a14.75 14.75 0 0 1-5.36-5.73Z"/><path d="M89.63 11.32A5.66 5.66 0 0 1 84 5.66a5.48 5.48 0 0 1 .43-2.11L43 82.68l12.7-24.25 269.02 217.92v-8.73L93.77 9.46a5.64 5.64 0 0 1-4.14 1.86Z" fill="url(#linear-gradient-36)"/><path d="M93.73 1.81a5.6 5.6 0 0 1 1.56 3.85 5.64 5.64 0 0 1-1.52 3.8l231 258.16v-.83Z" fill="url(#linear-gradient-37)"/><path d="M93.73 1.81a5.6 5.6 0 0 1 1.56 3.85 5.64 5.64 0 0 1-1.52 3.8l231 258.16v-.83Z" style="mix-blend-mode:screen" fill="url(#radial-gradient-8)"/><path d="m93.56 1.61.17.2-.17-.2ZM84.4 3.55l.16-.3a2.85 2.85 0 0 0-.16.3Z" fill="url(#radial-gradient-9)"/><path d="M89.63 11.32a5.64 5.64 0 0 0 4.14-1.86l-7.42-8.29a5.53 5.53 0 0 0-1.79 2.08l-.16.3a5.48 5.48 0 0 0-.4 2.11 5.66 5.66 0 0 0 5.63 5.66Z" fill="url(#linear-gradient-38)"/><path d="m86.35 1.17 7.42 8.29a5.64 5.64 0 0 0 1.52-3.8 5.6 5.6 0 0 0-1.56-3.85l-.17-.2A5.63 5.63 0 0 0 89.63 0a5.5 5.5 0 0 0-3.28 1.17Z" fill="url(#linear-gradient-39)"/><g class="cls-16"><path class="cls-48" d="M324.45 261Z"/></g><g class="cls-16"><path class="cls-48" d="M325.3 260.87Z"/></g><g class="cls-16"><path class="cls-48" d="M325.39 260.9a.64.64 0 0 1 0 .2.64.64 0 0 0 0-.2Z"/></g><g class="cls-16"><path class="cls-48" d="M325.41 260.79c0 .12 0 .24-.06.37 0-.12.05-.25.06-.37Z"/></g><g class="cls-16"><path class="cls-48" d="M325.4 260.85a1.31 1.31 0 0 0 .06.27 1.27 1.27 0 0 1-.06-.28Z"/></g><g class="cls-16"><path class="cls-48" d="M325.53 260.71c0 .14 0 .28.07.43a1.77 1.77 0 0 1 .09-.56l-.11.64v-.09.09l.11-.64a1.79 1.79 0 0 0-.09.57c0-.15-.05-.29-.07-.44Z"/></g><g class="cls-16"><path class="cls-48" d="M325.55 260.85c-.09.16-.19.32-.27.49a1 1 0 0 0-.12.47.68.68 0 0 0 .21-.59.68.68 0 0 1-.2.57.92.92 0 0 1 .13-.49l.25-.46Z"/></g><g class="cls-16"><path class="cls-48" d="m325.38 261.15-.09.58a2.77 2.77 0 0 1 0-.41v-.41.42a2.67 2.67 0 0 0 0 .4l.09-.58Z"/></g><g class="cls-16"><path class="cls-48" d="M324.74 261.49v-.06a.83.83 0 0 0-.07-.13v.06a.25.25 0 0 0 0 .07v.06Z"/></g><g class="cls-16"><path class="cls-48" d="M324.62 261.3a.24.24 0 0 0-.21-.12.2.2 0 0 1 .19.11Z"/></g><g class="cls-16"><path class="cls-48" d="M324.39 260.91Z"/></g><g class="cls-16"><path class="cls-48" d="M324.57 261.13h.06a.71.71 0 0 1 0 .2.75.75 0 0 0 0-.21h-.09Z"/></g><g class="cls-16"><path class="cls-48" d="M324.3 261.6a3.28 3.28 0 0 1-.51-.15l-.23-.09a.24.24 0 0 1-.17-.19.23.23 0 0 1 .14-.2h.17a.22.22 0 0 1 0 .11.28.28 0 0 1 0 .13 1.06 1.06 0 0 1-.09.25 1.45 1.45 0 0 0 .14-.46v-.09a.6.6 0 0 0-.22.06.22.22 0 0 0-.13.28c.06.14.23.18.35.23a2.73 2.73 0 0 0 .56.15Z"/></g></g></g></g></svg>