<svg width="24" height="25" viewBox="0 0 24 25" fill="none" xmlns="http://www.w3.org/2000/svg">
<path opacity="1" d="M20.9099 11.4147C20.9099 16.3047 17.3599 20.8847 12.5099 22.2247C12.1799 22.3147 11.8198 22.3147 11.4898 22.2247C6.63984 20.8847 3.08984 16.3047 3.08984 11.4147V7.02474C3.08984 6.20474 3.70986 5.27474 4.47986 4.96474L10.0498 2.68475C11.2998 2.17475 12.7098 2.17475 13.9598 2.68475L19.5298 4.96474C20.2898 5.27474 20.9199 6.20474 20.9199 7.02474L20.9099 11.4147Z" fill="#57a4ff"/>
<path d="M14.5 10.7949C14.5 9.41492 13.38 8.29492 12 8.29492C10.62 8.29492 9.5 9.41492 9.5 10.7949C9.5 11.9149 10.24 12.8449 11.25 13.1649V15.7949C11.25 16.2049 11.59 16.5449 12 16.5449C12.41 16.5449 12.75 16.2049 12.75 15.7949V13.1649C13.76 12.8449 14.5 11.9149 14.5 10.7949Z" fill="white"/>
</svg>
