<svg width="24" height="25" viewBox="0 0 24 25" fill="none" xmlns="http://www.w3.org/2000/svg">
<path opacity="1" d="M16.1917 2.29492H7.82173C4.18173 2.29492 2.01172 4.46492 2.01172 8.10492V16.4749C2.01172 20.1149 4.18173 22.2849 7.82173 22.2849H16.1917C19.8317 22.2849 22.0017 20.1149 22.0017 16.4749V8.10492C22.0017 4.46492 19.8317 2.29492 16.1917 2.29492Z" fill="#57a4ff"/>
<path d="M9.17156 14.3848C9.36156 14.3848 9.55155 14.3148 9.70155 14.1648L14.0816 9.78484V12.2148C14.0816 12.6248 14.4216 12.9648 14.8316 12.9648C15.2416 12.9648 15.5816 12.6248 15.5816 12.2148V7.97485C15.5816 7.87485 15.5616 7.78484 15.5216 7.68484C15.4416 7.50484 15.3016 7.35485 15.1116 7.27485C15.0216 7.23485 14.9216 7.21484 14.8216 7.21484H10.5816C10.1716 7.21484 9.83156 7.55484 9.83156 7.96484C9.83156 8.37484 10.1716 8.71484 10.5816 8.71484H13.0116L8.63156 13.0948C8.34156 13.3848 8.34156 13.8648 8.63156 14.1548C8.79156 14.3148 8.98156 14.3848 9.17156 14.3848Z" fill="white"/>
<path d="M18.7107 16.5749C18.5807 16.1849 18.1607 15.9749 17.7607 16.1049C14.0407 17.3449 9.95066 17.3449 6.23066 16.1049C5.84066 15.9749 5.41067 16.1849 5.28067 16.5749C5.15067 16.9649 5.36067 17.3949 5.75067 17.5249C7.76067 18.1949 9.87067 18.5349 11.9907 18.5349C14.1107 18.5349 16.2207 18.1949 18.2307 17.5249C18.6307 17.3849 18.8407 16.9649 18.7107 16.5749Z" fill="white"/>
</svg>
