<svg width="32" height="32" viewBox="0 0 32 32" fill="none" xmlns="http://www.w3.org/2000/svg">
<path opacity="0.4" d="M21.588 2.66675H10.4146C5.5613 2.66675 2.66797 5.56008 2.66797 10.4134V21.5734C2.66797 26.4401 5.5613 29.3334 10.4146 29.3334H21.5746C26.428 29.3334 29.3213 26.4401 29.3213 21.5868V10.4134C29.3346 5.56008 26.4413 2.66675 21.588 2.66675Z" fill="#0075FF"/>
<path d="M20.7734 25.6666C20.2268 25.6666 19.7734 25.2132 19.7734 24.6666V19.4666C19.7734 18.9199 20.2268 18.4666 20.7734 18.4666C21.3201 18.4666 21.7734 18.9199 21.7734 19.4666V24.6666C21.7734 25.2132 21.3201 25.6666 20.7734 25.6666Z" fill="#0075FF"/>
<path d="M20.7734 10.9333C20.2268 10.9333 19.7734 10.4799 19.7734 9.93325V7.33325C19.7734 6.78659 20.2268 6.33325 20.7734 6.33325C21.3201 6.33325 21.7734 6.78659 21.7734 7.33325V9.93325C21.7734 10.4799 21.3201 10.9333 20.7734 10.9333Z" fill="#0075FF"/>
<path d="M11.2266 25.6666C10.6799 25.6666 10.2266 25.2133 10.2266 24.6666V22.0666C10.2266 21.52 10.6799 21.0667 11.2266 21.0667C11.7732 21.0667 12.2266 21.52 12.2266 22.0666V24.6666C12.2266 25.2133 11.7866 25.6666 11.2266 25.6666Z" fill="#0075FF"/>
<path d="M11.2266 13.5333C10.6799 13.5333 10.2266 13.0799 10.2266 12.5333V7.33325C10.2266 6.78659 10.6799 6.33325 11.2266 6.33325C11.7732 6.33325 12.2266 6.78659 12.2266 7.33325V12.5333C12.2266 13.0799 11.7866 13.5333 11.2266 13.5333Z" fill="#0075FF"/>
<path d="M20.7728 9.77344C18.7728 9.77344 17.1328 11.4001 17.1328 13.4001C17.1328 15.4001 18.7595 17.0401 20.7728 17.0401C22.7728 17.0401 24.3995 15.4134 24.3995 13.4001C24.3995 11.3868 22.7728 9.77344 20.7728 9.77344Z" fill="#0075FF"/>
<path d="M11.2282 14.9734C9.22823 14.9734 7.60156 16.6001 7.60156 18.6134C7.60156 20.6267 9.22823 22.2401 11.2282 22.2401C13.2282 22.2401 14.8682 20.6134 14.8682 18.6134C14.8682 16.6134 13.2416 14.9734 11.2282 14.9734Z" fill="#0075FF"/>
</svg>
