<svg width="426" height="650" viewBox="0 0 426 650" fill="none" xmlns="http://www.w3.org/2000/svg">
<g opacity="0.05" filter="url(#filter0_f_264:3549)">
<path d="M-74.6856 -29.4565C-64.7016 -43.7661 -49.8466 -52.1509 -35.2988 -51.6882L212.901 -43.7933C228.434 -43.2992 241.235 -32.8049 246.299 -16.414L322.968 231.754C328.032 248.145 324.553 267.829 313.893 283.107L143.556 527.243C133.572 541.553 118.717 549.938 104.169 549.475L-144.031 541.58C-159.564 541.086 -172.365 530.592 -177.429 514.201L-254.098 266.033C-259.162 249.642 -255.683 229.958 -245.023 214.679L-74.6856 -29.4565Z" fill="url(#paint0_linear_264:3549)"/>
</g>
<defs>
<filter id="filter0_f_264:3549" x="-356.386" y="-151.706" width="781.642" height="801.2" filterUnits="userSpaceOnUse" color-interpolation-filters="sRGB">
<feFlood flood-opacity="0" result="BackgroundImageFix"/>
<feBlend mode="normal" in="SourceGraphic" in2="BackgroundImageFix" result="shape"/>
<feGaussianBlur stdDeviation="50" result="effect1_foregroundBlur_264:3549"/>
</filter>
<linearGradient id="paint0_linear_264:3549" x1="-58.6559" y1="-52.4312" x2="244.302" y2="484.304" gradientUnits="userSpaceOnUse">
<stop stop-color="#1F87EF"/>
<stop offset="1" stop-color="#D614A8"/>
</linearGradient>
</defs>
</svg>
