<svg width="24" height="25" viewBox="0 0 24 25" fill="none" xmlns="http://www.w3.org/2000/svg">
<path opacity="0.4" d="M12 22.7026C17.5228 22.7026 22 18.2255 22 12.7026C22 7.17979 17.5228 2.70264 12 2.70264C6.47715 2.70264 2 7.17979 2 12.7026C2 18.2255 6.47715 22.7026 12 22.7026Z" fill="#FE2C3D"/>
<path d="M10.5795 16.2826C10.3795 16.2826 10.1895 16.2026 10.0495 16.0626L7.21945 13.2326C6.92945 12.9426 6.92945 12.4626 7.21945 12.1726C7.50945 11.8826 7.98945 11.8826 8.27945 12.1726L10.5795 14.4726L15.7195 9.33261C16.0095 9.04261 16.4895 9.04261 16.7795 9.33261C17.0695 9.62261 17.0695 10.1026 16.7795 10.3926L11.1095 16.0626C10.9695 16.2026 10.7795 16.2826 10.5795 16.2826Z" fill="#FE2C3D"/>
</svg>
