<svg width="24" height="25" viewBox="0 0 24 25" fill="none" xmlns="http://www.w3.org/2000/svg">
<path d="M17.7495 7.64274C17.5095 7.60274 17.2595 7.59275 16.9995 7.59275H6.99945C6.71945 7.59275 6.44945 7.61275 6.18945 7.65275C6.32945 7.37275 6.52945 7.11278 6.76945 6.87278L10.0195 3.61277C11.3895 2.25277 13.6095 2.25277 14.9795 3.61277L16.7295 5.38273C17.3695 6.01273 17.7095 6.81274 17.7495 7.64274Z" fill="#FE2C3D"/>
<path d="M5 15.5928C2.79 15.5928 1 17.3828 1 19.5928C1 20.3428 1.21 21.0528 1.58 21.6528C2.27 22.8128 3.54 23.5928 5 23.5928C6.46 23.5928 7.73 22.8128 8.42 21.6528C8.79 21.0528 9 20.3428 9 19.5928C9 17.3828 7.21 15.5928 5 15.5928ZM6.49 20.3228H5.75V21.1028C5.75 21.5128 5.41 21.8528 5 21.8528C4.59 21.8528 4.25 21.5128 4.25 21.1028V20.3228H3.51C3.1 20.3228 2.76 19.9828 2.76 19.5728C2.76 19.1628 3.1 18.8228 3.51 18.8228H4.25V18.1128C4.25 17.7028 4.59 17.3628 5 17.3628C5.41 17.3628 5.75 17.7028 5.75 18.1128V18.8228H6.49C6.9 18.8228 7.24 19.1628 7.24 19.5728C7.24 19.9828 6.91 20.3228 6.49 20.3228Z" fill="#FE2C3D"/>
<path opacity="0.4" d="M22 12.5928V17.5928C22 20.5928 20 22.5928 17 22.5928H7.63C7.94 22.3328 8.21 22.0128 8.42 21.6528C8.79 21.0528 9 20.3428 9 19.5928C9 17.3828 7.21 15.5928 5 15.5928C3.8 15.5928 2.73 16.1228 2 16.9528V12.5928C2 9.87277 3.64 7.97277 6.19 7.65277C6.45 7.61277 6.72 7.59277 7 7.59277H17C17.26 7.59277 17.51 7.60276 17.75 7.64276C20.33 7.94276 22 9.85277 22 12.5928Z" fill="#FE2C3D"/>
<path d="M22 13.0928H19C17.9 13.0928 17 13.9928 17 15.0928C17 16.1928 17.9 17.0928 19 17.0928H22" fill="#FE2C3D"/>
</svg>
