<svg width="24" height="25" viewBox="0 0 24 25" fill="none" xmlns="http://www.w3.org/2000/svg">
<path opacity="0.4" d="M19.7906 4.81272C16.8306 1.86272 12.0306 1.86272 9.09063 4.81272C7.02063 6.86272 6.40063 9.81272 7.20063 12.4127L2.50063 17.1127C2.17063 17.4527 1.94063 18.1227 2.01063 18.6027L2.31063 20.7827C2.42063 21.5027 3.09063 22.1827 3.81063 22.2827L5.99063 22.5827C6.47063 22.6527 7.14063 22.4327 7.48063 22.0827L8.30063 21.2627C8.50063 21.0727 8.50063 20.7527 8.30063 20.5527L6.36063 18.6127C6.07063 18.3227 6.07063 17.8427 6.36063 17.5527C6.65063 17.2627 7.13063 17.2627 7.42063 17.5527L9.37063 19.5027C9.56063 19.6927 9.88063 19.6927 10.0706 19.5027L12.1906 17.3927C14.7806 18.2027 17.7306 17.5727 19.7906 15.5227C22.7406 12.5727 22.7406 7.76272 19.7906 4.81272ZM14.5006 12.5927C13.1206 12.5927 12.0006 11.4727 12.0006 10.0927C12.0006 8.71272 13.1206 7.59272 14.5006 7.59272C15.8806 7.59272 17.0006 8.71272 17.0006 10.0927C17.0006 11.4727 15.8806 12.5927 14.5006 12.5927Z" fill="#FE2C3D"/>
<path d="M14.5 12.5928C15.8807 12.5928 17 11.4735 17 10.0928C17 8.71206 15.8807 7.59277 14.5 7.59277C13.1193 7.59277 12 8.71206 12 10.0928C12 11.4735 13.1193 12.5928 14.5 12.5928Z" fill="#FE2C3D"/>
</svg>
