<svg width="42" height="43" viewBox="0 0 42 43" fill="none" xmlns="http://www.w3.org/2000/svg">
<rect y="0.592773" width="42" height="42" rx="8" fill="#5CD681" fill-opacity="0.03"/>
<path opacity="0.4" d="M17.6083 8.65857L10.3788 11.3663C8.9986 11.879 7.86816 13.5221 7.86816 14.9942V25.6414C7.86816 26.7061 8.56484 28.1125 9.41924 28.7435L16.6488 34.1459C17.9238 35.1055 20.0138 35.1055 21.2888 34.1459L28.5183 28.7435C29.3727 28.0994 30.0694 26.7061 30.0694 25.6414V14.9942C30.0694 13.5221 28.9389 11.879 27.5588 11.3663L20.3292 8.65857C19.58 8.38253 18.3575 8.38253 17.6083 8.65857Z" fill="#5CD681"/>
<path d="M30.5426 14.7048H21.5386C21.2757 14.7048 21.0259 14.718 20.7893 14.718C18.5285 14.8494 17.9238 15.6775 17.9238 18.2539V19.0024C17.9238 19.4166 18.2596 19.7524 18.6738 19.7524H33.3942C33.8085 19.7524 34.1442 19.4166 34.1442 19.0024V18.2539C34.1442 15.4147 33.4213 14.7048 30.5426 14.7048Z" fill="#5CD681"/>
<path d="M18.6875 21.1985C18.2733 21.1985 17.9375 21.5343 17.9375 21.9485V24.9315C17.9375 27.7708 18.6605 28.4937 21.5391 28.4937H30.5432C33.3692 28.4937 34.1185 27.8102 34.1448 25.0893V21.9485C34.1448 21.5343 33.809 21.1985 33.3948 21.1985H18.6875ZM22.6696 26.154H21.0265C20.6321 26.154 20.3167 25.8385 20.3167 25.4442C20.3167 25.0498 20.6321 24.7344 21.0265 24.7344H22.6696C23.0639 24.7344 23.3794 25.0498 23.3794 25.4442C23.3794 25.8385 23.0639 26.154 22.6696 26.154ZM27.9931 26.154H24.7201C24.3258 26.154 24.0103 25.8385 24.0103 25.4442C24.0103 25.0498 24.3258 24.7344 24.7201 24.7344H27.9931C28.3875 24.7344 28.7029 25.0498 28.7029 25.4442C28.7161 25.8385 28.3875 26.154 27.9931 26.154Z" fill="#5CD681"/>
</svg>
