<svg width="42" height="43" viewBox="0 0 42 43" fill="none" xmlns="http://www.w3.org/2000/svg">
<rect y="0.592773" width="42" height="42" rx="8" fill="#4C496D" fill-opacity="0.03"/>
<path opacity="0.4" d="M14.5726 13.6534L26.429 9.69693C31.7526 7.92241 34.6444 10.8274 32.883 16.1509L28.9265 28.0073C26.2713 35.9861 21.9073 35.9861 19.2521 28.0073L18.0822 24.4846L14.5595 23.3147C6.59387 20.6727 6.59387 16.3218 14.5726 13.6534Z" fill="#4C496D"/>
<path d="M21.1582 21.1062L26.1663 16.085Z" fill="#4C496D"/>
<path d="M21.1574 22.0922C20.9076 22.0922 20.6579 22.0002 20.4607 21.803C20.0795 21.4218 20.0795 20.7909 20.4607 20.4097L25.4556 15.3884C25.8368 15.0072 26.4678 15.0072 26.849 15.3884C27.2302 15.7696 27.2302 16.4006 26.849 16.7818L21.854 21.803C21.6569 21.987 21.4071 22.0922 21.1574 22.0922Z" fill="#4C496D"/>
</svg>
