<svg width="61" height="61" fill="none" xmlns="http://www.w3.org/2000/svg"><rect x=".1" y=".1" width="60" height="60" rx="12" fill="#4141F1" fill-opacity=".1"/><path d="M40.6 28.4v3.4a5.1 5.1 0 0 1-5.1 5.1h-8.9a1.5 1.5 0 1 1 0-3h8.9a2.2 2.2 0 0 0 2.2-2.1v-3.4a2.2 2.2 0 0 0-2.2-2.2h-1.8a1.5 1.5 0 1 0 0-3h1.8a5.1 5.1 0 0 1 5.1 5.2Z" fill="url(#a)"/><path d="M35.2 24.7a1.5 1.5 0 0 1-1.5 1.5h-9a2.2 2.2 0 0 0-2.1 2.2v3.4a2.2 2.2 0 0 0 2.2 2.2h1.8a1.5 1.5 0 0 0 0 3h-1.8a5.1 5.1 0 0 1-5.2-5.2v-3.4a5.1 5.1 0 0 1 5.2-5.1h9a1.5 1.5 0 0 1 1.4 1.4Z" fill="url(#b)"/><defs><linearGradient id="a" x1="25.2" y1="30.1" x2="40.6" y2="30.1" gradientUnits="userSpaceOnUse"><stop offset=".3" stop-color="#2070D1"/><stop offset=".7" stop-color="#8361B1"/><stop offset=".9" stop-color="#C3589C"/></linearGradient><linearGradient id="b" x1="33.5" y1="23.1" x2="18.5" y2="35.2" gradientUnits="userSpaceOnUse"><stop stop-color="#FC8F0C"/><stop offset="1" stop-color="#E70060"/></linearGradient></defs></svg>
