<svg width="42" height="43" viewBox="0 0 42 43" fill="none" xmlns="http://www.w3.org/2000/svg">
<rect y="0.592773" width="42" height="42" rx="8" fill="url(#paint0_linear)" fill-opacity="0.03"/>
<path opacity="0.8" d="M22.1829 9.13175L22.1434 9.22376L18.3315 18.0701H14.5853C13.6915 18.0701 12.8502 18.2409 12.0615 18.5827L14.3618 13.0883L14.4144 12.97L14.4933 12.7597C14.5327 12.6676 14.559 12.5888 14.5984 12.5231C16.3204 8.54025 18.2658 7.63327 22.1829 9.13175Z" fill="#FE2C3D"/>
<path d="M29.2673 18.3329C28.6758 18.162 28.058 18.07 27.414 18.07H18.3311L22.143 9.22373L22.1824 9.13171C22.3664 9.19744 22.5636 9.28945 22.7608 9.35517L25.6657 10.5776C27.2825 11.248 28.413 11.9447 29.1096 12.7859C29.2279 12.9436 29.3331 13.0882 29.4382 13.2591C29.5565 13.4431 29.6485 13.6272 29.7011 13.8243C29.7537 13.9426 29.7931 14.0478 29.8194 14.1661C30.1612 15.2834 29.9509 16.6373 29.2673 18.3329Z" fill="#FE2C3D"/>
<path opacity="0.4" d="M33.8291 24.4846V27.0478C33.8291 27.3107 33.816 27.5736 33.8028 27.8233C33.5531 32.424 30.9899 34.7374 26.1264 34.7374H15.8736C15.545 34.7374 15.2427 34.7111 14.9404 34.6717C10.7604 34.3956 8.5258 32.1611 8.23662 27.9811C8.19719 27.6656 8.1709 27.3633 8.1709 27.0478V24.4846C8.1709 21.8426 9.77454 19.5686 12.0617 18.5827C12.8504 18.2409 13.6916 18.0701 14.5855 18.0701H27.4146C28.0587 18.0701 28.6765 18.1621 29.268 18.333C31.8969 19.1348 33.8291 21.5797 33.8291 24.4846Z" fill="#FE2C3D"/>
<path opacity="0.6" d="M14.362 13.0883L12.0617 18.5827C9.77454 19.5685 8.1709 21.8425 8.1709 24.4846V20.6332C8.1709 16.9002 10.8261 13.7849 14.362 13.0883Z" fill="#FE2C3D"/>
<path opacity="0.6" d="M33.8287 20.6332V24.4846C33.8287 21.5796 31.8965 19.1348 29.2676 18.3329C29.9511 16.6373 30.1614 15.2834 29.8196 14.1661C29.7934 14.0478 29.7539 13.9426 29.7013 13.8243C32.1594 15.0994 33.8287 17.6888 33.8287 20.6332Z" fill="#FE2C3D"/>
<defs>
<linearGradient id="paint0_linear" x1="-2.72142" y1="23.6158" x2="46.5411" y2="42.5928" gradientUnits="userSpaceOnUse">
<stop stop-color="#E70060"/>
<stop offset="0.973958" stop-color="#FC8F0C"/>
</linearGradient>
</defs>
</svg>
