<svg width="61" height="61" fill="none" xmlns="http://www.w3.org/2000/svg"><rect x=".1" y=".1" width="60" height="60" rx="12" fill="#4141F1" fill-opacity=".1"/><path d="M32 31.3h1.3a5.1 5.1 0 0 1-8.2-2.8l.5-1.3a7 7 0 0 0 6.3 4.1Z" fill="url(#a)"/><path d="M37.4 19.7a10.5 10.5 0 0 1-1 15.9 7 7 0 0 0-2.7-12.2l3.7-3.6Z" fill="url(#b)"/><path d="m22.9 19.6 2.4 2.5 1.3 1.3 1.1 1.2a7 7 0 0 0 7.1 12 10.5 10.5 0 0 1-12-17Z" fill="url(#c)"/><path d="M33.7 23.4a7 7 0 1 1-8.6 5.1 5.1 5.1 0 1 0 8.5-5l.1-.1Z" fill="url(#d)"/><defs><linearGradient id="a" x1="29.2" y1="32.4" x2="29.3" y2="27.2" gradientUnits="userSpaceOnUse"><stop offset=".3" stop-color="#2070D1"/><stop offset=".7" stop-color="#8361B1"/><stop offset=".9" stop-color="#C3589C"/></linearGradient><linearGradient id="b" x1="4586.5" y1="4884.3" x2="5518.2" y2="4884.3" gradientUnits="userSpaceOnUse"><stop offset=".3" stop-color="#2070D1"/><stop offset=".7" stop-color="#8361B1"/><stop offset=".9" stop-color="#C3589C"/></linearGradient><linearGradient id="c" x1="27.2" y1="37.7" x2="27.3" y2="19.6" gradientUnits="userSpaceOnUse"><stop stop-color="#FC8F0C"/><stop offset="1" stop-color="#E70060"/></linearGradient><linearGradient id="d" x1="2593.4" y1="1152.5" x2="1434.5" y2="1315" gradientUnits="userSpaceOnUse"><stop stop-color="#FC8F0C"/><stop offset="1" stop-color="#E70060"/></linearGradient></defs></svg>
