<svg width="61" height="61" fill="none" xmlns="http://www.w3.org/2000/svg"><rect x=".1" y=".1" width="60" height="60" rx="12" fill="#4141F1" fill-opacity=".1"/><path d="m31.8 34.7-11.2-7.8-.2.4a5.6 5.6 0 0 0 4.4 8.4c-1.1-2.4 1.6-4.7 3.8-3.2l3.2 2.2Z" fill="url(#a)"/><path d="M21.5 25.9Z" fill="url(#b)"/><path d="m28.4 25.5 11.2 7.8a5.5 5.5 0 0 0 .4-5.8 5.6 5.6 0 0 0-4.5-3c1.1 2.4-1.7 4.7-3.8 3.2l-3.2-2.2Z" fill="url(#c)"/><path d="M31.8 34.7a5.6 5.6 0 0 0 6.7-.2l.2-.2.2-.2.2-.2h.1l.1-.2v-.1l.2-.1v-.1l.1-.1-11.2-7.8a5.6 5.6 0 0 0-6.7.2l-.2.2-.2.2-.2.2-.2.2v.1l-.1.1-.1.1v.1l11.1 7.8Z" fill="url(#d)"/><path d="m31.8 27.8-.2-.1-3.1-2.2a5.6 5.6 0 0 0-7.9 1.4l7.6 5.3.6.4a2.8 2.8 0 0 0 3-4.8Z" fill="url(#e)"/><defs><linearGradient id="a" x1="19" y1="26.7" x2="29.4" y2="34" gradientUnits="userSpaceOnUse"><stop stop-color="#FC8F0C"/><stop offset="1" stop-color="#E70060"/></linearGradient><linearGradient id="b" x1="-554.3" y1="16.9" x2="-601.7" y2="-16" gradientUnits="userSpaceOnUse"><stop offset=".3" stop-color="#2070D1"/><stop offset=".7" stop-color="#8361B1"/><stop offset=".9" stop-color="#C3589C"/></linearGradient><linearGradient id="c" x1="28637" y1="42894" x2="27849.3" y2="44545.8" gradientUnits="userSpaceOnUse"><stop stop-color="#FC8F0C"/><stop offset="1" stop-color="#E70060"/></linearGradient><linearGradient id="d" x1="-17459.3" y1="23338.4" x2="-20081.3" y2="21515.8" gradientUnits="userSpaceOnUse"><stop offset=".3" stop-color="#2070D1"/><stop offset=".7" stop-color="#8361B1"/><stop offset=".9" stop-color="#C3589C"/></linearGradient><linearGradient id="e" x1="19.8" y1="29.1" x2="32.4" y2="36.3" gradientUnits="userSpaceOnUse"><stop stop-color="#E70060"/><stop offset="1" stop-color="#FC8F0C"/></linearGradient></defs></svg>
