<svg width="61" height="61" fill="none" xmlns="http://www.w3.org/2000/svg"><rect x=".1" y=".1" width="60" height="60" rx="12" fill="#4141F1" fill-opacity=".1"/><path d="M30.1 29.9v-.6c0-3-3.5-5.4-7.8-5.4v11.3c0 3 3.5 5.4 7.8 5.4s7.8-2.4 7.8-5.4c0-3-3.5-5.3-7.8-5.3Z" fill="url(#a)"/><path d="M30.1 35.2v.6a9 9 0 0 1 6.5 2.4c.8-.8 1.3-1.9 1.3-3 0-3-3.5-5.3-7.8-5.3v-.6c0-3-3.5-5.4-7.8-5.4v6c4.3 0 7.8 2.4 7.8 5.3Z" fill="url(#b)"/><path d="M37.9 19.6C33.6 19.6 30 22 30 25v10.2c0 2-1.6 3.8-3.9 4.7 1.3.5 2.6.7 4 .7 4.2 0 7.7-2.4 7.7-5.4V19.6Z" fill="url(#c)"/><defs><linearGradient id="a" x1="22.3" y1="32.3" x2="37.9" y2="32.3" gradientUnits="userSpaceOnUse"><stop stop-color="#FC8F0C"/><stop offset="1" stop-color="#E70060"/></linearGradient><linearGradient id="b" x1="29.9" y1="33.7" x2="30.2" y2="26.7" gradientUnits="userSpaceOnUse"><stop offset=".3" stop-color="#2070D1"/><stop offset=".7" stop-color="#8361B1"/><stop offset=".9" stop-color="#C3589C"/></linearGradient><linearGradient id="c" x1="41.7" y1="10.7" x2="32.7" y2="44.6" gradientUnits="userSpaceOnUse"><stop stop-color="#FC8F0C"/><stop offset="1" stop-color="#E70060"/></linearGradient></defs></svg>