<svg width="61" height="61" fill="none" xmlns="http://www.w3.org/2000/svg"><rect x=".1" y=".1" width="60" height="60" rx="12" fill="#4141F1" fill-opacity=".1"/><path d="m33 39.3-12-12a4.5 4.5 0 0 1 0-6.4 4.5 4.5 0 0 1 6.2 0l12 12a4.5 4.5 0 1 1-6.2 6.4Z" fill="url(#a)"/><path d="m27.2 39.3 12-12a4.5 4.5 0 1 0-6.2-6.4L21 33a4.5 4.5 0 0 0 0 6.4 4.5 4.5 0 0 0 6.2 0Z" fill="url(#b)"/><path d="M27 27 23.7 30l3.1 3.2 3.2 3.1V23.8l-3.2 3.1Z" fill="url(#c)"/><path d="M33.3 27 30 23.7v12.6l3.2-3.1 3.1-3.2-3.1-3.2Z" fill="url(#d)"/><defs><linearGradient id="a" x1="26.1" y1="33.4" x2="34.1" y2="26.8" gradientUnits="userSpaceOnUse"><stop offset=".3" stop-color="#2070D1"/><stop offset=".7" stop-color="#8361B1"/><stop offset=".9" stop-color="#C3589C"/></linearGradient><linearGradient id="b" x1="33.1" y1="34" x2="25" y2="27.2" gradientUnits="userSpaceOnUse"><stop stop-color="#FC8F0C"/><stop offset="1" stop-color="#E70060"/></linearGradient><linearGradient id="c" x1="26.9" y1="20.4" x2="26.9" y2="40.1" gradientUnits="userSpaceOnUse"><stop offset=".4" stop-color="#FC8F0C"/><stop offset="1" stop-color="#E70060"/></linearGradient><linearGradient id="d" x1="678.7" y1="47.4" x2="678.7" y2="1222.9" gradientUnits="userSpaceOnUse"><stop stop-color="#FC8F0C"/><stop offset="1" stop-color="#E70060"/></linearGradient></defs></svg>
