<svg width="61" height="61" fill="none" xmlns="http://www.w3.org/2000/svg"><rect x=".1" y=".1" width="60" height="60" rx="12" fill="#4141F1" fill-opacity=".1"/><path d="M33.6 23a7 7 0 0 0-3.5 1 7 7 0 0 1 3.5 6h-7a7 7 0 1 0 7-7Z" fill="url(#a)"/><path d="M30.1 24a7 7 0 0 0-3.5 6h7a7 7 0 0 0-3.5-6Z" fill="url(#b)"/><path d="M30.1 24a7 7 0 0 1 3.5 6h-7a7 7 0 0 0 3.5 6.2 7 7 0 1 1 0-12.2Z" fill="url(#c)"/><defs><linearGradient id="a" x1="28.6" y1="35" x2="38.8" y2="25.3" gradientUnits="userSpaceOnUse"><stop stop-color="#FC8F0C"/><stop offset="1" stop-color="#E70060"/></linearGradient><linearGradient id="b" x1="36514.8" y1="32012.2" x2="37135.5" y2="31264.7" gradientUnits="userSpaceOnUse"><stop stop-color="#FC8F0C"/><stop offset="1" stop-color="#E70060"/></linearGradient><linearGradient id="c" x1="35.4" y1="19.8" x2="20.6" y2="36.7" gradientUnits="userSpaceOnUse"><stop offset=".3" stop-color="#2070D1"/><stop offset=".7" stop-color="#8361B1"/><stop offset=".9" stop-color="#C3589C"/></linearGradient></defs></svg>
