<svg width="56" height="54" viewBox="0 0 56 54" fill="none" xmlns="http://www.w3.org/2000/svg">
<path opacity="0.4" d="M24.0013 15.1666C20.508 15.1666 17.668 18.0066 17.668 21.5C17.668 24.9266 20.348 27.7 23.8413 27.82C23.948 27.8066 24.0546 27.8066 24.1346 27.82C24.1613 27.82 24.1746 27.82 24.2013 27.82C24.2146 27.82 24.2146 27.82 24.228 27.82C27.6413 27.7 30.3213 24.9266 30.3346 21.5C30.3346 18.0066 27.4946 15.1666 24.0013 15.1666Z" fill="#0075FF"/>
<path d="M30.7733 31.3666C27.0533 28.8866 20.9866 28.8866 17.2399 31.3666C15.5466 32.4999 14.6133 34.0333 14.6133 35.6733C14.6133 37.3133 15.5466 38.8333 17.2266 39.9533C19.0933 41.2066 21.5466 41.8333 23.9999 41.8333C26.4533 41.8333 28.9066 41.2066 30.7733 39.9533C32.4533 38.8199 33.3866 37.2999 33.3866 35.6466C33.3733 34.0066 32.4533 32.4866 30.7733 31.3666Z" fill="#0075FF"/>
<path opacity="0.4" d="M38.6525 22.2868C38.8658 24.8734 37.0258 27.1401 34.4792 27.4468C34.4658 27.4468 34.4658 27.4468 34.4525 27.4468H34.4125C34.3325 27.4468 34.2525 27.4468 34.1858 27.4734C32.8925 27.5401 31.7058 27.1268 30.8125 26.3668C32.1858 25.1401 32.9725 23.3001 32.8125 21.3001C32.7192 20.2201 32.3458 19.2334 31.7858 18.3934C32.2925 18.1401 32.8792 17.9801 33.4792 17.9268C36.0925 17.7001 38.4258 19.6468 38.6525 22.2868Z" fill="#0075FF"/>
<path d="M41.319 34.6201C41.2123 35.9135 40.3857 37.0335 38.999 37.7935C37.6657 38.5268 35.9857 38.8735 34.319 38.8335C35.279 37.9668 35.839 36.8868 35.9457 35.7401C36.079 34.0868 35.2923 32.5001 33.719 31.2335C32.8257 30.5268 31.7857 29.9668 30.6523 29.5535C33.599 28.7001 37.3057 29.2735 39.5857 31.1135C40.8123 32.1001 41.439 33.3401 41.319 34.6201Z" fill="#0075FF"/>
</svg>
