<svg width="56" height="56" viewBox="0 0 56 56" fill="none" xmlns="http://www.w3.org/2000/svg">
<path d="M28.0934 23.9333C28.0401 23.9333 27.96 23.9333 27.8934 23.9333C26.4934 23.8799 25.3867 22.7466 25.3867 21.3333C25.3867 19.8933 26.5467 18.7333 27.9867 18.7333C29.4267 18.7333 30.5867 19.9066 30.5867 21.3333C30.6001 22.7466 29.4934 23.8933 28.0934 23.9333Z" fill="#0075FF"/>
<path d="M24.3339 27.9467C22.5606 29.1333 22.5606 31.0667 24.3339 32.2533C26.3472 33.6 29.6539 33.6 31.6672 32.2533C33.4406 31.0667 33.4406 29.1333 31.6672 27.9467C29.6539 26.6133 26.3606 26.6133 24.3339 27.9467Z" fill="#0075FF"/>
<path opacity="0.4" d="M36 14.6666H20C17.7867 14.6666 16 16.44 16 18.6266V33.1733C16 35.36 17.7867 37.1333 20 37.1333H21.0133C22.08 37.1333 23.0933 37.5466 23.84 38.2933L26.12 40.5466C27.16 41.5733 28.8533 41.5733 29.8933 40.5466L32.1733 38.2933C32.92 37.5466 33.9467 37.1333 35 37.1333H36C38.2133 37.1333 40 35.36 40 33.1733V18.6266C40 16.44 38.2133 14.6666 36 14.6666ZM28 18.7333C29.44 18.7333 30.6 19.9066 30.6 21.3333C30.6 22.7466 29.48 23.88 28.0933 23.9333C28.04 23.9333 27.96 23.9333 27.8933 23.9333C26.4933 23.88 25.3867 22.7466 25.3867 21.3333C25.4 19.9066 26.56 18.7333 28 18.7333ZM31.6667 32.2533C29.6533 33.6 26.3467 33.6 24.3333 32.2533C22.56 31.08 22.56 29.1333 24.3333 27.9466C26.36 26.6 29.6667 26.6 31.6667 27.9466C33.44 29.1333 33.44 31.0666 31.6667 32.2533Z" fill="#0075FF"/>
</svg>
