<svg width="375" height="283" fill="none" xmlns="http://www.w3.org/2000/svg"><g filter="url(#a)"><g clip-path="url(#b)"><rect x="16" width="343" height="134.574" rx="3.282" fill="#28283E"/><path d="M39.812 57.529v.923h-.41c-1.065 0-1.778-.158-2.142-.474-.359-.317-.538-.947-.538-1.892v-2.173c0-.645-.116-1.092-.346-1.34-.227-.248-.64-.371-1.237-.371h-.398v-.917h.398c.602 0 1.017-.122 1.243-.366.227-.243.34-.685.34-1.327v-1.538c0-.945.18-1.573.538-1.885.364-.316 1.077-.474 2.142-.474h.41v.916h-.449c-.598 0-.99.095-1.173.283-.18.183-.27.579-.27 1.186v1.59c0 .67-.098 1.158-.294 1.461-.192.303-.524.509-.994.615.475.116.808.325 1 .629.193.303.289.788.289 1.455v2.23c0 .612.09 1.01.269 1.193.184.184.575.276 1.173.276h.449Zm40.246 8.961v.577H74.95v.038c-.034.98.152 1.682.558 2.11.41.427.987.64 1.73.64.377 0 .77-.06 1.18-.179a7.23 7.23 0 0 0 1.314-.545v1.173c-.448.184-.882.32-1.3.41a5.445 5.445 0 0 1-1.206.142c-1.115 0-1.987-.334-2.616-1-.628-.671-.942-1.594-.942-2.77 0-1.145.308-2.06.923-2.744.616-.683 1.436-1.025 2.462-1.025.914 0 1.635.31 2.16.93.53.619.812 1.367.846 2.243Zm-1.18-.346a2.26 2.26 0 0 0-.544-1.282c-.308-.364-.752-.545-1.333-.545-.569 0-1.037.188-1.404.564-.368.376-.569.8-.603 1.27l3.885-.007Zm6.245-1.923c.145-.308.329-.535.551-.68.227-.15.498-.224.814-.224.577 0 .983.224 1.219.673.239.444.359 1.284.359 2.52v4.16h-1.078v-4.11c0-1.012-.057-1.64-.173-1.884-.11-.248-.316-.372-.615-.372-.342 0-.577.132-.705.397-.124.261-.186.88-.186 1.86v4.109h-1.077v-4.11c0-1.025-.062-1.658-.186-1.897-.12-.24-.338-.36-.654-.36-.312 0-.53.133-.654.398-.12.261-.18.88-.18 1.86v4.109h-1.07v-7.18h1.07v.615c.142-.256.317-.45.526-.583.214-.137.456-.205.725-.205.325 0 .594.075.808.224.218.15.386.376.506.68Zm8.078 2.84h-.392c-.688 0-1.207.121-1.557.365-.347.24-.52.598-.52 1.077 0 .432.13.767.391 1.007.261.239.622.358 1.084.358.65 0 1.16-.224 1.532-.673.372-.453.56-1.077.564-1.872v-.262h-1.102Zm2.288-.488v4.097h-1.186v-1.064c-.252.427-.57.743-.955.948-.38.201-.844.302-1.391.302-.731 0-1.314-.205-1.75-.616-.436-.414-.654-.968-.654-1.66 0-.8.267-1.406.801-1.82.539-.415 1.327-.623 2.366-.623h1.583v-.186c-.004-.572-.15-.987-.436-1.243-.286-.26-.743-.391-1.372-.391-.401 0-.807.058-1.218.173-.41.115-.81.284-1.198.506v-1.18c.435-.166.852-.29 1.25-.371a5.6 5.6 0 0 1 1.166-.128c.594 0 1.1.087 1.52.263a2.39 2.39 0 0 1 1.025.788c.163.214.278.479.347.795.068.312.102.782.102 1.41Zm3.148-3.058h3.019v6.238h2.34v.917h-5.86v-.917h2.341v-5.32h-1.84v-.918Zm1.84-2.788h1.179v1.487h-1.179v-1.487Zm8.654 7.346c0 .53.096.93.289 1.2.196.269.485.403.865.403h1.378v.994h-1.493c-.705 0-1.253-.225-1.641-.673-.385-.453-.577-1.094-.577-1.924V61.58h-1.892v-.923h3.071v7.417Zm38.881-6.622v2.039h2.68v.916h-2.68v3.898c0 .53.101.9.302 1.11.2.209.551.313 1.051.313h1.327v.943h-1.442c-.885 0-1.509-.178-1.872-.532-.364-.355-.545-.966-.545-1.834v-3.898h-1.917v-.916h1.917V61.45h1.179Zm11.155 5.039v.577h-5.109v.038c-.035.98.151 1.682.557 2.11.411.427.988.64 1.731.64.376 0 .77-.06 1.18-.179.41-.12.848-.301 1.314-.545v1.173a7.73 7.73 0 0 1-1.301.41 5.454 5.454 0 0 1-1.206.142c-1.115 0-1.987-.334-2.615-1-.628-.671-.943-1.594-.943-2.77 0-1.145.308-2.06.924-2.744.615-.683 1.436-1.025 2.461-1.025.915 0 1.635.31 2.161.93.53.619.812 1.367.846 2.243Zm-1.18-.346a2.258 2.258 0 0 0-.545-1.282c-.307-.364-.752-.545-1.333-.545-.568 0-1.036.188-1.404.564-.367.376-.568.8-.603 1.27l3.885-.007Zm8.148-2.404v1.154a4.478 4.478 0 0 0-1.019-.443 3.763 3.763 0 0 0-1.045-.147c-.534 0-.934.088-1.199.263-.26.17-.391.434-.391.788 0 .32.099.56.295.718.197.158.686.312 1.468.462l.475.09c.585.11 1.028.333 1.327.666.303.334.455.767.455 1.302 0 .71-.252 1.265-.757 1.666-.504.398-1.205.597-2.102.597-.355 0-.727-.039-1.116-.116a9.791 9.791 0 0 1-1.263-.333v-1.218c.44.226.861.397 1.263.513.402.11.782.166 1.141.166.522 0 .926-.104 1.212-.314.286-.213.429-.51.429-.89 0-.548-.523-.926-1.57-1.136l-.051-.012-.443-.09c-.679-.133-1.175-.355-1.487-.667-.312-.316-.468-.746-.468-1.288 0-.688.233-1.218.699-1.59.466-.376 1.13-.564 1.993-.564.385 0 .755.036 1.109.109.355.068.704.173 1.045.314Zm5.61-2.289v2.039h2.68v.916h-2.68v3.898c0 .53.1.9.301 1.11.201.209.551.313 1.051.313h1.328v.943h-1.443c-.885 0-1.509-.178-1.872-.532-.363-.355-.545-.966-.545-1.834v-3.898h-1.917v-.916h1.917V61.45h1.18Zm10.629 5.725c0-.551-.137-.992-.41-1.32-.274-.334-.639-.5-1.097-.5-.457 0-.825.166-1.102.5-.274.328-.411.769-.411 1.32 0 .555.137 1 .411 1.333.277.33.645.494 1.102.494.458 0 .823-.165 1.097-.494.273-.333.41-.778.41-1.333Zm.897 2.628h-.923v-.711c-.158.269-.378.476-.66.622a2.004 2.004 0 0 1-.943.218 2.178 2.178 0 0 1-1.711-.776c-.449-.517-.673-1.178-.673-1.981 0-.803.224-1.464.673-1.981a2.178 2.178 0 0 1 1.711-.776c.342 0 .657.075.943.225.286.15.506.354.66.615v-.404c0-.666-.188-1.203-.564-1.609-.376-.406-.874-.609-1.494-.609-1.051 0-1.889.41-2.513 1.231-.619.816-.929 1.923-.929 3.32 0 1.407.352 2.527 1.058 3.36.705.833 1.671 1.252 2.897 1.257.231.034.556.05.975.05.418 0 .792-.008 1.122-.025v.923c-.278.022-.637.032-1.077.032a6.532 6.532 0 0 1-1.02-.05c-1.483-.014-2.673-.518-3.571-1.514-.893-.996-1.339-2.34-1.339-4.032 0-1.667.401-2.994 1.205-3.981.803-.987 1.88-1.481 3.231-1.481.893 0 1.607.284 2.141.853.534.568.801 1.33.801 2.288v4.936Zm5.86-2.782c0-.885-.146-1.556-.436-2.013-.287-.462-.705-.692-1.257-.692-.577 0-1.017.23-1.32.692-.304.457-.455 1.128-.455 2.013s.151 1.56.455 2.026c.307.462.752.692 1.333.692.543 0 .957-.233 1.244-.698.29-.466.436-1.14.436-2.02Zm1.179 3.186c0 1.077-.254 1.894-.763 2.45-.508.555-1.256.832-2.243.832-.325 0-.665-.03-1.02-.09a7.474 7.474 0 0 1-1.064-.262V71.97c.419.197.799.342 1.141.436.342.094.656.141.943.141.636 0 1.1-.173 1.391-.52.29-.345.436-.895.436-1.647V69.53c-.188.401-.445.7-.77.897-.324.197-.72.295-1.186.295-.837 0-1.506-.335-2.006-1.006-.5-.671-.75-1.569-.75-2.693 0-1.128.25-2.028.75-2.699.5-.67 1.169-1.006 2.006-1.006.462 0 .853.092 1.174.275.32.184.581.468.782.853v-.93h1.179v6.693Zm5.565-5.987c.145-.308.329-.535.551-.68.227-.15.498-.224.814-.224.577 0 .983.224 1.218.673.24.444.359 1.284.359 2.52v4.16h-1.077v-4.11c0-1.012-.057-1.64-.173-1.884-.111-.248-.316-.372-.615-.372-.342 0-.577.132-.705.397-.124.261-.186.88-.186 1.86v4.109h-1.077v-4.11c0-1.025-.062-1.658-.186-1.897-.12-.24-.338-.36-.654-.36-.312 0-.53.133-.654.398-.12.261-.179.88-.179 1.86v4.109h-1.071v-7.18h1.071v.615a1.56 1.56 0 0 1 .525-.583c.214-.137.455-.205.725-.205.324 0 .594.075.807.224.218.15.387.376.507.68Zm8.077 2.84h-.391c-.688 0-1.207.121-1.558.365-.346.24-.519.598-.519 1.077 0 .432.131.767.391 1.007.261.239.622.358 1.084.358.649 0 1.16-.224 1.532-.673.372-.453.56-1.077.564-1.872v-.262h-1.103Zm2.289-.488v4.097h-1.186v-1.064c-.252.427-.571.743-.955.948-.381.201-.844.302-1.391.302-.731 0-1.315-.205-1.75-.616-.436-.414-.654-.968-.654-1.66 0-.8.267-1.406.801-1.82.538-.415 1.327-.623 2.366-.623h1.583v-.186c-.004-.572-.15-.987-.436-1.243-.286-.26-.744-.391-1.372-.391a4.48 4.48 0 0 0-1.218.173c-.41.115-.81.284-1.199.506v-1.18c.436-.166.853-.29 1.25-.371a5.605 5.605 0 0 1 1.167-.128c.594 0 1.101.087 1.52.263.423.175.765.438 1.025.788.163.214.278.479.346.795.069.312.103.782.103 1.41Zm3.148-3.058h3.019v6.238h2.34v.917h-5.859v-.917h2.34v-5.32h-1.84v-.918Zm1.84-2.788h1.179v1.487h-1.179v-1.487Zm8.654 7.346c0 .53.096.93.289 1.2.196.269.485.403.865.403h1.378v.994h-1.493c-.706 0-1.253-.225-1.642-.673-.384-.453-.577-1.094-.577-1.924V61.58h-1.891v-.923h3.071v7.417Zm5.795.007h2.257v2.59h-2.257v-2.59Zm12.219 2.224c-.316.184-.643.32-.981.41a3.757 3.757 0 0 1-1.025.142c-1.112 0-1.981-.334-2.61-1-.624-.667-.935-1.59-.935-2.77s.311-2.102.935-2.77c.629-.666 1.498-1 2.61-1 .346 0 .683.046 1.013.135.329.09.66.229.993.417v1.237a3.178 3.178 0 0 0-.942-.602 2.864 2.864 0 0 0-1.064-.186c-.74 0-1.308.24-1.706.718-.397.478-.596 1.162-.596 2.051 0 .885.199 1.569.596 2.052.402.478.971.718 1.706.718.41 0 .777-.062 1.102-.186.325-.129.626-.325.904-.59v1.224Zm5.058-5.987c-.598 0-1.051.233-1.359.699-.308.465-.461 1.156-.461 2.07 0 .91.153 1.6.461 2.07.308.467.761.7 1.359.7.603 0 1.058-.233 1.366-.7.307-.47.461-1.16.461-2.07 0-.914-.154-1.605-.461-2.07-.308-.466-.763-.7-1.366-.7Zm0-1c.996 0 1.757.322 2.282.968.53.645.795 1.579.795 2.801 0 1.227-.262 2.163-.788 2.808-.526.641-1.289.962-2.289.962-.996 0-1.756-.32-2.282-.962-.526-.645-.788-1.581-.788-2.808 0-1.222.262-2.156.788-2.801.526-.646 1.286-.968 2.282-.968Zm8.296.904c.145-.308.329-.535.551-.68.227-.15.498-.224.814-.224.577 0 .983.224 1.218.673.24.444.359 1.284.359 2.52v4.16h-1.077v-4.11c0-1.012-.057-1.64-.173-1.884-.111-.248-.316-.372-.615-.372-.342 0-.577.132-.705.397-.124.261-.186.88-.186 1.86v4.109h-1.077v-4.11c0-1.025-.062-1.658-.186-1.897-.12-.24-.338-.36-.654-.36-.312 0-.53.133-.654.398-.12.261-.18.88-.18 1.86v4.109h-1.07v-7.18h1.07v.615c.141-.256.317-.45.526-.583.214-.137.455-.205.725-.205.324 0 .594.075.807.224.218.15.387.376.507.68ZM75.282 84.766V88.4h-1.185V78.49h1.186v.916c.196-.354.457-.624.782-.807.329-.188.707-.282 1.134-.282.868 0 1.547.335 2.039 1.006.496.671.744 1.6.744 2.789 0 1.167-.248 2.083-.744 2.75-.496.663-1.175.994-2.039.994-.436 0-.818-.092-1.147-.276a1.994 1.994 0 0 1-.77-.814Zm3.462-2.68c0-.914-.145-1.605-.436-2.07-.286-.466-.713-.7-1.282-.7-.572 0-1.006.236-1.301.706-.295.466-.442 1.154-.442 2.064 0 .906.147 1.594.442 2.064.295.47.729.706 1.301.706.569 0 .996-.233 1.282-.7.291-.465.436-1.155.436-2.07Zm6.546-.025h-.391c-.689 0-1.208.121-1.558.365-.346.24-.52.598-.52 1.077 0 .432.13.767.392 1.007.26.239.621.358 1.083.358.65 0 1.16-.224 1.532-.673.372-.453.56-1.077.564-1.872v-.262H85.29Zm2.288-.488v4.097h-1.186v-1.064c-.252.427-.57.743-.955.948-.38.201-.844.302-1.391.302-.73 0-1.314-.205-1.75-.616-.436-.414-.654-.968-.654-1.66 0-.8.267-1.406.801-1.82.539-.415 1.327-.623 2.366-.623h1.583v-.186c-.004-.572-.15-.987-.436-1.243-.286-.26-.743-.391-1.371-.391-.402 0-.808.058-1.219.173-.41.115-.81.284-1.198.506v-1.18c.435-.166.852-.29 1.25-.371a5.6 5.6 0 0 1 1.166-.128c.594 0 1.101.087 1.52.263a2.39 2.39 0 0 1 1.025.788c.163.214.278.479.347.795.068.312.102.782.102 1.41Zm7.36-2.833v1.154a4.493 4.493 0 0 0-1.02-.443 3.763 3.763 0 0 0-1.044-.147c-.535 0-.934.088-1.2.263-.26.17-.39.434-.39.788 0 .32.098.56.295.718.196.158.686.312 1.468.462l.474.09c.585.11 1.028.333 1.327.666.303.334.455.767.455 1.302 0 .71-.252 1.265-.756 1.666-.505.398-1.206.597-2.103.597-.355 0-.727-.039-1.115-.116a9.796 9.796 0 0 1-1.263-.333v-1.218c.44.226.86.397 1.263.513.401.11.782.166 1.14.166.522 0 .926-.104 1.212-.314.287-.213.43-.51.43-.89 0-.548-.524-.926-1.57-1.136l-.052-.012-.442-.09c-.68-.133-1.176-.355-1.488-.667-.312-.316-.468-.746-.468-1.288 0-.688.233-1.218.7-1.59.465-.376 1.13-.564 1.993-.564.384 0 .754.036 1.109.109.355.068.703.173 1.045.314Zm7.911 0v1.154a4.504 4.504 0 0 0-1.02-.443 3.763 3.763 0 0 0-1.045-.147c-.534 0-.933.088-1.198.263-.261.17-.391.434-.391.788 0 .32.098.56.294.718.197.158.686.312 1.468.462l.475.09c.585.11 1.028.333 1.327.666.303.334.455.767.455 1.302 0 .71-.252 1.265-.756 1.666-.505.398-1.206.597-2.103.597-.355 0-.727-.039-1.116-.116a9.795 9.795 0 0 1-1.263-.333v-1.218c.44.226.862.397 1.263.513a4.29 4.29 0 0 0 1.142.166c.521 0 .925-.104 1.211-.314.286-.213.43-.51.43-.89 0-.548-.524-.926-1.571-1.136l-.051-.012-.443-.09c-.68-.133-1.175-.355-1.487-.667-.312-.316-.468-.746-.468-1.288 0-.688.233-1.218.699-1.59.466-.376 1.13-.564 1.994-.564.384 0 .754.036 1.109.109.354.068.703.173 1.045.314Zm1.673-.25h1.167l1.25 5.802 1.025-3.706h1.007l1.038 3.706 1.251-5.802h1.166l-1.679 7.18h-1.129l-1.147-3.936-1.141 3.936h-1.129l-1.679-7.18Zm11.86.827c-.599 0-1.052.233-1.359.699-.308.465-.462 1.156-.462 2.07 0 .91.154 1.6.462 2.07.307.467.76.7 1.359.7.602 0 1.057-.233 1.365-.7.308-.47.462-1.16.462-2.07 0-.914-.154-1.605-.462-2.07-.308-.466-.763-.7-1.365-.7Zm0-1c.996 0 1.756.322 2.282.968.53.645.795 1.579.795 2.801 0 1.227-.263 2.163-.789 2.808-.525.641-1.288.962-2.288.962-.996 0-1.757-.32-2.283-.962-.525-.645-.788-1.581-.788-2.808 0-1.222.263-2.156.788-2.801.526-.646 1.287-.968 2.283-.968Zm11.366 1.654a2.677 2.677 0 0 0-.769-.43 2.627 2.627 0 0 0-.859-.135c-.735 0-1.297.231-1.686.693-.389.461-.584 1.128-.584 2v3.57h-1.186v-7.18h1.186v1.405c.197-.509.498-.898.904-1.167.41-.274.895-.41 1.455-.41.291 0 .562.036.815.109.252.072.493.186.724.34v1.205Zm6.007-.565v-3.711h1.179v9.975h-1.179v-.904c-.197.355-.46.626-.789.814a2.252 2.252 0 0 1-1.128.276c-.868 0-1.551-.336-2.051-1.007-.496-.675-.744-1.605-.744-2.788 0-1.167.25-2.082.75-2.744.5-.667 1.182-1 2.045-1 .432 0 .812.094 1.141.282.329.183.588.453.776.807Zm-3.468 2.68c0 .915.145 1.605.436 2.07.29.467.72.7 1.288.7.569 0 1-.235 1.295-.706.299-.47.449-1.158.449-2.064 0-.91-.15-1.598-.449-2.064-.295-.47-.726-.705-1.295-.705-.568 0-.998.233-1.288.699-.291.465-.436 1.156-.436 2.07Zm39.253 2.5h2.012v-7.23l-2.41 1.16v-1.244l2.398-1.141h1.295v8.455h1.987v1.084h-5.282v-1.084Zm8.571-.006h4.397v1.09h-5.814v-1.09c.799-.842 1.498-1.586 2.096-2.231a51.29 51.29 0 0 0 1.237-1.365c.428-.522.716-.943.866-1.263.15-.325.224-.656.224-.994 0-.534-.158-.953-.474-1.257-.312-.303-.742-.455-1.289-.455a3.9 3.9 0 0 0-1.224.212 6.89 6.89 0 0 0-1.359.64V76.56c.44-.21.872-.367 1.295-.474.427-.107.848-.16 1.263-.16.936 0 1.688.25 2.256.75.573.495.859 1.147.859 1.955 0 .41-.096.82-.288 1.23-.188.411-.496.864-.923 1.36-.24.278-.588.662-1.045 1.154-.453.491-1.146 1.226-2.077 2.205Zm10.494-4.032c.628.166 1.109.463 1.442.89.334.424.501.954.501 1.59 0 .881-.298 1.573-.892 2.078-.589.5-1.408.75-2.455.75-.44 0-.889-.04-1.346-.122a8.66 8.66 0 0 1-1.346-.353v-1.288c.436.226.865.395 1.288.506.423.111.844.167 1.263.167.71 0 1.254-.16 1.635-.48.38-.322.57-.783.57-1.386 0-.555-.19-.995-.57-1.32-.381-.33-.896-.494-1.545-.494h-.987v-1.064h.987c.594 0 1.058-.13 1.391-.391.333-.26.5-.624.5-1.09 0-.491-.156-.867-.468-1.128-.308-.265-.748-.398-1.321-.398-.38 0-.773.043-1.179.129a8.389 8.389 0 0 0-1.276.384v-1.192c.517-.137.977-.24 1.378-.308a6.572 6.572 0 0 1 1.077-.103c.932 0 1.676.236 2.231.706.56.466.84 1.085.84 1.859 0 .526-.147.964-.442 1.314-.291.35-.716.598-1.276.744Zm7.648-3.27-3.019 5.058h3.019v-5.058Zm-.211-1.18h1.5v6.238h1.275v1.052h-1.275v2.282h-1.289v-2.282h-4.058v-1.225l3.847-6.064Zm4.737 0h4.847v1.09h-3.667v2.353a2.91 2.91 0 0 1 .551-.147c.188-.035.376-.052.564-.052.992 0 1.778.293 2.359.879.581.585.872 1.378.872 2.378 0 1.009-.305 1.804-.917 2.385-.607.581-1.438.872-2.493.872-.509 0-.975-.034-1.398-.103a5.144 5.144 0 0 1-1.128-.308v-1.314c.393.214.788.374 1.186.481.397.103.803.154 1.218.154.714 0 1.263-.188 1.647-.564.389-.376.584-.91.584-1.603 0-.684-.201-1.216-.603-1.596-.397-.38-.953-.57-1.667-.57-.346 0-.683.04-1.013.121a3.916 3.916 0 0 0-.942.353v-4.808Zm12.937.212v1.192a3.453 3.453 0 0 0-.859-.358 3.487 3.487 0 0 0-.949-.129c-.82 0-1.442.31-1.865.93-.424.615-.635 1.524-.635 2.724.205-.427.489-.754.853-.98.363-.231.779-.347 1.25-.347.923 0 1.636.285 2.141.853.508.564.763 1.366.763 2.404 0 1.034-.261 1.836-.782 2.404-.522.569-1.255.853-2.199.853-1.112 0-1.926-.398-2.443-1.193-.517-.799-.776-2.055-.776-3.77 0-1.615.31-2.846.93-3.692.624-.85 1.526-1.275 2.705-1.275.317 0 .633.034.949.102.316.064.622.158.917.282Zm-2.308 4.045c-.551 0-.985.199-1.301.596-.317.398-.475.947-.475 1.648s.158 1.25.475 1.648c.316.397.75.596 1.301.596.573 0 1.004-.188 1.295-.564.291-.38.436-.94.436-1.68 0-.744-.145-1.303-.436-1.68-.291-.376-.722-.564-1.295-.564ZM34.741 102.53h.436c.602 0 .996-.094 1.18-.282.183-.188.275-.584.275-1.186V98.83c0-.667.096-1.152.289-1.455.192-.304.525-.513 1-.629-.47-.106-.804-.312-1-.615-.193-.303-.289-.79-.289-1.462v-1.59c0-.602-.092-.997-.276-1.185-.183-.189-.577-.283-1.18-.283h-.435v-.916h.398c1.064 0 1.775.158 2.134.474.36.312.539.94.539 1.885v1.538c0 .642.113 1.084.34 1.327.23.244.647.366 1.25.366h.41v.917h-.41c-.603 0-1.02.124-1.25.371-.227.248-.34.695-.34 1.34v2.173c0 .945-.18 1.575-.539 1.892-.359.316-1.07.474-2.135.474h-.397v-.923Z" fill="#fff"/><path d="M71.026 60.752v3.924H69.59v-3.924h1.436Zm-3.417 0v3.924h-1.436v-3.924h1.436Zm50.882 0v3.924h-1.436v-3.924h1.436Zm-3.417 0v3.924h-1.436v-3.924h1.436Zm27.149 0v3.924h-1.436v-3.924h1.436Zm-3.417 0v3.924h-1.436v-3.924h1.436Zm122.08 0v3.924h-1.436v-3.924h1.436Zm-3.417 0v3.924h-1.436v-3.924h1.436Zm-186.443 15v3.924H69.59v-3.924h1.436Zm-3.417 0v3.924h-1.436v-3.924h1.436Zm74.614 0v3.924h-1.436v-3.924h1.436Zm-3.417 0v3.924h-1.436v-3.924h1.436Zm27.15 0v3.924h-1.436v-3.924h1.436Zm-3.417 0v3.924h-1.436v-3.924h1.436Zm58.793 0v3.924h-1.436v-3.924h1.436Zm-3.417 0v3.924h-1.436v-3.924h1.436Z" fill="#FE2C3D"/><path d="M123.094 63.496h2v2.315h-2v-2.315Zm0 4.84h2v2.334h-2v-2.334Zm142.478.02h2v1.698l-1.423 2.763-1.282.007.705-2.77v-1.698Zm-118.746 10.14h2v2.315h-2v-2.315Zm0 4.84h2v2.334h-2v-2.334Z" fill="#5F54FD"/><path d="M16 3.282A3.282 3.282 0 0 1 19.282 0h336.436A3.283 3.283 0 0 1 359 3.282v19.694H16V3.282Z" fill="#5B4F68" fill-opacity=".5"/><path d="M34.158 6.78v6.785h.926v-2.54h1.782c1.438 0 2.019-1.055 2.019-2.118s-.581-2.127-2.02-2.127h-2.707Zm2.698.857c.788 0 1.113.65 1.113 1.27 0 .63-.335 1.26-1.162 1.26h-1.723v-2.53h1.772Zm2.83 2.55c0 1.93 1.497 3.476 3.427 3.476 1.94 0 3.447-1.546 3.447-3.476 0-1.92-1.507-3.486-3.447-3.486-1.93 0-3.426 1.566-3.426 3.486Zm.916 0c0-1.447 1.093-2.6 2.511-2.6 1.428 0 2.521 1.153 2.521 2.6 0 1.448-1.093 2.59-2.52 2.59-1.419 0-2.512-1.142-2.512-2.59Zm6.951 1.418c0 1.063.995 2.058 2.373 2.058 1.34 0 2.137-.788 2.265-1.772.148-1.093-.541-1.802-1.812-2.127l-.886-.217c-.857-.207-.965-.65-.965-.945 0-.62.6-1.024 1.27-1.024.749 0 1.28.433 1.28 1.112h.916c0-1.22-.955-1.989-2.186-1.989-1.152 0-2.196.768-2.196 1.91 0 .591.207 1.409 1.654 1.773l.877.217c.61.137 1.201.482 1.152 1.21-.079.513-.502.995-1.369.995-.856 0-1.457-.61-1.457-1.201h-.916Zm5.36-4.825v.867h2.058v5.918h.926V7.647h2.058V6.78h-5.042ZM322.669 10.667a.246.246 0 0 1-.175-.42l3.509-3.508a.246.246 0 0 1 .348 0l3.509 3.508a.246.246 0 0 1-.174.42h-7.017ZM322.669 12.309c-.22 0-.33.265-.175.42l3.509 3.508a.246.246 0 0 0 .348 0l3.509-3.508a.246.246 0 0 0-.174-.42h-7.017Z" fill="#fff"/><path opacity=".4" d="M347.594 12.054h-1.068a1.59 1.59 0 0 1-1.591-1.59V9.395a.368.368 0 0 0-.369-.369h-1.561c-1.137 0-2.058.739-2.058 2.058v3.27c0 1.319.921 2.057 2.058 2.057h2.9c1.137 0 2.058-.738 2.058-2.058v-1.93a.368.368 0 0 0-.369-.369Z" fill="#fff"/><path d="M348.736 6.565h-2.9c-1.112 0-2.013.709-2.053 1.974.03 0 .054-.005.084-.005h2.9c1.137 0 2.058.738 2.058 2.058v3.274c0 .03-.005.054-.005.079 1.098-.035 1.974-.763 1.974-2.048V8.623c0-1.32-.92-2.058-2.058-2.058Z" fill="#fff"/><path d="M345.861 9.1c-.153-.152-.414-.049-.414.163v1.29c0 .541.458.984 1.019.984.35.005.837.005 1.256.005.212 0 .32-.246.172-.394a406.547 406.547 0 0 1-2.033-2.048Z" fill="#fff"/><path d="M336.023 4.394v14.141" stroke="#fff" stroke-width=".246"/><path d="M286.816 11.838c0 1.943 1.497 3.217 3.243 3.217.945 0 1.799-.368 2.376-.998l-.919-.762a2.02 2.02 0 0 1-1.457.604c-1.103 0-2.061-.84-2.061-2.06 0-1.235.958-2.01 2.061-2.01.564 0 1.09.21 1.457.578l.906-.761c-.578-.63-1.418-.985-2.363-.985-1.746 0-3.243 1.234-3.243 3.177Zm10.437 2.035c-1.116 0-2.074-.8-2.074-2.061V5.877h-1.234v5.935c0 1.97 1.51 3.243 3.308 3.243 1.773 0 3.309-1.274 3.309-3.243V5.877h-1.234v5.935c0 1.26-.959 2.061-2.075 2.061Zm9.476-2.376c1.694-.145 2.363-1.444 2.363-2.784 0-1.418-.774-2.836-2.678-2.836h-3.479v9.047h1.234v-3.388h1.155l2.337 3.388h1.484l-2.416-3.427Zm-.354-4.477c1.05 0 1.457.866 1.457 1.693 0 .84-.407 1.68-1.51 1.68h-2.153V7.02h2.206Zm4.689-1.143v9.047h4.91V13.78h-3.689V5.877h-1.221Z" fill="#fff"/><rect x="16" y="128.015" width="343" height="6.565" rx="3.282" fill="#28283E"/><rect x="16" y="128.015" width="259.967" height="6.565" rx="3.282" fill="#50465E" fill-opacity=".5"/></g></g><defs><clipPath id="b"><rect x="16" width="343" height="134.574" rx="3.282" fill="#fff"/></clipPath><filter id="a" x="-49.646" y="0" width="474.292" height="282.278" filterUnits="userSpaceOnUse" color-interpolation-filters="sRGB"><feFlood flood-opacity="0" result="BackgroundImageFix"/><feColorMatrix in="SourceAlpha" values="0 0 0 0 0 0 0 0 0 0 0 0 0 0 0 0 0 0 127 0" result="hardAlpha"/><feOffset dy="82.057"/><feGaussianBlur stdDeviation="32.823"/><feColorMatrix values="0 0 0 0 0 0 0 0 0 0 0 0 0 0 0 0 0 0 0.1 0"/><feBlend in2="BackgroundImageFix" result="effect1_dropShadow"/><feBlend in="SourceGraphic" in2="effect1_dropShadow" result="shape"/></filter></defs></svg>