<svg width="56" height="57" viewBox="0 0 56 57" fill="none" xmlns="http://www.w3.org/2000/svg">
<rect x="2" y="2.17188" width="52" height="52" rx="26" fill="#0075FF"/>
<path opacity="0.4" d="M28 38.1719C33.5228 38.1719 38 33.6947 38 28.1719C38 22.649 33.5228 18.1719 28 18.1719C22.4772 18.1719 18 22.649 18 28.1719C18 33.6947 22.4772 38.1719 28 38.1719Z" fill="white"/>
<path d="M26.5814 31.7519C26.3814 31.7519 26.1914 31.6719 26.0514 31.5319L23.2214 28.7019C22.9314 28.4119 22.9314 27.9319 23.2214 27.6419C23.5114 27.3519 23.9914 27.3519 24.2814 27.6419L26.5814 29.9419L31.7214 24.8019C32.0114 24.5119 32.4914 24.5119 32.7814 24.8019C33.0714 25.0919 33.0714 25.5719 32.7814 25.8619L27.1114 31.5319C26.9714 31.6719 26.7814 31.7519 26.5814 31.7519Z" fill="white"/>
<rect x="2" y="2.17188" width="52" height="52" rx="26" stroke="white" stroke-width="4"/>
</svg>
