<svg width="56" height="57" viewBox="0 0 56 57" fill="none" xmlns="http://www.w3.org/2000/svg">
<rect x="2" y="2.17188" width="52" height="52" rx="26" fill="#0075FF"/>
<path opacity="0.4" d="M32.24 18.1719H23.76C21 18.1719 20 19.1719 20 21.9819V34.3619C20 37.1719 21 38.1719 23.76 38.1719H32.23C35 38.1719 36 37.1719 36 34.3619V21.9819C36 19.1719 35 18.1719 32.24 18.1719Z" fill="white"/>
<path d="M30 22.4219H26C25.59 22.4219 25.25 22.0819 25.25 21.6719C25.25 21.2619 25.59 20.9219 26 20.9219H30C30.41 20.9219 30.75 21.2619 30.75 21.6719C30.75 22.0819 30.41 22.4219 30 22.4219Z" fill="white"/>
<path d="M28 35.4719C28.9665 35.4719 29.75 34.6884 29.75 33.7219C29.75 32.7554 28.9665 31.9719 28 31.9719C27.0335 31.9719 26.25 32.7554 26.25 33.7219C26.25 34.6884 27.0335 35.4719 28 35.4719Z" fill="white"/>
<rect x="2" y="2.17188" width="52" height="52" rx="26" stroke="white" stroke-width="4"/>
</svg>
