<svg width="56" height="57" viewBox="0 0 56 57" fill="none" xmlns="http://www.w3.org/2000/svg">
<rect x="2" y="2.17188" width="52" height="52" rx="26" fill="#F6F9FD"/>
<path opacity="0.4" d="M32.1917 18.1719H23.8217C20.1817 18.1719 18.0117 20.3419 18.0117 23.9819V32.3519C18.0117 35.9919 20.1817 38.1619 23.8217 38.1619H32.1917C35.8317 38.1619 38.0017 35.9919 38.0017 32.3519V23.9819C38.0017 20.3419 35.8317 18.1719 32.1917 18.1719Z" fill="#0075FF"/>
<path d="M25.1716 30.2619C25.3616 30.2619 25.5516 30.1919 25.7016 30.0419L30.0816 25.6619V28.0919C30.0816 28.5019 30.4216 28.8419 30.8316 28.8419C31.2416 28.8419 31.5816 28.5019 31.5816 28.0919V23.8519C31.5816 23.7519 31.5616 23.6619 31.5216 23.5619C31.4416 23.3819 31.3016 23.2319 31.1116 23.1519C31.0216 23.1119 30.9216 23.0919 30.8216 23.0919H26.5816C26.1716 23.0919 25.8316 23.4319 25.8316 23.8419C25.8316 24.2519 26.1716 24.5919 26.5816 24.5919H29.0116L24.6316 28.9719C24.3416 29.2619 24.3416 29.7419 24.6316 30.0319C24.7916 30.1919 24.9816 30.2619 25.1716 30.2619Z" fill="#0075FF"/>
<path d="M34.7107 32.452C34.5807 32.062 34.1607 31.852 33.7607 31.982C30.0407 33.222 25.9507 33.222 22.2307 31.982C21.8407 31.852 21.4107 32.062 21.2807 32.452C21.1507 32.842 21.3607 33.272 21.7507 33.402C23.7607 34.072 25.8707 34.412 27.9907 34.412C30.1107 34.412 32.2207 34.072 34.2307 33.402C34.6307 33.262 34.8407 32.842 34.7107 32.452Z" fill="#0075FF"/>
<rect x="2" y="2.17188" width="52" height="52" rx="26" stroke="white" stroke-width="4"/>
</svg>
