<svg width="1440" height="1172" viewBox="0 0 1440 1172" fill="none" xmlns="http://www.w3.org/2000/svg"><g filter="url(#filter0_d)"><path d="M1852.73 192.796c-115.17 2.333-395.9-4.8-661.5 48-332.001 66-413.501 17.5-732.501 0-255.2-14-332-99-576-66" stroke="#FFCCD0" stroke-opacity=".2" stroke-width="2" shape-rendering="crispEdges"/></g><g filter="url(#filter1_d)"><path d="M1868.23 195.796c-198.5 42-505-15.5-667 10.5-334.22 53.641-524.001 103-697.001 55-173-47.999-372-143.947-616-110.948" stroke="#FFCCD0" stroke-opacity=".2" stroke-width="2" shape-rendering="crispEdges"/></g><g filter="url(#filter2_f)"><path d="M950.224 324.199c239.546-6.654 497.726-325.06 730.606-189.9 232.89 135.159 344.19 373.278 13.77 649.753-203.78 170.506-559.15 63.133-1118.59-53.123-456.835-94.934-775.669 406.301-892.113 333.521-116.444-72.777-212.095-392.998-85.254-625.885 126.841-232.888 325.77-267.483 650.839-201.698 169.169 34.236 401.315 95.649 700.742 87.332z" fill="url(#paint0_linear)"/></g><g filter="url(#filter3_d)"><path d="M1697.25 755.997c-115.17-3.474-395.9 7.147-661.5-71.476-332-98.279-413.5-26.059-732.5 0-255.2 20.847-332 147.419-576 98.28" stroke="#FFCCD0" stroke-width="2"/></g><g filter="url(#filter4_d)"><path d="M1712.75 751.53c-198.5-62.541-505 23.081-667-15.635-334.22-79.875-524-153.375-697-81.9-173 71.476-372 214.35-616 165.211" stroke="#FFCCD0" stroke-width="2"/></g><defs><filter id="filter0_d" x="-127.404" y="160.244" width="1990.15" height="129.173" filterUnits="userSpaceOnUse" color-interpolation-filters="sRGB"><feFlood flood-opacity="0" result="BackgroundImageFix"/><feColorMatrix in="SourceAlpha" values="0 0 0 0 0 0 0 0 0 0 0 0 0 0 0 0 0 0 127 0" result="hardAlpha"/><feOffset dy="4"/><feGaussianBlur stdDeviation="5"/><feComposite in2="hardAlpha" operator="out"/><feColorMatrix values="0 0 0 0 0.996078 0 0 0 0 0.172549 0 0 0 0 0.239216 0 0 0 0.2 0"/><feBlend in2="BackgroundImageFix" result="effect1_dropShadow"/><feBlend in="SourceGraphic" in2="effect1_dropShadow" result="shape"/></filter><filter id="filter1_d" x="-121.904" y="136.586" width="2000.34" height="159.181" filterUnits="userSpaceOnUse" color-interpolation-filters="sRGB"><feFlood flood-opacity="0" result="BackgroundImageFix"/><feColorMatrix in="SourceAlpha" values="0 0 0 0 0 0 0 0 0 0 0 0 0 0 0 0 0 0 127 0" result="hardAlpha"/><feOffset dy="4"/><feGaussianBlur stdDeviation="5"/><feComposite in2="hardAlpha" operator="out"/><feColorMatrix values="0 0 0 0 0.996078 0 0 0 0 0.172549 0 0 0 0 0.239216 0 0 0 0.2 0"/><feBlend in2="BackgroundImageFix" result="effect1_dropShadow"/><feBlend in="SourceGraphic" in2="effect1_dropShadow" result="shape"/></filter><filter id="filter2_f" x="-561.508" y=".91" width="2563.02" height="1170.79" filterUnits="userSpaceOnUse" color-interpolation-filters="sRGB"><feFlood flood-opacity="0" result="BackgroundImageFix"/><feBlend in="SourceGraphic" in2="BackgroundImageFix" result="shape"/><feGaussianBlur stdDeviation="50" result="effect1_foregroundBlur"/></filter><filter id="filter3_d" x="-282.947" y="627.458" width="1990.23" height="181.588" filterUnits="userSpaceOnUse" color-interpolation-filters="sRGB"><feFlood flood-opacity="0" result="BackgroundImageFix"/><feColorMatrix in="SourceAlpha" values="0 0 0 0 0 0 0 0 0 0 0 0 0 0 0 0 0 0 127 0" result="hardAlpha"/><feOffset dy="4"/><feGaussianBlur stdDeviation="5"/><feComposite in2="hardAlpha" operator="out"/><feColorMatrix values="0 0 0 0 0.996078 0 0 0 0 0.172549 0 0 0 0 0.239216 0 0 0 0.2 0"/><feBlend in2="BackgroundImageFix" result="effect1_dropShadow"/><feBlend in="SourceGraphic" in2="effect1_dropShadow" result="shape"/></filter><filter id="filter4_d" x="-277.447" y="618.002" width="2000.5" height="226.276" filterUnits="userSpaceOnUse" color-interpolation-filters="sRGB"><feFlood flood-opacity="0" result="BackgroundImageFix"/><feColorMatrix in="SourceAlpha" values="0 0 0 0 0 0 0 0 0 0 0 0 0 0 0 0 0 0 127 0" result="hardAlpha"/><feOffset dy="4"/><feGaussianBlur stdDeviation="5"/><feComposite in2="hardAlpha" operator="out"/><feColorMatrix values="0 0 0 0 0.996078 0 0 0 0 0.172549 0 0 0 0 0.239216 0 0 0 0.2 0"/><feBlend in2="BackgroundImageFix" result="effect1_dropShadow"/><feBlend in="SourceGraphic" in2="effect1_dropShadow" result="shape"/></filter><linearGradient id="paint0_linear" x1="195.248" y1="-158.272" x2="1489.28" y2="891.141" gradientUnits="userSpaceOnUse"><stop stop-color="#E7004D"/><stop offset=".974" stop-color="#FC8F0C"/></linearGradient></defs></svg>