<svg width="32" height="33" fill="none" xmlns="http://www.w3.org/2000/svg"><path opacity=".4" d="M15.9993 29.9261c7.3638 0 13.3334-5.9696 13.3334-13.3334 0-7.3638-5.9696-13.3333-13.3334-13.3333-7.3637 0-13.3333 5.9695-13.3333 13.3333 0 7.3638 5.9695 13.3334 13.3333 13.3334Z" fill="#0075FF"/><path d="M15.9993 26.9261c-5.6933 0-10.3333-4.64-10.3333-10.3334 0-.5466.4533-1 1-1s1 .4534 1 1c0 4.6 3.7333 8.3334 8.3333 8.3334s8.3334-3.7334 8.3334-8.3334-3.7334-8.3333-8.3334-8.3333c-.5466 0-1-.4533-1-1s.4534-1 1-1c5.6934 0 10.3334 4.64 10.3334 10.3333 0 5.6934-4.64 10.3334-10.3334 10.3334Z" fill="#0075FF"/><path d="M16 22.9261c-.5467 0-1-.4534-1-1 0-.5467.4533-1 1-1 2.3867 0 4.3333-1.9467 4.3333-4.3334 0-2.3866-1.9466-4.3333-4.3333-4.3333-.5467 0-1-.4533-1-1s.4533-1 1-1c3.4933 0 6.3333 2.84 6.3333 6.3333 0 3.4934-2.84 6.3334-6.3333 6.3334Z" fill="#0075FF"/></svg>