<svg width="33" height="33" fill="none" xmlns="http://www.w3.org/2000/svg"><path opacity=".4" d="M27.834 14.1794h-3.8533c-3.16 0-5.7334-2.5733-5.7334-5.7333V4.5927c0-.7333-.6-1.3333-1.3333-1.3333h-5.6533c-4.1067 0-7.4267 2.6667-7.4267 7.4267v11.8133c0 4.76 3.32 7.4267 7.4267 7.4267h10.48c4.1066 0 7.4266-2.6667 7.4266-7.4267v-6.9867c0-.7333-.6-1.3333-1.3333-1.3333Z" fill="#0075FF"/><path d="M21.5676 3.5396c-.5467-.5467-1.4934-.1733-1.4934.5867v4.6533c0 1.9467 1.6534 3.56 3.6667 3.56 1.2667.0133 3.0267.0133 4.5333.0133.76 0 1.16-.8933.6267-1.4266-1.92-1.9334-5.36-5.4134-7.3333-7.3867ZM18.5 18.9261h-8c-.5467 0-1-.4533-1-1 0-.5466.4533-1 1-1h8c.5467 0 1 .4534 1 1 0 .5467-.4533 1-1 1ZM15.8333 24.2594H10.5c-.5467 0-1-.4533-1-1s.4533-1 1-1h5.3333c.5467 0 1 .4533 1 1s-.4533 1-1 1Z" fill="#0075FF"/></svg>