<svg width="32" height="33" fill="none" xmlns="http://www.w3.org/2000/svg"><path d="M6.6663 20.5928c-2.9466 0-5.3333 2.3866-5.3333 5.3333 0 1 .28 1.9467.7733 2.7467.92 1.5466 2.6134 2.5866 4.56 2.5866 1.9467 0 3.64-1.04 4.56-2.5866.4934-.8.7734-1.7467.7734-2.7467 0-2.9467-2.3867-5.3333-5.3334-5.3333Zm2.6267 4.8933-2.84 2.6267c-.1867.1733-.44.2667-.68.2667a.989.989 0 0 1-.7067-.2934l-1.32-1.32c-.3866-.3867-.3866-1.0267 0-1.4133.3867-.3867 1.0267-.3867 1.4134 0l.64.64 2.1333-1.9734c.4-.3733 1.04-.3466 1.4133.0534.3734.4.3467 1.04-.0533 1.4133ZM23.6663 9.9927c-.32-.0533-.6534-.0667-1-.0667H9.3329c-.3733 0-.7333.0267-1.08.08.1867-.3733.4534-.72.7734-1.04l4.3333-4.3466c1.8267-1.8133 4.7867-1.8133 6.6133 0l2.3334 2.36c.8533.84 1.3066 1.9066 1.36 3.0133Z" fill="#0075FF"/><path opacity=".4" d="M29.3337 16.5928v6.6667c0 4-2.6667 6.6666-6.6667 6.6666H10.1737c.4133-.3466.7733-.7733 1.0533-1.2533.4933-.8.7733-1.7467.7733-2.7467 0-2.9466-2.3866-5.3333-5.3333-5.3333-1.6 0-3.0267.7067-4 1.8133v-5.8133c0-3.6267 2.1867-6.16 5.5867-6.5867a7.1018 7.1018 0 0 1 1.08-.08H22.667c.3467 0 .68.0134 1 .0667 3.44.4 5.6667 2.9467 5.6667 6.6Z" fill="#0075FF"/><path d="M29.3337 17.2594h-4c-1.4667 0-2.6667 1.2-2.6667 2.6667 0 1.4666 1.2 2.6666 2.6667 2.6666h4" fill="#0075FF"/></svg>